<?xml version="1.0" standalone="no"?>
<!DOCTYPE svg PUBLIC "-//W3C//DTD SVG 20010904//EN"
 "http://www.w3.org/TR/2001/REC-SVG-20010904/DTD/svg10.dtd">
<svg version="1.0" xmlns="http://www.w3.org/2000/svg"
 width="300.000000pt" height="168.000000pt" viewBox="0 0 300.000000 168.000000"
 preserveAspectRatio="xMidYMid meet">
<metadata>
Created by potrace 1.10, written by Peter Selinger 2001-2011
</metadata>
<g transform="translate(0.000000,168.000000) scale(0.100000,-0.100000)"
fill="#000000" stroke="none">
<path d="M364 1620 c3 -36 11 -135 16 -220 6 -85 13 -171 15 -190 2 -19 5 -60
5 -90 2 -48 3 -51 10 -26 5 16 8 32 6 35 -5 7 -23 253 -32 416 -3 66 -10 125
-16 130 -7 7 -8 -11 -4 -55z"/>
<path d="M678 1673 c6 -2 18 -2 25 0 6 3 1 5 -13 5 -14 0 -19 -2 -12 -5z"/>
<path d="M1246 1665 c-2 -7 4 -19 15 -28 20 -18 24 -17 179 3 100 14 121 35
25 26 -38 -4 -104 -9 -145 -11 l-75 -4 70 14 70 13 -67 0 c-42 -1 -69 -6 -72
-13z"/>
<path d="M2580 1670 c8 -5 20 -10 25 -10 6 0 3 5 -5 10 -8 5 -19 10 -25 10 -5
0 -3 -5 5 -10z"/>
<path d="M2910 1673 c-54 -3 -247 -20 -305 -27 -16 -2 -121 -12 -232 -22 -112
-10 -203 -21 -203 -24 0 -3 -16 -4 -35 -2 -31 4 -86 -2 -340 -37 -114 -16 1
-10 149 7 l149 18 -7 -145 c-3 -81 -9 -198 -13 -262 l-6 -117 104 -6 c57 -4
129 -9 159 -11 157 -12 651 -37 655 -33 3 3 7 79 10 169 l4 164 -14 -145 c-9
-80 -17 -151 -20 -158 -3 -9 -19 -11 -52 -8 -27 3 -97 8 -158 11 -178 8 -670
36 -670 38 -1 1 4 94 11 207 7 113 13 221 13 241 l1 37 63 6 c34 3 233 22 442
42 209 19 382 37 385 40 5 5 -22 25 -30 22 -3 -1 -30 -3 -60 -5z"/>
<path d="M731 1666 c2 -2 31 -6 64 -9 39 -4 50 -3 30 2 -31 9 -102 14 -94 7z"/>
<path d="M2090 1660 c0 -5 7 -7 15 -4 8 4 15 8 15 10 0 2 -7 4 -15 4 -8 0 -15
-4 -15 -10z"/>
<path d="M870 1646 c0 -2 11 -6 25 -8 14 -3 25 -1 25 3 0 5 -11 9 -25 9 -14 0
-25 -2 -25 -4z"/>
<path d="M1598 1643 c7 -3 16 -2 19 1 4 3 -2 6 -13 5 -11 0 -14 -3 -6 -6z"/>
<path d="M970 1630 c25 -5 68 -12 95 -14 l50 -5 -45 9 c-25 5 -67 12 -95 14
l-50 5 45 -9z"/>
<path d="M1703 1627 c0 -7 14 -12 33 -12 37 0 33 9 -7 18 -17 4 -26 2 -26 -6z"/>
<path d="M2058 1633 c6 -2 18 -2 25 0 6 3 1 5 -13 5 -14 0 -19 -2 -12 -5z"/>
<path d="M2944 1621 c7 -11 -20 -34 -32 -27 -6 3 -16 -1 -23 -10 -7 -9 -54
-51 -104 -92 -49 -42 -121 -105 -159 -139 -38 -35 -74 -63 -80 -63 -6 0 3 12
19 26 17 15 65 60 108 100 42 41 77 72 77 69 0 -3 13 9 28 25 16 16 32 26 36
22 4 -4 6 -2 4 4 -1 7 1 12 6 12 5 0 17 13 27 28 10 16 26 32 36 36 15 6 16 7
2 7 -9 1 -49 -29 -89 -66 -57 -53 -74 -64 -81 -52 -8 12 -9 12 -7 -1 2 -8 -1
-16 -6 -17 -14 -2 -65 -56 -61 -63 7 -12 -23 -33 -35 -25 -6 4 -9 1 -8 -5 2
-6 -38 -50 -88 -98 -50 -48 -81 -79 -69 -69 32 26 42 21 15 -8 -14 -14 -30
-23 -39 -20 -18 7 -63 -34 -54 -49 4 -7 1 -6 -8 1 -9 7 -20 8 -29 3 -25 -16
-38 2 -21 29 8 13 12 13 28 1 10 -8 15 -10 10 -5 -4 4 1 17 10 27 16 17 16 20
-2 36 -10 9 -15 11 -11 5 8 -15 -5 -17 -20 -4 -15 14 -45 -1 -34 -18 7 -12 11
-12 24 -2 23 20 19 -3 -4 -24 -15 -14 -20 -15 -20 -4 0 11 -2 11 -10 -1 -8
-13 -11 -12 -25 5 -11 14 -13 15 -9 4 3 -10 2 -19 -3 -22 -4 -3 -9 6 -9 19 -1
13 2 24 8 24 5 0 6 5 2 11 -5 8 -9 8 -14 -1 -9 -14 -30 -5 -30 12 0 6 3 8 7 5
3 -4 12 -2 19 4 8 6 14 6 18 0 4 -6 18 -4 36 6 37 18 39 26 4 13 -33 -13 -47
-13 -39 0 3 6 13 10 22 10 9 0 22 8 29 18 8 10 13 12 14 5 0 -7 9 -13 21 -13
11 0 18 4 14 9 -3 5 -1 12 5 16 5 3 10 -3 10 -14 0 -22 33 -30 45 -11 3 6 -2
10 -13 10 -12 0 -25 15 -40 48 -12 26 -19 36 -16 23 4 -15 2 -21 -4 -17 -17
10 -23 -11 -7 -24 8 -7 12 -16 9 -21 -3 -5 -12 -2 -20 6 -9 8 -21 15 -27 15
-8 0 -7 -3 2 -9 9 -6 10 -11 2 -15 -6 -4 -15 -5 -21 -1 -5 3 -16 -5 -25 -19
-9 -13 -25 -26 -35 -29 -23 -6 -27 -35 -5 -43 12 -5 12 -8 0 -20 -16 -16 -35
-18 -35 -4 0 6 -5 10 -11 10 -5 0 -8 -4 -4 -9 3 -5 -5 -12 -17 -14 -17 -3 -13
-5 12 -7 84 -6 106 -6 123 2 13 7 17 4 17 -11 0 -11 -6 -21 -12 -24 -7 -2 -5
-3 6 -1 14 2 17 -2 13 -22 -2 -13 -1 -24 4 -24 4 0 9 10 11 22 2 12 10 23 18
25 13 4 13 3 0 -7 -12 -9 -10 -10 10 -4 14 4 31 9 39 12 10 4 12 1 6 -7 -12
-21 21 0 109 68 43 33 83 58 89 54 5 -3 7 -1 4 4 -4 6 18 29 49 52 58 43 70
49 58 29 -4 -8 -3 -10 2 -5 5 5 9 12 9 15 0 13 16 32 27 32 6 0 5 -7 -3 -17
-13 -16 -12 -17 4 -4 9 8 15 16 12 19 -6 7 15 32 27 32 5 0 6 -5 2 -12 -5 -7
-3 -8 5 -4 7 5 10 11 7 14 -7 7 13 32 26 32 6 0 4 -8 -3 -17 -13 -16 -12 -17
3 -5 10 8 16 17 15 20 -1 4 1 8 6 9 17 5 56 56 51 65 -4 6 3 8 17 3 17 -4 20
-3 10 3 -15 11 -4 21 21 17 10 -2 16 0 15 3 -1 4 11 20 27 35 15 16 26 31 23
34 -8 7 -128 -87 -123 -96 3 -4 0 -8 -7 -8 -7 0 -103 -73 -215 -163 -112 -89
-205 -160 -208 -158 -2 3 62 58 143 123 82 66 198 161 259 212 62 51 123 97
135 102 22 9 22 10 -9 10 -18 1 -31 -3 -28 -8z m-244 -154 c0 -2 -12 -14 -27
-28 l-28 -24 24 28 c23 25 31 32 31 24z m-350 -135 c0 -12 -3 -12 -15 -2 -8 7
-15 13 -15 15 0 1 7 2 15 2 8 0 15 -7 15 -15z m170 -67 c-13 -14 -28 -25 -33
-25 -6 0 0 11 13 25 13 14 28 25 33 25 6 0 0 -11 -13 -25z m-170 -56 c-7 -11
-14 -18 -17 -15 -3 3 0 12 7 21 18 21 23 19 10 -6z m64 -31 c-5 -8 -1 -9 12
-4 18 7 18 6 -2 -14 -13 -14 -27 -18 -38 -14 -17 6 -16 9 5 25 28 22 33 23 23
7z"/>
<path d="M2742 1612 c-28 -2 -52 -7 -52 -11 0 -5 20 -6 44 -4 37 5 45 2 49
-13 4 -16 5 -17 6 -2 1 11 14 21 34 27 l32 10 -30 -2 c-17 -1 -54 -3 -83 -5z"/>
<path d="M1125 1606 c17 -8 336 -58 341 -54 2 3 -54 14 -124 26 -130 23 -235
36 -217 28z"/>
<path d="M2545 1590 l-50 -7 50 -1 c28 0 59 3 70 8 20 9 20 9 0 8 -11 -1 -42
-4 -70 -8z"/>
<path d="M2615 1564 c-14 -15 -25 -31 -25 -35 0 -16 -18 -10 -24 8 -4 9 -1 20
6 25 8 4 8 8 2 8 -6 0 -14 -3 -18 -7 -4 -5 -16 -9 -27 -9 -36 -3 -39 -4 -39
-21 1 -17 1 -17 11 0 8 14 14 16 25 6 8 -6 14 -8 14 -4 0 4 7 2 15 -5 12 -10
12 -15 -1 -36 -18 -27 -35 -24 -27 5 3 10 0 22 -6 26 -6 3 -11 3 -10 -2 1 -4
0 -10 -1 -13 -7 -18 -7 -39 0 -35 5 3 13 -2 18 -11 7 -13 18 -5 58 44 27 34
60 65 74 71 25 9 25 9 2 10 -13 1 -34 -11 -47 -25z"/>
<path d="M2743 1578 c-9 -16 -13 -68 -4 -68 11 0 29 50 20 56 -5 3 -7 10 -4
15 4 5 4 9 1 9 -3 0 -8 -6 -13 -12z"/>
<path d="M2393 1573 c15 -2 39 -2 55 0 15 2 2 4 -28 4 -30 0 -43 -2 -27 -4z"/>
<path d="M2680 1573 c-24 -10 -39 -36 -40 -66 0 -17 -10 -37 -26 -52 -15 -14
-23 -25 -17 -25 5 0 25 16 44 37 18 20 29 33 23 30 -7 -4 -11 3 -11 17 0 17 6
26 22 30 13 3 25 13 29 21 6 16 1 17 -24 8z"/>
<path d="M2253 1564 c7 -8 97 -7 105 1 3 3 -21 5 -53 5 -32 0 -56 -3 -52 -6z"/>
<path d="M1487 1549 c4 -4 37 -10 73 -12 36 -3 54 -3 40 0 -14 2 -47 8 -73 12
-27 5 -45 5 -40 0z"/>
<path d="M2158 1553 c18 -2 45 -2 60 0 15 2 0 4 -33 4 -33 0 -45 -2 -27 -4z"/>
<path d="M2460 1543 c0 -11 -3 -14 -8 -7 -8 11 -57 11 -84 -1 -10 -4 -18 -3
-18 2 0 5 -7 10 -15 10 -8 0 -13 -3 -10 -5 3 -3 0 -11 -6 -18 -7 -9 -3 -12 21
-10 31 2 42 -6 46 -32 3 -17 4 -18 32 -26 13 -5 22 -3 22 3 0 6 9 11 20 11 27
0 38 30 16 42 -12 7 -14 13 -6 29 7 13 7 19 0 19 -5 0 -10 -8 -10 -17z m-50
-15 c0 -9 4 -8 10 2 7 11 10 11 10 2 0 -7 4 -11 9 -7 5 3 12 1 15 -4 4 -5 2
-12 -3 -15 -5 -4 -12 -2 -16 4 -4 7 -12 7 -25 0 -13 -7 -21 -6 -29 4 -9 11 -9
15 1 19 22 9 28 8 28 -5z m12 -39 c3 -9 10 -9 27 0 12 7 25 10 27 8 3 -3 -8
-12 -24 -20 -30 -15 -68 -6 -57 14 8 12 23 11 27 -2z"/>
<path d="M1663 1543 c15 -2 37 -2 50 0 12 2 0 4 -28 4 -27 0 -38 -2 -22 -4z"/>
<path d="M2699 1533 c-13 -16 -12 -17 4 -4 9 7 17 15 17 17 0 8 -8 3 -21 -13z"/>
<path d="M2206 1530 c-17 -6 -18 -7 -3 -13 9 -3 19 -2 23 4 9 15 2 18 -20 9z"/>
<path d="M2240 1530 c0 -5 7 -7 15 -4 8 4 15 8 15 10 0 2 -7 4 -15 4 -8 0 -15
-4 -15 -10z"/>
<path d="M2288 1533 c7 -3 16 -2 19 1 4 3 -2 6 -13 5 -11 0 -14 -3 -6 -6z"/>
<path d="M2540 1520 c0 -5 5 -10 11 -10 5 0 7 5 4 10 -3 6 -8 10 -11 10 -2 0
-4 -4 -4 -10z"/>
<path d="M2969 1513 c-13 -17 -13 -17 6 -3 11 8 22 16 24 17 2 2 0 3 -6 3 -6
0 -17 -8 -24 -17z"/>
<path d="M2219 1478 c-7 -18 -12 -38 -12 -45 0 -6 -6 -9 -13 -6 -10 4 -13 0
-8 -13 4 -14 2 -13 -8 3 l-13 22 -17 -29 c-15 -26 -15 -30 -2 -30 8 0 13 4 9
9 -3 5 -1 12 4 16 5 3 14 -3 20 -12 6 -10 11 -13 11 -5 0 7 12 17 27 23 21 8
24 12 13 19 -12 7 -11 12 5 30 12 13 27 19 38 16 23 -6 47 2 47 16 0 7 -4 7
-12 0 -15 -12 -70 -4 -62 9 3 5 1 9 -4 9 -6 0 -16 -15 -23 -32z"/>
<path d="M2330 1484 c0 -8 5 -12 10 -9 6 4 8 11 5 16 -9 14 -15 11 -15 -7z"/>
<path d="M2360 1488 c0 -9 5 -20 10 -23 13 -8 13 5 0 25 -8 13 -10 13 -10 -2z"/>
<path d="M2933 1488 c-11 -19 -12 -37 -3 -43 5 -3 7 3 5 12 -1 10 2 24 8 31 5
6 7 12 4 12 -3 0 -9 -6 -14 -12z"/>
<path d="M2180 1479 c0 -15 18 -19 23 -6 3 8 -1 14 -9 14 -8 0 -14 -4 -14 -8z"/>
<path d="M2030 1439 c0 -16 2 -29 4 -29 2 0 13 -3 23 -6 16 -5 16 -4 3 8 -18
16 -22 48 -6 45 6 -1 14 -11 18 -22 5 -17 6 -16 7 6 1 22 -3 27 -24 27 -21 0
-25 -5 -25 -29z"/>
<path d="M2860 1459 c0 -5 5 -7 10 -4 6 3 10 8 10 11 0 2 -4 4 -10 4 -5 0 -10
-5 -10 -11z"/>
<path d="M2260 1451 c0 -7 -4 -9 -10 -6 -6 4 -7 -1 -3 -11 6 -15 7 -15 15 1 6
9 7 19 4 22 -3 4 -6 1 -6 -6z"/>
<path d="M2282 1450 c5 -18 -22 -51 -35 -43 -6 3 -7 1 -3 -5 10 -17 19 -14 38
12 11 16 13 27 6 37 -8 12 -9 12 -6 -1z"/>
<path d="M2305 1450 c3 -5 8 -10 11 -10 2 0 4 5 4 10 0 6 -5 10 -11 10 -5 0
-7 -4 -4 -10z"/>
<path d="M2470 1439 c0 -18 -2 -19 -15 -9 -10 9 -15 9 -15 1 0 -6 5 -11 10
-11 6 0 10 -7 10 -16 0 -8 4 -13 8 -10 9 5 15 66 7 66 -3 0 -5 -10 -5 -21z"/>
<path d="M2897 1441 c3 -12 9 -21 14 -21 14 0 11 16 -5 29 -12 10 -13 8 -9 -8z"/>
<path d="M2958 1430 c-37 -27 -37 -28 -13 -32 17 -4 25 -1 25 8 0 8 4 14 9 14
8 0 25 30 19 35 -2 1 -20 -10 -40 -25z"/>
<path d="M2357 1433 c5 -12 2 -15 -10 -10 -10 4 -17 2 -17 -4 0 -6 -8 -8 -17
-5 -10 4 -14 4 -10 0 4 -4 -1 -13 -11 -20 -9 -7 -12 -14 -7 -14 16 0 80 34 82
44 1 5 7 13 15 17 9 6 7 9 -9 9 -17 0 -21 -4 -16 -17z"/>
<path d="M2490 1440 c0 -5 6 -10 14 -10 8 0 17 -7 20 -16 6 -15 4 -15 -11 -3
-15 12 -16 12 -10 -4 4 -10 7 -21 7 -23 0 -16 22 1 36 27 15 31 15 32 -4 27
-10 -3 -27 -1 -36 4 -10 6 -16 5 -16 -2z"/>
<path d="M2850 1420 c0 -14 5 -18 17 -13 11 4 13 8 5 11 -7 2 -10 8 -6 13 3 5
0 9 -5 9 -6 0 -11 -9 -11 -20z"/>
<path d="M2415 1411 c-3 -6 -10 -9 -15 -6 -4 3 -7 -3 -6 -12 0 -9 -5 -18 -12
-20 -7 -3 -10 1 -6 11 7 17 -11 22 -21 6 -11 -18 38 -40 70 -31 25 8 26 9 8
10 -23 1 -27 19 -8 33 5 4 7 10 3 13 -3 4 -9 1 -13 -4z"/>
<path d="M2210 1385 c-9 -11 -10 -19 -3 -26 7 -7 12 -2 15 15 6 30 5 31 -12
11z"/>
<path d="M2852 1376 c-44 -32 -50 -38 -27 -31 20 7 20 6 1 -9 -22 -17 -41 -21
-32 -7 5 8 -102 -61 -291 -186 -10 -6 -13 -12 -7 -12 6 -1 46 21 88 49 42 28
79 50 82 50 5 0 55 34 89 60 11 9 32 17 48 19 41 4 34 -23 -12 -47 -65 -34
-126 -76 -128 -89 -3 -15 6 -16 27 -3 13 8 13 10 0 10 -10 0 -7 5 8 16 12 8
26 13 31 10 5 -4 11 -2 13 2 1 5 21 20 43 35 36 25 40 25 46 10 9 -26 -2 -39
-17 -19 -8 11 -14 13 -19 7 -3 -6 -3 -11 2 -11 4 0 19 -10 33 -21 21 -17 22
-20 5 -15 -19 6 -19 5 -2 -8 9 -7 17 -22 16 -32 0 -11 -3 -13 -6 -6 -7 17 -23
15 -23 -3 0 -8 6 -15 14 -15 23 0 31 -41 11 -56 -16 -12 -16 -13 1 -13 11 -1
39 -4 63 -7 31 -5 42 -3 37 5 -4 6 -23 11 -42 11 -26 0 -34 4 -34 18 0 26 -19
193 -26 225 -3 17 -1 27 6 27 6 0 8 -5 4 -12 -4 -7 -3 -8 5 -4 6 4 8 12 5 18
-4 6 2 8 17 3 16 -4 20 -3 11 3 -11 7 -11 10 2 15 8 3 18 2 21 -3 4 -6 16 -10
28 -9 20 1 20 2 -3 9 -20 6 -21 8 -5 9 14 1 16 4 7 13 -9 9 -18 9 -37 0 -35
-16 -44 -15 -21 3 32 24 4 16 -32 -9z m13 -16 c-3 -5 -11 -10 -16 -10 -6 0 -7
5 -4 10 3 6 11 10 16 10 6 0 7 -4 4 -10z"/>
<path d="M2235 1370 c3 -5 8 -10 11 -10 2 0 4 5 4 10 0 6 -5 10 -11 10 -5 0
-7 -4 -4 -10z"/>
<path d="M2970 1369 c0 -5 5 -7 10 -4 6 3 10 8 10 11 0 2 -4 4 -10 4 -5 0 -10
-5 -10 -11z"/>
<path d="M2160 1355 c0 -9 6 -12 15 -9 8 4 15 7 15 9 0 2 -7 5 -15 9 -9 3 -15
0 -15 -9z"/>
<path d="M2265 1351 c3 -8 0 -11 -9 -8 -10 4 -13 1 -10 -8 5 -11 12 -10 35 7
16 12 29 22 29 22 0 1 -11 1 -25 1 -17 0 -24 -4 -20 -14z"/>
<path d="M2466 1357 c3 -8 -2 -19 -10 -26 -8 -7 -12 -20 -9 -29 6 -15 5 -15
-10 -3 -9 7 -14 18 -10 24 3 6 1 7 -5 3 -7 -4 -12 -3 -12 2 0 5 -7 9 -15 9 -9
0 -14 -4 -13 -9 2 -5 6 -8 9 -6 10 5 37 -22 42 -43 5 -18 2 -20 -19 -16 -14 2
-22 2 -19 -1 2 -3 1 -10 -5 -16 -5 -7 -5 -18 0 -26 7 -12 15 -9 39 14 17 16
33 37 36 47 3 10 15 21 26 24 10 4 19 11 19 17 0 6 7 19 15 28 13 14 11 16
-13 17 -23 1 -24 1 -7 -7 11 -5 15 -9 9 -9 -7 -1 -15 -11 -19 -23 -7 -21 -8
-20 -12 10 -2 17 -8 32 -13 32 -5 0 -7 -6 -4 -13z m4 -37 c0 -5 -5 -10 -11
-10 -5 0 -7 5 -4 10 3 6 8 10 11 10 2 0 4 -4 4 -10z m-50 -74 c0 -3 -4 -8 -10
-11 -5 -3 -10 -1 -10 4 0 6 5 11 10 11 6 0 10 -2 10 -4z"/>
<path d="M1970 1351 c0 -6 20 -8 48 -4 64 7 66 13 4 13 -29 0 -52 -4 -52 -9z"/>
<path d="M1940 1338 c-1 -43 -19 -305 -22 -317 -2 -9 9 -17 30 -23 17 -5 32
-13 32 -17 0 -6 -14 -6 -32 -1 -18 4 -67 11 -109 14 -76 7 -77 6 -81 -19 -3
-14 -1 -28 3 -31 5 -3 9 -10 9 -15 0 -6 -7 -3 -16 6 -11 11 -15 28 -12 55 4
44 -5 52 -56 46 -27 -3 -51 -25 -40 -36 3 -2 10 3 15 13 6 9 15 15 20 11 6 -4
1 -16 -12 -30 -36 -38 -17 -37 23 1 l35 35 1 -55 c0 -30 -4 -55 -9 -55 -5 0
-9 14 -9 30 l0 31 -45 -31 c-25 -17 -45 -37 -45 -45 0 -8 -4 -15 -9 -15 -6 0
-9 -9 -8 -19 2 -27 14 -17 22 19 6 27 10 30 46 30 32 0 39 -4 39 -19 0 -11 -6
-21 -12 -24 -10 -4 -10 -7 -1 -18 16 -16 22 -10 25 23 2 27 24 34 33 9 4 -9
-8 -28 -30 -50 -33 -34 -35 -35 -33 -12 2 13 -3 26 -9 28 -7 3 -13 -2 -13 -10
0 -10 -7 -13 -20 -10 -11 3 -17 9 -14 14 3 5 11 6 17 3 7 -4 9 -4 5 1 -5 5 1
15 12 22 11 8 17 19 14 25 -4 7 -10 5 -16 -6 -5 -9 -16 -16 -24 -16 -8 0 -13
-4 -9 -9 3 -5 1 -12 -5 -16 -5 -3 -10 -15 -10 -27 0 -17 3 -18 15 -8 8 6 20 8
27 4 8 -5 0 -12 -23 -20 l-34 -13 40 5 c39 5 40 5 15 -10 -14 -8 -19 -15 -11
-16 7 0 29 14 48 30 19 17 38 28 43 25 5 -3 17 6 26 20 9 13 20 23 24 20 4 -3
14 3 21 12 12 14 12 16 -1 8 -12 -6 -12 -5 -3 5 6 7 16 9 22 6 12 -8 4 -33
-17 -58 -10 -12 -11 -18 -4 -18 7 0 12 -18 12 -45 0 -35 -4 -45 -16 -45 -10 0
-14 6 -10 15 3 8 1 15 -4 15 -6 0 -10 -6 -10 -14 0 -9 -9 -12 -27 -9 l-28 5
30 -21 c17 -11 44 -21 61 -21 21 0 31 -5 31 -15 0 -8 -6 -15 -14 -15 -7 0 -13
5 -13 10 0 6 -9 10 -19 10 -11 0 -23 -4 -26 -10 -3 -5 -18 -9 -33 -9 -24 2
-24 2 -4 6 27 5 29 33 2 40 -11 3 -20 10 -20 17 0 14 41 41 58 38 7 -2 12 8
12 23 0 14 -3 25 -6 25 -15 0 -44 -22 -39 -30 3 -5 0 -12 -6 -16 -8 -5 -9 -3
-4 6 5 8 3 11 -6 8 -8 -3 -13 -11 -11 -17 1 -7 -3 -9 -9 -5 -6 3 -15 1 -19 -5
-5 -10 -20 -9 -61 3 -30 8 -90 17 -134 21 -44 3 -96 10 -115 15 -30 8 -28 9
20 5 30 -2 83 -7 118 -11 59 -7 62 -6 62 15 0 14 -6 21 -19 21 -11 0 -23 5
-26 10 -4 6 5 10 19 10 34 0 33 15 -1 18 -31 2 -28 0 -37 35 -6 26 -5 27 13
18 25 -14 61 -14 61 -1 0 6 9 10 19 10 19 0 46 52 34 64 -9 8 -23 7 -22 -1 3
-19 -2 -33 -12 -33 -5 0 -8 4 -4 9 3 5 1 12 -5 16 -5 3 -10 12 -10 18 0 9 3 8
8 -1 7 -10 12 -8 25 6 14 15 14 19 2 19 -8 0 -12 -4 -9 -9 3 -4 0 -8 -5 -8 -6
0 -11 6 -11 13 0 7 -4 6 -10 -4 -9 -16 -7 -50 5 -69 3 -6 1 -10 -4 -10 -6 0
-14 0 -18 0 -4 0 -7 9 -6 20 0 11 1 35 2 54 l1 33 50 -5 c45 -4 50 -3 50 16 0
17 -8 21 -45 24 -29 2 -45 -1 -45 -8 0 -6 -7 -17 -16 -25 -9 -8 -13 -21 -10
-35 7 -28 -17 -38 -71 -29 -28 5 -34 4 -23 -4 20 -14 1 -14 -39 0 -20 7 -31
18 -31 31 0 10 5 16 10 13 6 -3 10 -1 10 4 0 15 -15 14 -28 -1 -5 -8 -6 -22
-1 -33 12 -30 11 -34 -11 -32 -20 1 -29 17 -10 17 6 0 10 7 10 15 0 20 -10 19
-36 -6 -25 -23 -73 -18 -75 10 0 10 -2 11 -6 4 -2 -7 -12 -13 -22 -13 -9 0
-23 -6 -30 -12 -10 -11 -12 -10 -9 2 2 10 -6 16 -23 18 -20 2 -28 -2 -34 -20
-13 -42 -14 -48 -2 -41 7 4 15 8 19 8 16 0 19 15 3 15 -10 0 -16 3 -12 6 8 8
47 -5 44 -16 -1 -4 2 -10 7 -11 5 -2 10 4 12 14 4 27 13 32 20 13 5 -12 -2
-26 -19 -43 -21 -21 -25 -23 -24 -8 1 10 -3 20 -10 22 -8 3 -11 -3 -8 -16 2
-12 0 -21 -6 -21 -5 0 -10 10 -10 23 -1 17 -2 18 -6 4 -2 -9 -9 -15 -14 -12
-5 4 -9 1 -9 -4 0 -6 6 -11 13 -11 7 0 13 -8 14 -18 1 -11 -5 -18 -18 -18 -13
0 -19 7 -19 22 0 17 -17 34 -34 34 -2 0 -3 -18 -4 -39 l-2 -40 74 -12 c63 -10
74 -14 73 -30 -1 -12 -9 -19 -22 -19 -16 0 -17 2 -5 10 11 7 6 10 -21 10 -54
0 -56 -13 -5 -26 34 -9 58 -9 93 -1 40 10 44 12 21 15 -16 2 -28 7 -28 11 0 5
26 3 57 -3 57 -12 58 -12 65 -51 9 -53 10 -113 0 -99 -6 10 -118 41 -152 42
-15 1 -55 9 -55 12 0 1 -7 3 -15 5 -106 28 -140 39 -140 50 0 9 15 9 66 -3 45
-10 72 -11 87 -5 18 8 11 12 -49 26 -39 9 -81 13 -93 10 -17 -4 -23 1 -32 25
-6 19 -19 33 -32 35 -12 3 6 4 40 2 36 -1 60 2 57 7 -3 5 -18 8 -32 7 -15 -2
-33 0 -39 4 -7 5 -21 3 -32 -3 -11 -5 -30 -10 -43 -11 -17 0 -12 -4 17 -14 27
-9 33 -13 18 -14 -12 -1 -24 -5 -27 -9 -3 -5 8 -6 24 -4 28 4 30 1 46 -54 9
-33 24 -64 33 -71 9 -7 11 -13 6 -13 -6 0 -15 4 -20 8 -6 5 -28 14 -50 20 -38
11 -41 15 -59 74 -11 35 -20 68 -20 73 -2 17 -36 26 -57 14 -11 -6 -39 -7 -63
-4 -55 9 -73 -11 -19 -21 21 -4 46 -11 56 -16 10 -5 31 -10 46 -10 32 -1 52
-37 56 -101 2 -37 -27 -87 -52 -87 -6 0 -29 -20 -52 -45 l-41 -44 -45 20 c-30
13 -43 24 -38 32 4 7 0 6 -10 -2 -9 -7 -17 -19 -17 -25 0 -7 41 -29 90 -51 50
-21 93 -42 95 -46 3 -4 6 -23 7 -43 3 -31 7 -36 28 -37 18 0 9 -6 -29 -19 -47
-17 -56 -18 -80 -5 -14 8 -22 14 -18 15 5 0 17 -5 29 -11 11 -6 22 -8 25 -5 3
3 -9 12 -27 20 l-34 14 40 20 c21 12 35 21 29 22 -5 0 -3 5 5 10 24 16 -1 12
-85 -13 -78 -24 -79 -24 -54 -40 13 -8 45 -26 72 -38 l47 -23 94 31 94 30 78
-34 c44 -19 84 -41 91 -49 7 -10 13 -12 18 -5 3 6 -1 14 -9 17 -9 3 -13 11 -9
17 3 6 1 7 -5 3 -14 -8 -149 52 -156 70 -10 25 11 23 45 -6 19 -15 55 -33 79
-40 45 -12 80 -35 80 -52 0 -18 -42 -63 -58 -63 -8 0 -17 -6 -20 -13 -9 -28
39 -10 60 23 13 19 30 35 38 35 8 0 77 -25 153 -57 96 -40 137 -62 137 -73 0
-9 5 -21 12 -28 9 -9 9 -12 -2 -12 -10 0 -11 -3 -3 -11 7 -7 22 -5 51 6 34 14
47 15 77 5 19 -6 35 -15 35 -18 0 -4 -34 -27 -76 -52 -71 -42 -90 -69 -25 -35
37 18 46 19 46 3 0 -8 19 -12 53 -12 30 -1 51 3 49 9 -4 12 -77 16 -77 4 0 -5
-5 -9 -12 -9 -6 0 -8 3 -5 7 4 3 1 13 -6 21 -10 13 -9 15 8 8 11 -4 16 -4 12
0 -3 4 14 20 38 35 25 16 45 33 45 39 0 6 -5 8 -12 4 -8 -5 -9 -2 -5 10 4 10
7 24 7 32 0 11 4 12 19 4 38 -20 453 -171 458 -166 12 12 -95 66 -142 72 -31
4 -32 5 -5 14 22 7 21 8 -10 7 -20 0 -44 5 -55 10 -11 6 -26 8 -34 5 -8 -3
-11 0 -7 7 5 7 1 9 -8 5 -9 -3 -16 -1 -16 6 0 6 -4 9 -9 6 -8 -5 -33 4 -126
44 -11 5 -27 11 -35 13 -11 3 -7 8 11 17 19 8 25 18 22 31 -3 10 -3 19 1 19 7
0 143 -45 176 -58 14 -5 44 -16 68 -23 23 -7 42 -16 42 -21 0 -5 4 -7 9 -4 13
8 73 -19 64 -29 -5 -4 0 -5 9 -2 10 3 20 2 24 -4 3 -6 12 -8 19 -5 7 2 17 0
23 -6 6 -6 25 -11 42 -10 17 0 28 -3 26 -7 -3 -4 16 -8 42 -8 44 -1 42 0 -16
13 -13 2 -21 8 -18 13 3 4 -13 8 -36 9 -23 1 -60 11 -83 22 -23 11 -47 20 -54
20 -7 0 -10 4 -6 9 3 5 0 13 -6 17 -8 4 -9 3 -5 -5 6 -9 0 -10 -21 -5 -40 10
-270 89 -316 108 -37 16 -38 19 -33 54 3 20 8 67 11 105 4 37 8 67 10 67 1 0
22 -7 45 -15 57 -20 70 -19 41 4 l-24 19 32 7 c18 4 35 4 38 1 4 -3 -3 -6 -15
-6 -20 0 -33 -19 -14 -21 52 -5 88 -12 102 -19 10 -5 32 -11 49 -12 26 -2 33
-8 41 -38 13 -45 13 -50 -2 -45 -28 10 -40 -12 -41 -80 -2 -51 2 -69 13 -75
25 -12 141 -51 215 -72 38 -11 74 -27 80 -34 14 -19 55 -26 72 -13 15 13 18
43 3 34 -6 -3 -10 -1 -10 4 0 6 8 11 17 11 22 0 14 6 -19 14 -21 5 -30 2 -38
-14 -7 -14 -7 -20 0 -20 5 0 10 7 10 15 0 8 5 15 11 15 6 0 9 -9 6 -20 -3 -11
-1 -18 4 -14 5 3 9 0 9 -6 0 -6 -12 -10 -27 -8 -24 2 -29 8 -31 36 -2 23 2 38
15 49 10 8 12 11 4 7 -10 -5 -13 -3 -8 9 3 9 0 18 -8 21 -9 3 -12 12 -9 21 4
9 13 14 20 11 8 -3 14 -1 14 4 0 6 -4 10 -9 10 -13 0 -23 31 -13 44 5 6 8 23
7 38 -1 22 1 26 11 17 7 -6 18 -8 24 -4 5 3 10 2 10 -3 0 -5 25 -13 55 -17 30
-3 55 -10 55 -15 0 -5 7 -7 15 -4 10 4 15 0 15 -15 0 -18 3 -20 18 -12 17 9
17 5 10 -57 -4 -37 -7 -75 -7 -85 -1 -12 -5 -16 -13 -11 -10 6 -10 5 -1 -7 9
-11 9 -19 2 -26 -6 -6 -5 -10 6 -10 9 0 15 7 13 16 -1 9 2 27 7 41 4 14 11 52
14 85 6 59 7 60 39 63 30 3 32 1 33 -30 1 -23 3 -26 6 -11 3 16 11 23 29 23
13 0 24 -4 24 -10 0 -5 -7 -7 -15 -4 -8 4 -15 2 -15 -4 0 -11 59 -36 110 -47
19 -3 44 -9 54 -12 14 -4 17 -1 14 9 -6 14 45 82 63 84 5 1 11 2 14 3 2 0 0
13 -6 27 -9 27 -9 27 31 21 23 -3 38 -1 34 4 -3 5 -22 9 -43 9 -20 0 -42 5
-49 12 -9 9 -12 7 -12 -10 0 -13 6 -22 15 -22 8 0 15 -4 15 -9 0 -15 -90 -101
-105 -101 -27 0 -26 21 1 53 l27 32 -39 12 c-24 7 -31 12 -19 13 12 1 15 4 7
7 -9 3 -5 12 13 29 14 13 29 24 33 24 4 0 13 14 21 31 10 23 16 27 22 18 6
-10 8 -7 6 8 0 12 -6 21 -11 20 -13 -2 -20 37 -12 69 7 25 31 33 39 12 3 -8 6
-6 6 4 1 15 8 17 59 12 l57 -6 2 33 2 34 -21 -28 c-15 -21 -23 -25 -33 -17 -7
6 -43 12 -79 13 -36 1 -66 5 -66 8 0 4 -19 6 -42 6 -65 -1 -118 12 -118 29 0
10 7 13 23 9 45 -10 86 -10 87 0 1 6 -5 11 -12 12 -7 1 -34 4 -59 8 -42 5 -46
8 -45 33 1 17 7 28 19 30 9 2 17 -1 17 -7 0 -6 -8 -11 -17 -11 -10 0 1 -9 22
-21 24 -12 64 -21 100 -23 91 -5 95 -5 95 -16 0 -6 -16 -10 -36 -8 -25 2 -39
-2 -42 -11 -4 -11 3 -13 34 -8 21 4 43 13 49 20 5 8 17 16 25 19 8 3 -13 8
-48 13 -34 4 -65 11 -68 16 -3 5 -16 9 -30 9 -18 0 -24 5 -24 21 0 19 4 20 43
14 23 -3 49 -8 58 -11 18 -5 29 30 29 90 0 53 11 60 79 53 34 -4 61 -3 61 2 0
9 -57 21 -102 21 -14 0 -28 5 -30 11 -5 15 -308 46 -316 32 -8 -12 -104 -25
-97 -13 3 5 -43 11 -103 15 -125 8 -151 13 -131 26 9 6 -4 8 -36 7 -27 0 -61
2 -75 5 -42 11 -150 15 -144 6 3 -5 -4 -9 -15 -9 -22 0 -27 10 -12 25 12 13
22 315 10 315 -5 0 -9 -6 -9 -12z m185 -349 c12 -12 28 -11 20 1 -3 5 0 7 9 4
11 -4 6 -13 -22 -37 -20 -18 -40 -36 -44 -42 -5 -6 -8 -6 -8 1 0 6 6 17 14 23
14 12 29 51 19 51 -3 0 -17 -12 -31 -27 -28 -30 -49 -87 -29 -80 7 3 11 10 9
16 -1 7 2 10 8 6 6 -4 28 7 49 24 21 17 42 27 46 23 5 -4 6 -2 2 3 -9 17 30
38 40 22 4 -6 23 -12 41 -13 156 -2 162 -3 172 -26 5 -13 9 -17 9 -10 1 6 8
12 16 12 11 0 15 -12 15 -44 0 -31 5 -46 16 -50 29 -11 53 -6 57 12 2 9 4 6 3
-8 -1 -21 3 -25 25 -22 23 3 27 -1 31 -27 3 -23 0 -32 -14 -37 -10 -3 -23 -2
-29 2 -8 5 -9 3 -4 -6 4 -7 2 -16 -6 -21 -10 -6 -8 -9 9 -9 23 0 25 -5 22 -77
-1 -33 2 -43 14 -43 9 0 16 -4 16 -10 0 -5 -7 -10 -15 -10 -8 0 -15 4 -15 9 0
5 -9 13 -20 16 -16 5 -20 15 -20 48 0 73 -9 76 -89 37 -39 -19 -71 -37 -71
-42 0 -12 -19 -10 -100 8 -69 16 -72 18 -68 43 4 25 1 26 -34 26 -43 0 -53 8
-62 49 -6 26 -5 28 8 17 9 -8 26 -11 38 -8 11 3 30 2 40 -4 16 -9 18 -5 18 37
l0 47 53 -7 c28 -3 65 -6 80 -6 17 0 26 -4 22 -11 -4 -6 -13 -8 -21 -5 -8 3
-13 2 -13 -2 4 -23 -4 -29 -33 -27 -18 2 -33 4 -33 5 0 1 -8 3 -17 5 -9 2 -19
-4 -22 -12 -5 -12 -1 -14 15 -10 12 3 29 1 39 -5 13 -8 25 -7 50 6 41 20 40
20 40 -5 0 -11 5 -17 10 -14 6 3 10 -2 11 -12 0 -12 5 -8 14 13 8 17 21 37 31
45 15 13 16 12 9 -11 -7 -24 -6 -24 7 -6 11 14 17 16 22 7 4 -6 3 -18 -3 -25
-14 -16 -4 -26 17 -19 14 4 15 3 2 -5 -10 -8 -18 -8 -27 0 -10 8 -24 2 -55
-24 -75 -59 -99 -72 -109 -57 -6 10 -1 15 19 17 31 4 62 29 62 49 0 8 -4 12
-9 9 -5 -3 -11 0 -14 8 -6 15 -30 16 -44 2 -4 -4 -3 -7 2 -6 22 5 36 0 30 -10
-4 -6 -16 -8 -28 -6 -13 4 -9 0 8 -9 29 -14 28 -15 -17 -19 -7 -1 -16 -5 -20
-11 -4 -5 -10 -6 -14 -2 -4 3 -1 13 6 22 18 21 6 30 -14 10 -22 -22 -20 -45 4
-45 11 0 20 -7 20 -15 0 -24 31 -17 74 15 41 31 62 39 50 18 -4 -8 -3 -10 2
-5 5 5 9 14 9 19 0 6 6 13 14 16 9 3 11 0 6 -8 -5 -9 -4 -11 4 -6 6 4 8 12 5
18 -5 7 -2 9 8 6 8 -3 39 9 68 27 44 27 49 33 28 32 -14 -1 -24 -5 -22 -9 3
-4 -2 -5 -11 -1 -14 5 -14 8 -3 15 10 8 10 9 -2 5 -8 -2 -14 -14 -14 -26 1
-20 -9 -21 -12 0 -1 5 -2 12 -3 17 -2 14 -42 33 -54 25 -7 -4 -19 -8 -27 -8
-8 0 -14 -8 -14 -17 2 -23 -8 -23 -23 1 -15 24 -8 31 33 31 26 0 33 5 36 24 3
16 0 27 -9 30 -29 12 -43 6 -43 -17 0 -23 -1 -23 -67 -15 -108 12 -113 14
-113 48 0 22 -4 28 -15 24 -12 -5 -13 -10 -4 -20 6 -8 8 -26 4 -46 -7 -30 -8
-31 -21 -13 -8 10 -14 13 -14 7 0 -17 -37 -15 -43 2 -4 9 0 12 11 10 23 -6 45
10 40 30 -2 13 -11 10 -51 -16 -42 -27 -53 -30 -76 -21 -15 5 -36 6 -46 2 -52
-20 -155 4 -155 35 0 17 -16 22 -22 7 -5 -15 -34 11 -43 38 l-7 24 87 -7 c47
-4 92 -9 99 -12 15 -6 9 -65 -8 -76 -6 -5 -2 -8 10 -8 19 0 22 7 29 65 l7 65
61 -7 c34 -3 66 -9 72 -14z m-948 -5 c-3 -3 -12 -4 -19 -1 -8 3 -5 6 6 6 11 1
17 -2 13 -5z m103 -33 c0 -12 -18 -33 -45 -52 -24 -17 -45 -38 -47 -45 -2 -8
-8 -10 -15 -6 -9 6 3 25 40 64 57 62 67 68 67 39z m1464 -2 c5 -4 22 -5 39 -2
21 4 28 3 23 -5 -4 -6 -13 -9 -22 -5 -8 3 -14 1 -12 -4 2 -6 -18 -26 -45 -47
-50 -38 -68 -46 -46 -20 11 14 10 19 -10 35 -20 16 -21 20 -7 25 9 3 16 11 16
17 0 5 -8 3 -17 -5 -22 -19 -56 -20 -49 -2 3 8 1 16 -4 19 -6 4 -10 -1 -10 -9
0 -9 -6 -16 -13 -16 -7 0 -13 -9 -13 -20 0 -11 5 -18 11 -16 5 2 9 9 8 15 -3
12 10 15 20 5 12 -13 -16 -41 -36 -36 -14 3 -18 1 -13 -7 4 -6 12 -9 17 -6 5
4 9 2 9 -4 0 -6 7 -8 16 -4 8 3 13 11 10 19 -3 7 1 18 9 24 15 12 35 6 35 -11
0 -6 -4 -8 -9 -4 -5 3 -13 0 -17 -6 -4 -7 -3 -9 4 -5 6 3 13 2 17 -4 3 -5 0
-10 -7 -11 -7 0 -4 -4 6 -8 19 -7 19 -8 -2 -13 -15 -4 -22 -2 -22 8 0 11 -4
12 -19 4 -11 -5 -29 -10 -40 -10 -23 0 -25 10 -15 83 l7 46 86 -6 c47 -3 90
-9 95 -14z m-1414 -15 c0 -8 -9 -14 -20 -14 -13 0 -20 7 -20 19 0 14 5 18 20
14 11 -3 20 -12 20 -19z m225 -4 c4 -6 -2 -7 -16 -1 -13 4 -25 14 -27 20 -3
10 0 10 16 2 12 -6 24 -16 27 -21z m-90 11 c26 -6 31 -9 15 -9 -14 -1 -43 3
-65 7 -26 6 -31 9 -15 9 14 1 43 -3 65 -7z m1039 -18 c-2 -16 -1 -20 2 -10 5
14 44 26 44 13 0 -18 -15 -36 -31 -36 -12 0 -16 -5 -13 -14 3 -8 1 -17 -5 -21
-7 -4 -11 4 -11 19 0 14 -4 26 -10 26 -17 0 -11 38 8 43 9 3 18 5 18 6 1 0 0
-11 -2 -26z m356 -2 c0 -10 -10 -26 -22 -34 -19 -13 -20 -16 -5 -16 29 -1 20
-81 -9 -81 -14 0 -18 15 -14 58 1 12 -4 22 -10 22 -20 0 -71 -31 -65 -40 3 -5
-3 -9 -12 -9 -10 0 -41 -4 -69 -9 -44 -7 -50 -6 -51 10 -1 10 2 18 8 18 5 0 9
-4 9 -10 0 -19 32 -10 77 20 24 17 49 27 55 24 6 -4 8 -3 5 3 -3 5 8 18 25 28
17 10 28 12 23 5 -6 -9 -3 -10 14 -1 11 7 21 14 21 17 0 3 -5 2 -12 -2 -7 -4
-8 -3 -4 4 11 19 36 14 36 -7z m-1380 -1 c14 0 21 -13 29 -50 6 -28 11 -55 11
-59 0 -8 -76 2 -86 11 -2 3 -10 29 -18 58 l-14 52 30 -6 c17 -3 39 -6 48 -6z
m-180 -20 c25 16 100 12 100 -4 0 -8 3 -21 6 -29 5 -13 -1 -14 -37 -6 -23 6
-49 7 -56 5 -8 -3 -12 -2 -9 3 3 5 -3 11 -15 14 -16 4 -19 2 -14 -14 4 -10 4
-23 1 -28 -7 -11 -56 -2 -56 11 0 6 7 7 16 4 8 -3 13 -2 11 2 -3 4 -1 18 4 31
7 17 12 21 22 13 8 -7 18 -7 27 -2z m492 3 c-10 -4 -10 -8 -1 -19 18 -22 4
-17 -16 6 -18 19 -17 20 6 19 13 0 18 -3 11 -6z m628 -23 c0 -11 -4 -20 -10
-20 -5 0 -10 9 -10 20 0 11 5 20 10 20 6 0 10 -9 10 -20z m-1320 -16 c0 -8 -4
-12 -10 -9 -5 3 -10 13 -10 21 0 8 5 12 10 9 6 -3 10 -13 10 -21z m790 -49 c0
-42 0 -43 -25 -32 -20 10 -25 19 -25 48 0 33 2 36 25 31 22 -4 25 -9 25 -47z
m-1045 35 c-3 -5 -1 -10 4 -10 24 0 9 -16 -16 -17 -24 -1 -25 -1 -8 7 20 9 20
9 0 10 -20 1 -20 1 0 10 27 11 27 11 20 0z m1231 -4 c1 0 4 -13 8 -28 6 -27 5
-28 -39 -28 -25 0 -45 4 -45 8 0 4 -16 9 -35 10 -60 4 -38 -15 28 -24 34 -4
70 -7 80 -6 13 1 17 -6 17 -34 0 -34 -1 -35 -32 -30 -18 3 -58 8 -89 11 l-57
6 -1 55 c0 49 2 54 22 55 21 1 21 1 -3 9 -15 5 10 6 60 3 47 -3 85 -6 86 -7z
m724 10 c0 -2 -7 -7 -16 -10 -8 -3 -12 -2 -9 4 6 10 25 14 25 6z m-1477 -24
c-4 -18 -33 -27 -33 -11 0 6 26 27 37 29 0 0 -1 -8 -4 -18z m877 -13 c0 -10
-5 -19 -11 -19 -6 0 -9 7 -5 15 3 8 1 15 -4 15 -6 0 -10 -4 -10 -9 0 -5 -9
-11 -20 -14 -16 -4 -20 0 -20 17 0 19 4 21 35 18 26 -3 35 -9 35 -23z m-820
17 c0 -2 -9 -6 -20 -9 -11 -3 -20 -1 -20 4 0 5 9 9 20 9 11 0 20 -2 20 -4z
m1394 -5 c11 -4 20 -15 22 -23 2 -13 -5 -15 -35 -11 -20 3 -40 10 -46 16 -7 7
-6 8 2 3 6 -3 19 -3 28 0 13 5 14 8 3 15 -16 11 0 10 26 0z m-67 -57 c2 -13 1
-15 -4 -4 -3 8 -11 19 -17 23 -7 6 -6 7 4 4 8 -2 16 -12 17 -23z m-37 12 c0
-2 -9 -6 -20 -9 -11 -3 -20 -1 -20 4 0 5 9 9 20 9 11 0 20 -2 20 -4z m-1115
-26 c25 -7 22 -8 -25 -9 -30 0 -72 4 -94 8 -26 7 -35 6 -28 -1 5 -5 46 -12 91
-15 48 -4 81 -10 82 -17 0 -6 2 -20 4 -31 2 -11 7 -39 10 -62 l6 -43 -33 1
c-31 1 -31 2 -8 8 15 5 -8 7 -57 6 -45 -1 -80 2 -77 6 2 4 -2 10 -8 12 -17 7
7 25 45 34 15 3 27 9 27 14 0 4 6 10 13 12 6 2 -1 3 -17 1 -16 -3 -37 -11 -46
-19 -9 -8 -19 -15 -22 -15 -7 0 -14 29 -24 92 l-5 37 68 -5 c37 -4 82 -10 98
-14z m339 -19 c3 -4 0 -13 -6 -21 -8 -12 -9 -12 -4 3 3 10 0 17 -8 17 -9 0
-12 -7 -9 -20 6 -21 -13 -28 -20 -7 -8 24 4 45 24 40 11 -3 21 -8 23 -12z
m713 -31 c1 -28 -3 -50 -8 -50 -5 0 -9 23 -9 50 0 65 15 65 17 0z m-934 14
c31 -5 37 -10 37 -30 0 -22 -3 -24 -27 -18 -34 8 -42 14 -20 14 9 0 19 5 23
11 7 12 -20 8 -59 -7 -10 -3 -16 3 -19 21 -4 20 -2 24 11 21 9 -3 33 -8 54
-12z m-627 -9 c4 -8 16 -15 28 -15 l21 -1 -22 -12 c-19 -10 -14 -12 35 -11 31
1 69 -5 85 -13 23 -12 27 -19 24 -51 -2 -30 -6 -36 -22 -34 -16 2 -17 1 -5 -7
8 -5 17 -8 21 -5 4 2 4 -9 -1 -26 -5 -16 -5 -30 -1 -30 3 0 7 -9 7 -20 0 -11
-6 -20 -13 -20 -7 0 -13 4 -13 9 0 5 -20 11 -44 12 -24 2 -42 1 -39 -3 2 -5
19 -8 38 -8 24 0 39 -7 49 -22 35 -49 8 -67 -59 -38 -25 11 -45 17 -45 14 0
-3 -15 4 -34 15 -36 23 -51 27 -41 11 3 -5 1 -10 -4 -10 -6 0 -11 7 -11 16 0
8 -4 13 -9 10 -5 -3 -14 1 -21 9 -7 8 -21 15 -32 15 -15 0 -19 6 -18 28 1 15
1 29 0 32 -1 3 -4 24 -6 48 -4 39 -3 42 20 42 14 0 28 -5 32 -11 3 -6 17 -8
30 -5 14 4 24 2 24 -4 0 -6 -4 -9 -9 -6 -5 4 -11 1 -13 -6 -3 -9 -12 -9 -38 0
-18 7 -35 10 -38 8 -2 -3 14 -10 37 -17 23 -7 41 -16 41 -20 0 -12 -18 -20
-22 -10 -1 5 -16 12 -33 15 -16 4 -24 3 -17 0 6 -3 10 -10 6 -15 -3 -5 2 -9
11 -9 25 0 96 -40 90 -50 -4 -6 -1 -10 4 -10 6 0 11 4 11 9 0 5 11 12 25 15
14 4 25 13 25 21 0 9 9 15 23 15 12 0 29 5 37 10 11 7 5 8 -20 4 -19 -4 -39
-10 -44 -15 -5 -4 -14 -6 -20 -5 -6 2 -8 1 -3 -1 4 -3 7 -9 7 -14 0 -6 -4 -8
-9 -4 -5 3 -13 1 -16 -5 -4 -7 -14 -3 -26 11 -26 30 -24 37 9 33 25 -4 19 1
-17 12 -11 4 -11 8 3 23 13 15 14 20 4 23 -10 4 -10 8 -2 19 7 8 8 22 3 34
-11 28 -11 35 1 35 6 0 13 -7 16 -15z m1091 -5 c-3 -11 -1 -18 4 -14 5 3 8 -7
8 -23 -1 -17 -3 -21 -6 -10 -2 9 -10 17 -17 17 -8 0 -13 11 -13 25 0 15 5 25
14 25 10 0 14 -7 10 -20z m628 10 c-3 -5 -12 -7 -20 -3 -21 7 -19 13 6 13 11
0 18 -4 14 -10z m-685 -33 c0 -5 -17 -6 -37 -3 -21 3 -59 8 -85 12 -84 11 -52
19 37 10 47 -6 85 -14 85 -19z m426 21 c-1 -7 -5 -18 -9 -25 -4 -6 -3 -14 2
-17 5 -4 12 0 14 6 3 8 6 6 6 -4 1 -10 -3 -18 -9 -18 -5 0 -10 -5 -10 -11 0
-5 5 -7 10 -4 6 3 10 2 10 -4 0 -10 -36 -6 -90 10 -16 5 -19 8 -7 8 9 1 17 6
17 11 0 6 -12 8 -27 4 -18 -3 -8 5 27 24 65 35 69 36 66 20z m-321 -17 c-3
-10 0 -23 7 -28 18 -14 138 -33 168 -27 l25 5 -25 -12 c-22 -9 -92 -3 -172 17
-5 1 -12 2 -18 3 -14 1 -13 34 2 49 17 17 20 15 13 -7z m-88 -23 c-3 -7 -5 -2
-5 12 0 14 2 19 5 13 2 -7 2 -19 0 -25z m-1111 2 c40 -16 21 -24 -23 -10 -46
15 -71 36 -31 26 15 -3 39 -11 54 -16z m981 2 c11 -7 42 -13 67 -14 25 -2 46
-5 46 -9 0 -3 35 -11 78 -18 42 -7 82 -16 87 -19 6 -4 26 -8 45 -9 63 -4 79
-11 73 -33 -5 -17 0 -20 26 -20 17 0 34 -1 39 -2 4 -2 8 7 10 20 4 26 1 26 45
7 19 -8 102 -26 183 -41 82 -15 152 -30 156 -33 4 -4 -26 -40 -67 -81 l-75
-74 -175 39 c-145 32 -175 42 -175 56 0 15 5 16 28 10 18 -6 34 -4 45 4 29 21
19 32 -33 39 -45 6 -70 20 -57 32 2 3 35 -2 72 -11 50 -11 71 -12 81 -4 7 6
19 7 25 3 7 -4 9 -3 5 4 -3 6 2 15 11 21 28 16 5 13 -28 -5 -23 -12 -37 -13
-62 -5 -18 6 -39 10 -47 9 -38 -3 -58 3 -62 20 -3 10 -16 18 -33 20 -24 2
-213 42 -272 58 -21 6 -21 4 -13 -27 4 -19 10 -53 13 -76 5 -39 3 -43 -16 -43
-18 0 -19 2 -7 11 11 8 6 9 -20 4 -27 -5 -32 -4 -20 5 12 9 7 10 -19 5 -21 -5
-31 -3 -27 3 8 13 -80 35 -106 26 -14 -4 -18 -3 -13 5 5 8 -1 10 -21 5 -20 -5
-25 -4 -19 6 5 9 2 10 -14 5 -13 -4 -21 -2 -21 5 0 8 -8 10 -21 7 -21 -6 -49
12 -49 31 0 6 14 13 30 17 40 9 38 21 -5 29 -19 4 -35 11 -35 15 0 5 26 2 58
-5 31 -7 66 -11 77 -7 11 3 41 7 68 8 37 2 47 -1 43 -11 -4 -10 -1 -11 12 -5
9 5 28 14 42 19 23 10 23 11 -7 5 -17 -3 -39 0 -50 6 -25 15 74 8 104 -7z
m652 -36 c9 -11 6 -12 -14 -8 -14 2 -22 8 -19 13 8 13 20 11 33 -5z m-1729
-82 c0 -64 -3 -85 -12 -82 -7 3 -16 18 -19 34 -5 23 -7 24 -8 7 -1 -27 -7 -28
-41 -8 -29 17 -54 19 -45 5 3 -5 0 -7 -9 -4 -16 6 -17 5 54 69 26 24 30 26 21
8 -6 -12 -14 -23 -18 -25 -5 -3 -3 -3 4 -2 7 2 15 -1 18 -6 13 -21 26 -8 24
23 -3 27 14 64 29 67 1 0 2 -39 2 -86z m442 72 c15 0 24 -4 22 -8 -3 -4 2 -8
11 -8 9 0 13 5 9 11 -4 7 -1 10 7 7 8 -3 13 -10 12 -16 -3 -12 43 -25 57 -17
6 4 10 1 10 -6 0 -6 8 -9 20 -6 12 3 18 1 14 -5 -4 -6 6 -8 27 -4 19 3 27 3
19 0 -22 -9 -60 -46 -60 -58 0 -5 14 3 31 20 22 21 28 24 23 10 -5 -14 -3 -17
7 -14 8 3 14 11 14 19 0 7 9 15 20 17 15 2 16 1 7 -6 -11 -7 -10 -10 3 -16 9
-3 24 -6 33 -5 14 0 13 2 -3 9 -15 6 -11 8 16 7 21 -1 35 -5 33 -8 -2 -4 13
-10 34 -14 20 -4 31 -10 25 -12 -8 -3 -13 -23 -13 -52 0 -26 -3 -50 -6 -54 -3
-3 -8 -50 -10 -104 -6 -148 -11 -165 -37 -157 -12 3 -23 7 -24 8 -2 1 -5 173
-4 188 1 4 12 3 25 -2 29 -11 40 -2 23 18 -9 13 -9 14 1 8 7 -4 12 -1 12 8 0
18 -16 21 -25 6 -4 -6 -11 -7 -17 -4 -7 5 -8 2 -3 -6 6 -10 4 -12 -9 -7 -11 4
-15 3 -11 -4 4 -6 1 -9 -6 -7 -17 3 -186 -88 -191 -103 -2 -7 -40 3 -102 27
l-97 39 5 110 c3 61 5 132 6 158 l0 49 33 -8 c17 -4 44 -8 59 -8z m1358 -1
c-7 -8 -21 -15 -31 -15 -11 0 -19 7 -19 15 0 10 10 15 31 15 27 0 30 -2 19
-15z m-247 -5 c17 0 19 -2 7 -9 -8 -6 -18 -7 -22 -5 -5 3 -8 2 -7 -3 4 -22 -3
-33 -22 -33 -11 0 -18 4 -14 9 3 5 1 12 -5 16 -17 10 -11 25 7 18 12 -5 14 -3
8 7 -6 10 -4 12 9 7 10 -4 27 -7 39 -7z m-253 -48 c75 -15 85 -20 88 -40 3
-23 2 -23 -45 -17 -62 9 -117 22 -170 42 -34 12 -43 21 -43 39 0 22 1 23 43 8
23 -8 80 -22 127 -32z m638 37 c-5 -3 -10 -10 -11 -15 -1 -5 -4 -8 -7 -8 -3 1
-23 4 -45 7 l-40 6 30 -14 c17 -8 37 -14 47 -15 10 0 15 -7 13 -17 -1 -12 -10
-17 -26 -16 -13 1 -39 4 -56 5 -18 2 -33 7 -33 11 0 5 -4 6 -9 3 -5 -3 -11 3
-14 14 -3 11 -11 20 -19 20 -10 0 -10 -2 0 -8 8 -6 2 -9 -18 -9 -16 0 -30 4
-30 9 0 5 4 7 9 4 5 -4 11 -2 13 3 1 6 27 12 56 15 30 2 56 7 59 10 3 2 24 4
48 3 24 -1 39 -5 33 -8z m-321 -25 c-3 -3 -12 -4 -19 -1 -8 3 -5 6 6 6 11 1
17 -2 13 -5z m-281 -80 c30 -4 57 -11 60 -16 9 -14 -54 -2 -226 45 -8 2 -11 2
-6 -1 4 -2 2 -8 -5 -13 -11 -7 -11 -9 -1 -9 7 0 10 -4 7 -10 -4 -6 2 -7 18 -1
16 6 54 3 122 -12 76 -16 93 -23 75 -28 -24 -7 -24 -7 -2 -8 39 -2 24 -28 -22
-40 -68 -17 -78 -11 -16 8 l55 17 -58 12 c-49 10 -65 9 -94 -3 -55 -23 -54
-16 2 11 36 18 42 23 20 19 -16 -4 -48 -18 -70 -31 -24 -16 -31 -23 -16 -19
16 5 21 4 17 -4 -4 -6 13 -2 36 9 62 28 82 24 23 -4 -62 -30 -57 -32 13 -6 29
11 60 20 70 19 9 0 -7 -9 -37 -20 -62 -22 -80 -34 -36 -24 23 5 26 4 15 -4
-11 -8 -7 -10 20 -5 28 4 32 3 20 -6 -13 -9 -12 -11 5 -6 58 14 90 17 75 7
-10 -7 -11 -11 -2 -11 6 0 12 -7 12 -15 0 -22 -22 -18 -145 23 l-110 37 -3 40
c-1 22 -5 54 -8 72 l-6 32 72 -25 c40 -13 97 -27 126 -30z m-466 16 c0 -5 -2
-10 -4 -10 -3 0 -8 5 -11 10 -3 6 -1 10 4 10 6 0 11 -4 11 -10z m-795 -40 c3
-5 1 -10 -4 -10 -6 0 -11 5 -11 10 0 6 2 10 4 10 3 0 8 -4 11 -10z m1408 -4
c3 3 8 1 11 -4 3 -6 -2 -9 -11 -7 -10 2 -26 4 -35 4 -10 1 -18 5 -18 11 0 6 9
6 24 0 13 -5 26 -6 29 -4z m-1435 -15 c3 -9 0 -11 -8 -6 -9 5 -11 4 -6 -3 4
-7 3 -12 -3 -12 -20 0 2 -30 23 -31 17 0 15 -3 -12 -15 -24 -11 -38 -12 -52
-4 -26 14 -26 24 0 17 18 -4 20 0 20 35 0 31 3 39 17 36 9 -2 18 -9 21 -17z
m-58 -13 c0 -6 -7 -7 -16 -4 -9 3 -18 6 -20 6 -3 0 -3 4 1 10 7 11 35 2 35
-12z m90 -14 c0 -16 -2 -16 -24 -8 -13 5 -14 9 -5 20 13 16 29 9 29 -12z m198
-56 c28 -11 52 -23 52 -28 0 -16 -31 -19 -53 -6 -12 8 -42 20 -67 27 -25 7
-52 19 -60 26 -8 7 -26 22 -40 33 -26 21 -20 19 168 -52z m-408 37 c-14 -8
-36 -14 -50 -14 -20 1 -17 4 15 14 53 18 66 18 35 0z m1525 -15 c-11 -5 -31
-8 -45 -8 l-25 0 25 8 c14 4 34 8 45 8 20 1 20 1 0 -8z m82 4 c-3 -3 -12 -4
-19 -1 -8 3 -5 6 6 6 11 1 17 -2 13 -5z m-1147 -14 c0 -5 -5 -10 -11 -10 -5 0
-7 5 -4 10 3 6 8 10 11 10 2 0 4 -4 4 -10z m1280 -15 c52 -13 84 -24 70 -24
-14 0 -63 11 -110 24 -111 31 -82 31 40 0z m-1775 5 c8 -13 -5 -13 -25 0 -13
8 -13 10 2 10 9 0 20 -4 23 -10z m1300 -9 c-3 -5 -1 -12 5 -16 6 -4 4 -12 -5
-22 -9 -8 -19 -13 -22 -10 -9 9 6 57 18 57 6 0 8 -4 4 -9z m155 -33 c102 -30
129 -42 118 -53 -8 -9 -258 75 -258 86 0 7 8 8 18 4 9 -3 64 -20 122 -37z
m513 0 c-6 -10 -52 -9 -78 2 -14 5 -4 8 31 7 29 -1 50 -5 47 -9z m84 -1 c2 -3
-3 -12 -12 -21 -9 -9 -18 -24 -20 -34 -1 -9 -9 -15 -16 -13 -8 2 -20 4 -26 4
-18 1 -16 37 3 59 15 16 57 19 71 5z m-1167 -7 c0 -6 -22 -21 -48 -33 -44 -20
-47 -24 -33 -38 22 -23 53 -30 71 -18 13 9 13 10 -2 6 -9 -3 -19 1 -22 9 -3 8
-11 14 -18 14 -9 0 -8 -3 2 -10 13 -8 12 -10 -2 -10 -19 0 -26 29 -8 31 6 1
14 2 19 3 5 0 13 4 17 9 4 4 12 7 18 7 6 0 5 -4 -3 -9 -7 -5 -10 -14 -7 -20 4
-6 11 -9 15 -7 14 9 9 -29 -6 -46 -11 -12 -11 -18 -2 -24 8 -4 10 -3 5 4 -4 7
-2 12 3 12 6 0 11 -9 11 -20 0 -20 0 -20 -52 0 -69 26 -98 25 -33 -1 28 -11
55 -25 60 -31 7 -8 6 -9 -2 -4 -7 4 -13 2 -13 -4 0 -20 -53 -1 -77 27 -11 14
-19 32 -16 39 3 7 -8 15 -27 19 -40 9 -31 19 60 69 68 37 90 43 90 26z m-390
-15 c0 -8 -7 -15 -15 -15 -16 0 -20 12 -8 23 11 12 23 8 23 -8z m836 4 c3 -6
15 -9 25 -6 11 3 17 1 13 -4 -3 -5 -3 -9 0 -9 2 0 13 -3 23 -6 15 -5 16 -4 3
6 -13 10 -13 11 1 7 10 -3 36 -11 58 -18 25 -7 37 -15 30 -20 -7 -4 5 -10 27
-13 55 -10 63 -17 57 -50 -5 -25 -9 -27 -34 -22 -16 3 -29 1 -29 -4 0 -6 11
-10 24 -10 14 0 28 -5 32 -11 7 -12 -40 -5 -81 12 -17 7 -17 8 -2 8 9 1 17 6
17 12 0 5 -4 7 -10 4 -5 -3 -10 0 -10 7 0 8 -5 6 -11 -4 -5 -10 -15 -18 -22
-18 -8 0 -6 4 3 11 12 9 10 10 -8 6 -25 -6 -162 42 -162 55 0 14 22 8 71 -19
27 -14 52 -23 55 -20 4 3 -19 17 -50 31 -32 14 -56 31 -56 40 0 12 10 11 53
-9 58 -25 183 -65 201 -64 6 0 -32 15 -84 33 -133 46 -172 64 -165 76 8 13 22
13 31 -1z m-53 -24 c-3 -9 -8 -14 -10 -11 -3 3 -2 9 2 15 9 16 15 13 8 -4z
m-266 -62 c-9 -9 -20 -13 -24 -9 -4 4 1 14 11 22 25 18 35 8 13 -13z m-301 -8
c17 -13 16 -14 -13 -4 -34 11 -42 19 -20 19 7 0 22 -7 33 -15z"/>
<path d="M2021 988 c0 -10 -5 -18 -9 -18 -5 0 -9 -7 -9 -15 0 -8 4 -12 9 -9 4
3 8 -2 8 -10 0 -19 16 -21 26 -4 4 7 3 8 -4 4 -7 -4 -12 -2 -12 4 0 6 11 16
25 22 14 6 25 16 25 22 0 6 -5 5 -12 -2 -17 -17 -36 -15 -41 6 -4 16 -5 16 -6
0z"/>
<path d="M2025 900 c3 -5 8 -10 11 -10 2 0 4 5 4 10 0 6 -5 10 -11 10 -5 0 -7
-4 -4 -10z"/>
<path d="M2260 845 c0 -8 5 -15 10 -15 6 0 10 7 10 15 0 8 -4 15 -10 15 -5 0
-10 -7 -10 -15z"/>
<path d="M2295 840 c-3 -5 1 -10 9 -10 9 0 16 5 16 10 0 6 -4 10 -9 10 -6 0
-13 -4 -16 -10z"/>
<path d="M2234 785 c-16 -12 -17 -14 -3 -15 9 0 19 7 23 15 7 19 5 19 -20 0z"/>
<path d="M2140 771 c-23 -7 -22 -8 14 -14 43 -7 52 -4 41 12 -7 12 -18 12 -55
2z"/>
<path d="M2265 770 c-3 -6 1 -7 9 -4 18 7 21 14 7 14 -6 0 -13 -4 -16 -10z"/>
<path d="M2223 745 c0 -18 19 -15 25 3 2 7 -3 12 -10 12 -8 0 -15 -7 -15 -15z"/>
<path d="M2710 940 c12 -8 12 -10 -3 -16 -9 -3 -14 -10 -11 -15 8 -14 24 -10
24 6 0 8 5 15 11 15 5 0 7 5 4 10 -3 6 -14 10 -23 10 -14 0 -15 -2 -2 -10z"/>
<path d="M1460 899 c0 -5 5 -7 10 -4 6 3 10 8 10 11 0 2 -4 4 -10 4 -5 0 -10
-5 -10 -11z"/>
<path d="M1349 889 c14 -5 28 -6 33 -1 4 4 -7 9 -25 9 -30 2 -31 2 -8 -8z"/>
<path d="M1940 830 c-15 -5 4 -6 45 -3 39 3 72 7 74 9 8 7 -94 2 -119 -6z"/>
<path d="M2014 811 c5 -8 56 -3 56 5 0 2 -14 4 -31 4 -16 0 -28 -4 -25 -9z"/>
<path d="M1937 769 c7 -7 41 -14 75 -15 l63 -3 -60 9 c-33 6 -67 12 -75 16
-12 4 -12 3 -3 -7z"/>
<path d="M1418 733 c7 -3 16 -2 19 1 4 3 -2 6 -13 5 -11 0 -14 -3 -6 -6z"/>
<path d="M1433 720 c-32 -13 -29 -22 3 -10 14 6 40 10 57 9 28 -1 27 -2 -13
-11 -25 -5 -49 -15 -55 -20 -7 -8 -4 -9 10 -4 11 4 47 13 80 19 54 10 57 12
30 18 -44 10 -87 9 -112 -1z"/>
<path d="M1500 658 c-30 -10 -59 -23 -65 -30 -7 -8 -5 -9 10 -3 11 4 47 15 79
25 33 9 53 19 45 22 -8 3 -39 -3 -69 -14z"/>
<path d="M1523 637 c-23 -7 -45 -16 -50 -21 -5 -5 2 -6 17 -1 14 4 40 9 58 12
17 3 32 9 32 14 0 11 -3 10 -57 -4z"/>
<path d="M1162 626 c-34 -20 -35 -23 -2 -23 16 0 27 4 24 9 -3 4 2 8 10 8 9 0
16 5 16 10 0 13 -19 11 -48 -4z"/>
<path d="M940 551 c0 -5 15 -18 34 -29 28 -17 35 -18 40 -6 3 9 -1 14 -13 14
-10 0 -24 7 -31 15 -14 17 -30 20 -30 6z"/>
<path d="M2468 689 c-23 -13 -23 -30 -1 -22 12 5 14 3 8 -8 -5 -8 -5 -11 1 -6
5 5 9 12 9 15 0 4 4 13 8 20 10 14 -1 15 -25 1z"/>
<path d="M1930 656 c0 -2 7 -7 16 -10 8 -3 12 -2 9 4 -6 10 -25 14 -25 6z"/>
<path d="M1835 640 c3 -5 8 -10 11 -10 2 0 4 5 4 10 0 6 -5 10 -11 10 -5 0 -7
-4 -4 -10z"/>
<path d="M1708 623 c-16 -2 -28 -8 -28 -13 0 -11 73 -19 85 -9 5 5 14 9 20 9
5 0 3 -4 -5 -10 -26 -16 -4 -20 36 -6 21 8 32 15 24 16 -8 1 -22 3 -30 6 -30
8 -76 12 -102 7z"/>
<path d="M2148 613 c6 -2 18 -2 25 0 6 3 1 5 -13 5 -14 0 -19 -2 -12 -5z"/>
<path d="M2198 603 c6 -2 18 -2 25 0 6 3 1 5 -13 5 -14 0 -19 -2 -12 -5z"/>
<path d="M2310 581 c0 -5 9 -11 21 -14 16 -4 18 -3 8 9 -13 16 -29 19 -29 5z"/>
<path d="M2530 519 c-23 -8 -22 -8 8 -5 26 2 38 -3 53 -22 15 -20 17 -27 7
-34 -15 -9 -6 -11 16 -2 13 5 11 12 -12 40 -29 36 -32 37 -72 23z"/>
<path d="M2462 452 c-12 -8 -22 -18 -22 -22 0 -10 91 -24 150 -23 40 1 42 0
15 -7 -29 -7 -29 -8 -4 -9 14 0 34 7 43 18 15 17 15 19 1 25 -25 9 -47 7 -40
-4 3 -5 -1 -10 -10 -10 -9 0 -14 4 -10 9 15 25 -91 45 -123 23z m55 -17 c0
-18 -16 -19 -37 -4 -13 9 -12 10 3 5 9 -3 17 -1 17 4 0 6 4 10 8 10 5 0 9 -7
9 -15z m43 5 c0 -5 -4 -10 -9 -10 -6 0 -13 5 -16 10 -3 6 1 10 9 10 9 0 16 -4
16 -10z"/>
<path d="M1298 598 c13 -13 -4 -52 -19 -43 -5 4 -12 -1 -16 -10 -7 -21 16 -38
33 -24 13 11 29 -5 20 -20 -3 -4 5 -7 17 -6 12 1 29 3 38 4 18 1 32 38 18 47
-8 4 -13 -7 -11 -26 0 -3 -11 -7 -26 -8 -26 -2 -26 -2 -6 13 30 21 37 53 13
65 -10 6 -19 9 -20 8 -6 -17 -4 -56 3 -52 4 3 5 11 2 17 -4 7 -1 7 7 -1 12
-11 11 -15 -5 -27 -21 -16 -41 -10 -30 7 5 7 2 8 -7 3 -11 -7 -12 -6 -3 6 22
28 22 55 1 56 -15 2 -17 -1 -9 -9z"/>
<path d="M1280 579 c0 -5 5 -7 10 -4 6 3 10 8 10 11 0 2 -4 4 -10 4 -5 0 -10
-5 -10 -11z"/>
<path d="M1415 570 c-4 -6 -12 -7 -18 -3 -8 4 -8 1 1 -9 7 -9 12 -20 11 -24
-3 -20 2 -23 26 -14 19 7 25 6 25 -5 0 -7 -4 -17 -10 -20 -5 -3 -10 -1 -10 5
0 6 -4 9 -10 5 -6 -4 -6 -15 0 -30 7 -20 6 -25 -5 -25 -8 0 -14 3 -14 8 4 21
-3 28 -28 29 -16 0 -20 -1 -10 -4 9 -2 15 -9 12 -14 -4 -5 -2 -9 4 -9 6 0 8
-7 5 -15 -4 -8 -1 -21 5 -29 12 -15 5 -46 -11 -46 -5 0 -6 6 -2 13 4 6 -3 3
-15 -7 -12 -11 -28 -21 -36 -22 -18 -3 -28 25 -15 41 5 6 7 15 3 18 -3 4 -2 7
3 8 5 0 17 2 27 4 9 2 17 -3 17 -11 0 -8 7 -14 17 -14 14 0 14 2 -3 21 -10 11
-26 18 -36 16 -9 -3 -18 -1 -20 4 -2 5 -11 0 -20 -11 -10 -11 -13 -20 -7 -20
5 0 7 -5 4 -10 -4 -6 -12 -7 -18 -3 -7 4 -4 -5 6 -21 18 -27 18 -27 -1 -17
-11 6 -22 15 -24 21 -2 6 -9 1 -16 -11 -8 -12 -9 -18 -3 -14 6 3 20 3 32 0 15
-5 17 -10 10 -19 -8 -9 -7 -13 4 -13 8 0 12 4 9 9 -3 4 5 8 17 8 22 0 22 0 3
-22 -10 -12 -13 -18 -5 -13 8 4 17 2 22 -6 7 -12 9 -12 9 0 0 11 4 11 18 -2
17 -16 25 -12 135 64 65 44 122 77 127 74 6 -4 10 -3 9 2 -3 19 2 34 10 29 4
-3 16 3 26 14 35 39 9 28 -62 -26 -74 -55 -96 -67 -72 -37 13 15 12 15 -10 4
-16 -9 -20 -16 -12 -20 9 -6 8 -11 -4 -21 -10 -9 -19 -10 -26 -3 -9 9 107 122
155 150 12 7 15 12 8 13 -8 0 -28 -10 -45 -22 -25 -18 -29 -19 -24 -5 9 23 -8
30 -24 10 -10 -12 -10 -14 -1 -9 8 5 12 1 12 -12 0 -11 -30 -45 -75 -83 -65
-55 -73 -66 -60 -75 12 -9 13 -14 5 -19 -7 -4 -16 -3 -22 3 -10 10 -48 5 -48
-7 0 -4 -7 -8 -15 -8 -8 0 -15 3 -15 6 0 10 17 33 24 32 3 -1 7 -1 9 0 1 0 10
2 20 4 35 7 54 53 48 115 -2 13 -1 13 8 0 6 -8 8 -26 5 -40 -4 -18 0 -15 11
10 9 19 14 47 11 61 -3 14 0 31 6 37 7 7 1 15 -20 26 -36 19 -39 19 -47 6z
m35 -15 c5 3 11 2 14 -3 2 -4 -10 -13 -27 -20 -29 -10 -30 -10 -13 3 11 8 14
15 7 15 -7 0 -9 5 -5 12 6 9 9 9 12 0 2 -7 8 -10 12 -7z m-29 -119 c5 3 9 -2
9 -12 0 -13 -3 -14 -15 -4 -8 7 -15 18 -14 24 0 7 2 6 6 -2 2 -6 9 -10 14 -6z
m55 -81 c-10 -8 -23 -12 -28 -9 -14 9 -2 19 24 21 22 2 22 1 4 -12z m-56 -40
c0 -2 -10 -9 -22 -15 -22 -11 -22 -10 -4 4 21 17 26 19 26 11z"/>
<path d="M1654 517 c-35 -21 -104 -80 -99 -85 3 -3 31 15 62 40 32 25 65 48
73 51 13 5 13 5 0 6 -8 0 -24 -5 -36 -12z"/>
<path d="M1513 489 c-12 -30 -12 -31 7 -14 10 9 16 23 13 31 -7 19 -7 19 -20
-17z"/>
<path d="M1253 491 c2 -27 40 -25 45 1 2 13 -1 16 -12 12 -9 -3 -13 -11 -10
-18 3 -6 -1 -3 -10 8 -14 18 -15 18 -13 -3z"/>
<path d="M1305 470 c-10 -11 -12 -20 -6 -24 5 -4 12 -2 16 4 4 6 11 7 17 4 7
-4 8 -2 4 4 -4 7 -3 12 3 12 5 0 11 -5 13 -12 3 -8 6 -9 11 -1 3 5 -4 15 -17
21 -20 9 -27 7 -41 -8z"/>
<path d="M1250 439 c0 -5 4 -7 10 -4 6 3 7 -1 4 -9 -3 -9 -2 -16 4 -16 12 0
23 26 15 34 -10 10 -33 7 -33 -5z"/>
<path d="M1660 429 c-7 -11 -10 -23 -7 -25 2 -2 9 7 15 21 14 30 7 33 -8 4z"/>
<path d="M1330 380 c0 -5 5 -10 10 -10 6 0 10 5 10 10 0 6 -4 10 -10 10 -5 0
-10 -4 -10 -10z"/>
<path d="M2040 581 c21 -15 196 -54 212 -48 7 3 4 6 -8 6 -17 1 -113 23 -199
47 -16 4 -17 3 -5 -5z"/>
<path d="M2690 592 c0 -5 7 -9 15 -9 8 0 15 4 15 9 0 4 -7 8 -15 8 -8 0 -15
-4 -15 -8z"/>
<path d="M2073 488 c-13 -6 -23 -16 -23 -22 0 -6 5 -5 12 2 18 18 32 14 17 -5
-13 -15 -12 -15 16 -1 17 8 37 18 45 22 8 3 -1 3 -20 0 -26 -4 -31 -3 -20 5
19 14 2 13 -27 -1z"/>
<path d="M2208 463 c7 -3 16 -2 19 1 4 3 -2 6 -13 5 -11 0 -14 -3 -6 -6z"/>
<path d="M2248 363 c7 -3 16 -2 19 1 4 3 -2 6 -13 5 -11 0 -14 -3 -6 -6z"/>
<path d="M1488 253 c7 -3 16 -2 19 1 4 3 -2 6 -13 5 -11 0 -14 -3 -6 -6z"/>
<path d="M2135 210 c-3 -5 -1 -10 4 -10 6 0 11 5 11 10 0 6 -2 10 -4 10 -3 0
-8 -4 -11 -10z"/>
<path d="M2150 1328 c-14 -6 -20 -12 -13 -15 7 -2 21 1 32 7 14 7 21 7 21 0 0
-5 7 -10 16 -10 10 0 14 -6 10 -15 -3 -8 -2 -15 3 -15 11 0 19 31 13 48 -3 10
-7 10 -18 1 -10 -8 -14 -8 -14 0 0 13 -17 13 -50 -1z"/>
<path d="M2898 1323 c7 -3 16 -2 19 1 4 3 -2 6 -13 5 -11 0 -14 -3 -6 -6z"/>
<path d="M2124 1278 c-5 -8 3 -12 19 -9 14 2 7 -37 -8 -43 -8 -3 -15 0 -15 6
0 6 -2 9 -5 6 -8 -8 6 -38 17 -38 5 0 6 5 2 12 -5 8 -2 9 10 5 9 -4 15 -3 12
1 -3 5 4 16 15 25 29 26 24 46 -11 45 -17 -1 -33 -5 -36 -10z m51 -8 c3 -5 1
-10 -4 -10 -6 0 -11 5 -11 10 0 6 2 10 4 10 3 0 8 -4 11 -10z"/>
<path d="M2330 1273 c8 -3 22 -11 30 -17 13 -10 13 -9 1 7 -7 9 -21 17 -30 16
-13 0 -14 -1 -1 -6z"/>
<path d="M1499 1233 c-3 -16 -2 -44 2 -63 4 -27 6 -21 7 28 0 66 -3 80 -9 35z"/>
<path d="M2779 1216 c9 -11 9 -15 -1 -19 -7 -3 -3 -6 10 -6 20 -1 21 2 12 19
-6 11 -16 20 -22 20 -7 0 -7 -4 1 -14z"/>
<path d="M2710 1172 c0 -12 3 -13 11 -5 6 6 19 9 28 6 9 -4 13 -3 10 1 -4 4
-16 8 -28 11 -14 3 -21 -1 -21 -13z"/>
<path d="M2619 1161 c-13 -11 -22 -22 -19 -24 3 -3 16 5 29 19 28 29 22 31
-10 5z"/>
<path d="M2115 1141 c-3 -5 -1 -12 5 -16 5 -3 10 -3 10 1 0 3 8 0 18 -7 14
-11 13 -10 -2 9 -22 25 -23 25 -31 13z"/>
<path d="M2162 1130 c7 -11 14 -16 16 -12 1 5 15 7 30 4 26 -4 26 -4 7 11 -14
11 -24 12 -32 5 -9 -7 -13 -7 -13 1 0 6 -5 11 -10 11 -6 0 -5 -8 2 -20z"/>
<path d="M2231 1129 c24 -24 28 -24 22 -1 -2 10 -13 18 -23 19 -18 2 -18 1 1
-18z"/>
<path d="M2695 1141 c8 -14 44 -20 39 -7 -2 6 -14 12 -24 13 -11 1 -18 -2 -15
-6z"/>
<path d="M2792 1139 c3 -8 -4 -18 -15 -24 -22 -11 -25 -28 -5 -33 10 -3 10 -2
-1 6 -11 8 -11 11 0 18 7 4 14 3 17 -4 6 -20 18 -13 20 13 1 13 -3 27 -9 31
-7 4 -10 1 -7 -7z"/>
<path d="M1405 1130 c3 -5 21 -10 40 -10 19 0 37 5 40 10 4 6 -12 10 -40 10
-28 0 -44 -4 -40 -10z"/>
<path d="M2467 1118 c-3 -10 7 -13 38 -13 44 0 72 10 32 10 -12 1 -32 4 -43 8
-14 5 -23 3 -27 -5z"/>
<path d="M1450 1094 c0 -13 -7 -15 -37 -10 -32 5 -35 5 -19 -5 11 -7 42 -11
69 -10 48 1 49 1 44 -25 -3 -16 -1 -22 5 -16 16 16 4 47 -20 50 -12 2 -22 10
-22 18 0 8 -4 14 -10 14 -5 0 -10 -7 -10 -16z"/>
<path d="M2378 1083 c23 -2 61 -2 85 0 23 2 4 4 -43 4 -47 0 -66 -2 -42 -4z"/>
<path d="M1251 1048 c2 -32 2 -32 6 -5 4 28 23 33 31 7 3 -7 0 -10 -5 -7 -5 3
-10 -5 -11 -18 -1 -18 2 -23 13 -19 11 5 13 2 9 -10 -3 -9 -1 -16 5 -16 6 0
11 7 11 16 0 8 4 13 9 10 4 -3 19 6 31 19 13 14 31 25 39 25 14 1 14 2 1 9 -8
5 -32 8 -53 7 -21 -1 -41 2 -43 6 -3 5 -14 8 -25 8 -15 0 -19 -6 -18 -32z m59
-13 c-7 -8 -16 -15 -21 -15 -5 0 -1 9 8 20 9 11 19 17 21 15 3 -3 -1 -11 -8
-20z m40 17 c0 -5 -7 -17 -16 -28 -14 -17 -15 -17 -10 -1 3 10 6 23 6 28 0 5
5 9 10 9 6 0 10 -4 10 -8z"/>
<path d="M417 1043 c-9 -8 -7 -100 2 -133 4 -14 7 10 7 57 -1 46 -1 83 -2 83
0 0 -4 -3 -7 -7z"/>
<path d="M801 1024 c0 -11 3 -14 6 -6 3 7 2 16 -1 19 -3 4 -6 -2 -5 -13z"/>
<path d="M820 1008 c0 -19 -5 -39 -11 -45 -6 -6 -9 -21 -7 -34 2 -20 11 -25
51 -33 29 -5 47 -13 47 -22 0 -8 7 -14 15 -14 8 0 15 5 15 11 0 6 7 9 15 5 8
-3 15 -1 15 4 0 6 -4 10 -10 10 -6 0 -10 28 -10 64 0 71 2 69 -77 81 l-43 7 0
-34z m46 -4 c-3 -8 -1 -14 4 -14 6 0 10 6 10 13 0 8 6 14 14 14 12 0 12 -4 -1
-24 -12 -18 -19 -21 -29 -12 -11 9 -14 7 -14 -10 0 -11 -4 -21 -10 -21 -5 0
-10 -4 -10 -9 0 -5 8 -8 18 -6 9 1 16 8 14 15 -1 6 2 9 6 6 5 -3 20 8 34 24
l24 30 2 -61 c2 -57 1 -59 -18 -49 -22 12 -27 22 -7 14 9 -3 13 4 13 21 0 32
-5 31 -34 -2 -14 -17 -25 -23 -28 -17 -3 7 -14 10 -24 7 -24 -6 -28 22 -4 31
8 3 13 10 10 15 -3 5 1 14 10 21 8 7 13 19 10 27 -4 8 -1 11 5 8 6 -4 8 -13 5
-21z"/>
<path d="M1450 1009 c0 -5 5 -7 10 -4 6 3 10 8 10 11 0 2 -4 4 -10 4 -5 0 -10
-5 -10 -11z"/>
<path d="M1110 990 c0 -11 2 -20 4 -20 2 0 6 9 9 20 3 11 1 20 -4 20 -5 0 -9
-9 -9 -20z"/>
<path d="M2480 1002 c0 -7 -10 -13 -22 -13 -19 -1 -20 -2 -4 -6 20 -5 44 12
33 24 -4 3 -7 1 -7 -5z"/>
<path d="M2273 993 c15 -2 39 -2 55 0 15 2 2 4 -28 4 -30 0 -43 -2 -27 -4z"/>
<path d="M34 924 c4 -27 6 -71 6 -99 l-1 -50 66 -24 c56 -20 66 -26 63 -45 -3
-18 -11 -21 -50 -24 -27 -2 -48 1 -48 6 0 5 14 9 31 10 18 0 37 6 43 12 15 15
-77 2 -119 -17 -16 -7 -21 -12 -10 -10 11 2 33 -3 48 -10 17 -9 40 -12 59 -8
16 4 39 8 51 9 47 6 87 18 87 27 0 5 5 9 10 9 6 0 10 -7 10 -15 0 -8 11 -17
25 -21 14 -3 25 -10 25 -16 0 -5 4 -7 9 -4 12 8 91 -25 91 -38 0 -6 3 -21 6
-32 5 -19 1 -23 -33 -28 -24 -5 -51 -2 -72 7 l-34 14 36 7 c20 4 47 4 61 0 21
-5 26 -2 26 11 0 18 -7 18 -114 -2 -31 -6 -36 -10 -25 -19 8 -6 25 -15 38 -19
15 -5 20 -10 12 -15 -21 -12 51 -4 137 16 86 20 97 32 44 49 -32 9 -44 25 -18
25 7 0 44 -11 80 -25 37 -14 69 -25 71 -25 3 0 5 54 5 120 0 66 -4 120 -9 120
-5 0 -7 -9 -4 -21 5 -16 2 -20 -12 -18 -11 3 -25 26 -39 65 l-22 61 32 -7 c46
-11 52 -17 60 -55 3 -18 12 -36 20 -39 11 -4 12 -11 6 -23 -5 -10 -7 -24 -5
-30 3 -7 0 -13 -6 -13 -12 0 -10 -52 4 -62 5 -4 21 7 36 23 15 17 30 30 33 30
16 -2 17 0 6 14 -10 12 -10 15 3 15 22 0 27 -22 10 -42 -8 -9 -12 -22 -8 -27
11 -18 25 -12 25 10 0 11 5 29 10 40 6 11 7 19 3 18 -4 -1 -16 1 -26 6 -10 4
-21 5 -24 1 -3 -3 -12 -1 -18 4 -9 8 -14 6 -19 -5 -4 -10 -1 -15 9 -13 7 2 14
-1 14 -7 1 -5 -8 -11 -19 -11 -16 -1 -19 4 -15 30 2 17 4 32 4 33 1 1 20 -4
43 -13 22 -8 46 -14 52 -13 20 2 55 -13 59 -25 3 -7 -1 -13 -9 -13 -7 0 -16 7
-18 14 -3 8 -11 11 -16 8 -8 -5 -7 -12 1 -22 10 -12 10 -19 0 -35 -10 -16 -10
-23 1 -36 11 -15 11 -15 -3 -4 -15 11 -20 8 -39 -22 -12 -20 -19 -40 -15 -46
3 -5 0 -7 -8 -4 -8 3 -20 -2 -27 -11 -11 -13 -10 -15 8 -12 30 4 52 26 45 44
-4 10 -2 14 4 10 6 -4 26 10 44 31 48 52 66 77 52 68 -16 -9 -17 6 -1 22 9 9
7 13 -5 18 -9 3 -15 9 -12 14 2 4 -34 17 -81 30 -85 22 -86 23 -104 66 -16 37
-24 44 -47 44 -16 0 -43 4 -61 9 -32 9 -32 9 -17 -12 8 -12 15 -36 15 -54 0
-18 5 -33 10 -33 7 0 9 -27 8 -72 l-3 -72 33 -8 c33 -9 43 -34 17 -44 -8 -4
-30 -3 -48 0 -30 6 -33 9 -29 34 2 19 -2 33 -15 42 -15 12 -16 12 -5 0 14 -16
16 -56 3 -64 -5 -3 -12 1 -15 10 -5 13 -9 14 -21 4 -12 -10 -15 -10 -15 3 0 9
5 19 10 22 6 4 7 11 3 17 -3 7 -5 38 -4 70 2 45 -1 59 -13 64 -9 3 -16 12 -16
19 0 8 -4 16 -9 20 -18 11 -165 44 -173 39 -4 -3 -7 -17 -7 -32 l1 -27 8 30
c6 25 8 27 14 13 5 -10 5 -26 1 -35 -3 -10 -9 -43 -12 -73 -3 -30 -6 -56 -8
-58 -1 -1 -15 10 -30 25 -16 16 -25 22 -21 16 4 -7 2 -13 -3 -13 -7 0 -11 29
-11 74 0 65 -2 74 -20 79 -11 3 -20 12 -20 20 0 10 -18 19 -52 27 -29 6 -62
14 -72 17 -17 5 -18 1 -12 -43z m13 4 c-3 -8 -6 -5 -6 6 -1 11 2 17 5 13 3 -3
4 -12 1 -19z m59 7 c12 -8 24 -11 28 -8 6 7 -33 -88 -40 -96 -2 -2 0 14 3 35
3 22 2 36 -2 31 -8 -7 -10 -14 -17 -62 -5 -36 13 -31 35 10 12 22 26 43 30 46
5 3 8 9 8 13 -3 23 2 27 8 6 5 -14 4 -32 0 -41 -4 -8 -3 -22 2 -30 9 -14 13
-89 4 -89 -11 0 -55 24 -55 31 0 16 29 17 33 1 3 -9 5 0 6 21 1 45 -9 47 -33
6 -11 -19 -23 -28 -33 -25 -8 3 -19 6 -24 6 -13 0 -11 44 3 58 10 10 10 17 -1
35 -8 12 -10 19 -6 15 5 -4 14 -3 22 3 15 13 18 39 3 39 -5 0 -7 -7 -4 -15 4
-8 2 -15 -4 -15 -8 0 -9 16 -3 38 2 6 18 1 37 -13z m269 -65 c3 -5 12 -7 19
-4 8 3 17 0 22 -7 5 -9 2 -10 -10 -6 -11 4 -15 3 -10 -4 6 -10 -35 -113 -42
-106 -1 1 3 28 11 59 7 31 10 59 7 62 -9 10 -32 7 -32 -5 0 -5 5 -7 12 -3 8 5
9 0 4 -17 -5 -13 -11 -42 -15 -64 -8 -39 -8 -40 -19 -15 -11 25 -11 25 -8 -5
2 -18 9 -29 16 -27 8 2 10 -3 7 -13 -12 -29 9 -15 27 20 10 19 23 32 27 29 5
-3 9 0 9 5 0 20 3 26 19 39 9 8 10 11 4 7 -9 -4 -11 -1 -7 9 3 9 10 13 15 10
5 -3 6 3 2 12 -4 11 -2 15 4 11 6 -4 11 -44 12 -93 0 -47 3 -94 6 -105 5 -15
3 -17 -10 -13 -13 6 -16 18 -13 64 2 43 0 56 -9 53 -7 -3 -13 -8 -13 -12 -1
-3 -14 -21 -29 -39 -28 -33 -29 -33 -59 -18 -28 14 -29 18 -27 73 1 49 5 58
20 58 10 0 20 6 22 13 3 7 -1 10 -11 6 -9 -3 -16 -1 -16 6 0 6 5 8 10 5 6 -3
10 1 10 9 0 17 35 22 45 6z m265 -116 c0 -2 -9 -4 -20 -4 -11 0 -20 4 -20 9 0
5 9 7 20 4 11 -3 20 -7 20 -9z m-403 -29 c7 -19 5 -21 -27 -29 -14 -3 -19 -3
-12 0 6 3 12 14 12 25 0 23 18 25 27 4z m399 -17 c2 -19 -13 -23 -35 -9 -7 5
-10 14 -6 20 10 17 38 9 41 -11z m57 -13 c-7 -21 -13 -19 -13 6 0 11 4 18 10
14 5 -3 7 -12 3 -20z m150 -10 c-19 -24 -32 -27 -17 -3 5 7 9 16 10 21 1 4 2
10 3 13 0 3 6 2 11 -1 6 -4 3 -15 -7 -30z m-425 -8 c4 -18 -6 -22 -23 -9 -17
12 -15 30 3 28 9 -2 18 -10 20 -19z m392 -31 c0 -2 -8 -10 -17 -17 -16 -13
-17 -12 -4 4 13 16 21 21 21 13z m-331 -57 c5 8 15 9 31 3 23 -8 22 -9 -9 -15
-40 -8 -52 -2 -43 21 6 15 7 15 10 -2 3 -13 6 -15 11 -7z"/>
<path d="M1091 963 c0 -4 4 -17 9 -28 8 -19 9 -19 9 2 1 12 -3 25 -9 28 -5 3
-10 3 -9 -2z"/>
<path d="M1540 890 c8 -5 22 -9 30 -9 10 0 8 3 -5 9 -27 12 -43 12 -25 0z"/>
<path d="M1593 825 c0 -8 4 -12 9 -9 4 3 8 9 8 15 0 5 -4 9 -8 9 -5 0 -9 -7
-9 -15z"/>
<path d="M1035 820 c-13 -5 -14 -9 -5 -9 8 0 24 4 35 9 13 5 14 9 5 9 -8 0
-24 -4 -35 -9z"/>
<path d="M930 790 c-8 -5 -10 -10 -5 -10 6 0 17 5 25 10 8 5 11 10 5 10 -5 0
-17 -5 -25 -10z"/>
<path d="M935 751 c14 -7 15 -10 5 -11 -12 0 -11 -3 3 -11 14 -8 22 -8 30 1 9
8 8 10 -6 4 -12 -4 -17 -2 -15 7 2 7 -6 14 -17 16 -20 3 -20 3 0 -6z"/>
<path d="M1218 745 c-2 -2 -16 -6 -32 -9 -16 -3 -30 -7 -33 -9 -7 -8 60 -12
102 -7 l40 5 -37 11 c-20 7 -38 10 -40 9z"/>
<path d="M2893 723 c9 -2 25 -2 35 0 9 3 1 5 -18 5 -19 0 -27 -2 -17 -5z"/>
<path d="M2950 719 c0 -5 11 -9 25 -9 14 0 25 2 25 4 0 2 -11 6 -25 8 -14 3
-25 1 -25 -3z"/>
<path d="M716 691 c-3 -5 4 -11 15 -14 12 -3 18 -10 15 -15 -6 -11 -56 -9 -74
2 -7 4 -12 1 -12 -8 0 -9 6 -15 13 -13 7 1 11 -6 9 -19 -1 -12 4 -27 13 -34
10 -8 15 -9 15 -1 0 6 -4 11 -10 11 -5 0 -10 8 -10 18 0 15 2 15 11 2 8 -12 9
-9 4 9 -6 20 -4 23 10 18 9 -4 19 -7 22 -7 3 0 0 -6 -6 -14 -8 -9 -8 -16 -2
-20 12 -8 31 25 31 51 0 31 -32 55 -44 34z"/>
<path d="M135 648 c6 -14 1 -18 -21 -20 -16 0 -36 0 -44 1 -57 7 -65 6 -68
-15 -3 -20 -1 -21 40 -12 24 5 55 12 71 15 33 6 44 21 28 36 -9 9 -11 8 -6 -5z
m-78 -34 c-3 -3 -12 -4 -19 -1 -8 3 -5 6 6 6 11 1 17 -2 13 -5z"/>
<path d="M591 644 c0 -11 3 -14 6 -6 3 7 2 16 -1 19 -3 4 -6 -2 -5 -13z"/>
<path d="M210 640 c-23 -7 -22 -8 10 -8 19 0 49 4 65 8 29 7 28 8 -10 8 -22 0
-51 -4 -65 -8z"/>
<path d="M58 578 c-21 -6 -38 -14 -38 -18 0 -5 25 -22 56 -39 53 -28 59 -30
105 -19 27 6 49 15 49 20 0 8 -114 69 -127 67 -4 -1 -25 -6 -45 -11z m73 -36
c-6 -2 -11 -8 -11 -14 0 -6 12 -3 26 7 15 10 23 12 19 4 -6 -9 -3 -11 8 -6 10
3 17 2 17 -3 0 -6 -8 -10 -17 -11 -10 0 -26 -2 -35 -4 -9 -2 -24 5 -34 16 -9
10 -21 16 -27 12 -6 -3 -7 -1 -3 6 4 6 11 9 16 6 5 -3 12 -1 15 5 5 8 12 7 22
-2 10 -8 11 -14 4 -16z"/>
<path d="M2878 531 c-2 -23 0 -41 4 -41 5 0 8 13 8 29 0 18 6 31 16 35 14 5
15 4 4 -8 -6 -9 -10 -21 -7 -28 4 -9 6 -7 6 3 1 22 31 34 31 12 0 -14 3 -14
22 3 12 10 18 13 14 7 -4 -8 -1 -13 8 -13 20 0 21 16 2 23 -7 3 -34 8 -59 12
l-45 7 -4 -41z"/>
<path d="M243 543 c9 -2 25 -2 35 0 9 3 1 5 -18 5 -19 0 -27 -2 -17 -5z"/>
<path d="M550 525 c-25 -7 -38 -13 -30 -14 8 0 38 6 65 13 28 8 41 14 30 14
-11 0 -40 -6 -65 -13z"/>
<path d="M381 509 c-1 -23 -49 -30 -82 -13 -19 9 -36 11 -57 5 -17 -5 -33 -7
-36 -3 -3 3 -6 0 -6 -7 0 -8 -7 -10 -20 -6 -14 4 -20 2 -20 -8 0 -22 71 -27
143 -11 34 8 81 16 105 18 23 2 46 7 50 11 4 4 -9 4 -30 0 -30 -6 -37 -4 -41
12 -4 14 -5 15 -6 2z m-93 -30 c-7 -5 -22 -8 -33 -8 -17 1 -17 2 -2 6 9 2 15
8 12 13 -3 4 4 6 16 3 16 -4 17 -8 7 -14z"/>
<path d="M478 503 c7 -3 16 -2 19 1 4 3 -2 6 -13 5 -11 0 -14 -3 -6 -6z"/>
<path d="M1860 474 c0 -8 -4 -12 -10 -9 -5 3 -10 1 -10 -4 0 -6 9 -11 19 -11
14 0 19 6 18 20 -2 23 -17 27 -17 4z"/>
<path d="M140 460 c14 -11 36 -19 50 -18 23 1 23 1 -3 5 -16 3 -31 11 -34 19
-3 8 -13 14 -22 14 -12 0 -10 -5 9 -20z"/>
<path d="M0 450 c0 -13 7 -20 19 -20 24 0 36 -16 19 -23 -7 -3 -3 -6 9 -6 12
-1 25 -6 29 -13 4 -7 3 -8 -5 -4 -15 10 -71 -3 -71 -15 0 -6 14 -7 34 -4 21 4
36 2 41 -5 10 -16 4 -19 -37 -22 -39 -3 -40 -5 -6 -22 20 -10 26 -8 45 12 l22
24 25 -40 c14 -22 28 -52 32 -66 3 -14 12 -30 19 -36 8 -6 12 -20 10 -30 -4
-21 22 -43 93 -79 30 -15 42 -28 43 -44 0 -21 1 -21 8 -2 10 24 -7 55 -26 48
-7 -3 -13 -1 -14 3 0 5 -2 17 -4 27 -4 22 11 22 24 0 9 -15 10 -12 9 14 -1 17
-6 29 -10 27 -4 -3 -8 3 -8 13 0 11 -4 23 -9 29 -5 5 -12 19 -16 32 -6 22 -5
22 14 10 12 -7 21 -17 21 -23 0 -5 8 -19 17 -30 13 -16 14 -17 9 -2 -18 51
-18 53 -4 36 7 -8 22 -21 33 -27 11 -6 14 -12 8 -12 -25 0 -13 -18 16 -23 16
-3 35 -12 43 -20 7 -8 25 -20 38 -27 19 -10 21 -15 10 -18 -8 -3 -23 -11 -32
-20 -20 -16 -12 -34 23 -53 21 -11 72 -1 63 12 -3 5 2 12 11 15 21 8 87 -37
80 -55 -4 -9 0 -11 12 -6 21 9 36 9 78 0 27 -7 25 -4 -15 22 -274 179 -268
176 -254 151 4 -8 3 -10 -2 -5 -5 5 -9 14 -9 20 0 7 -8 11 -18 11 -9 -1 -15 2
-12 6 3 5 -22 25 -55 46 -45 28 -68 50 -91 90 -20 36 -39 56 -55 60 -14 4 -27
4 -30 1 -7 -6 -97 24 -142 47 -31 16 -32 16 -32 -4z m158 -57 c23 -4 37 -14
48 -35 15 -29 15 -30 -8 -23 -13 4 -36 14 -53 22 -28 13 -29 13 -10 -2 11 -8
37 -21 57 -27 21 -6 38 -15 38 -19 0 -5 -12 -4 -26 2 -15 5 -29 8 -31 5 -2 -2
11 -9 29 -15 18 -6 38 -19 45 -29 10 -17 8 -19 -19 -19 -27 0 -28 2 -14 12 15
12 15 13 0 19 -10 4 -22 2 -28 -4 -8 -8 -5 -9 9 -4 17 7 18 5 8 -7 -7 -9 -8
-20 -3 -29 5 -8 6 -18 3 -24 -4 -5 4 -2 18 7 13 9 30 17 39 17 8 0 1 -9 -16
-19 -43 -26 -51 -41 -18 -35 16 3 23 1 19 -6 -7 -12 -50 -7 -51 6 0 5 -8 27
-17 48 -13 30 -14 42 -6 53 9 11 9 12 -4 7 -12 -4 -22 6 -38 40 -12 26 -25 49
-30 52 -17 10 -9 26 9 19 9 -4 32 -9 50 -12z m82 -147 c0 -2 -7 -7 -16 -10 -8
-3 -12 -2 -9 4 6 10 25 14 25 6z m20 -36 c-13 -8 -13 -10 2 -10 10 0 22 -9 28
-20 11 -21 10 -22 -34 -25 l-30 -2 22 17 c18 15 19 19 6 24 -9 3 -21 3 -27 0
-7 -3 -3 2 7 10 11 9 25 16 30 16 6 0 4 -5 -4 -10z m313 -112 c48 -32 87 -61
87 -64 0 -5 -179 113 -195 129 -15 15 10 0 108 -65z m-65 -1 c-1 -2 3 -11 11
-20 11 -14 11 -18 -3 -23 -9 -3 -30 -1 -46 6 -29 12 -30 13 -11 26 11 8 27 11
37 7 13 -5 15 -3 9 8 -4 8 -5 11 -1 7 4 -3 6 -8 4 -11z"/>
<path d="M150 370 c8 -5 22 -9 30 -9 10 0 8 3 -5 9 -27 12 -43 12 -25 0z"/>
<path d="M1920 460 c0 -5 -7 -10 -17 -10 -9 0 -14 -3 -10 -6 8 -8 47 5 47 17
0 5 -4 9 -10 9 -5 0 -10 -4 -10 -10z"/>
<path d="M2907 449 c7 -7 15 -10 18 -7 3 3 -2 9 -12 12 -14 6 -15 5 -6 -5z"/>
<path d="M1970 440 c-13 -8 -12 -11 5 -24 11 -9 25 -15 30 -15 6 0 3 5 -6 12
-9 7 -14 18 -12 25 5 14 3 15 -17 2z"/>
<path d="M2841 405 c-1 -11 -4 -38 -7 -60 -6 -37 -5 -39 11 -24 14 14 15 23 7
60 -5 24 -10 35 -11 24z"/>
<path d="M601 382 c-6 -12 -6 -23 1 -33 8 -11 9 -11 4 3 -3 10 2 24 10 33 9 8
11 15 5 15 -6 0 -15 -8 -20 -18z"/>
<path d="M1790 396 c0 -2 7 -7 16 -10 8 -3 12 -2 9 4 -6 10 -25 14 -25 6z"/>
<path d="M412 371 c-62 -20 -64 -18 62 -90 l89 -52 56 19 c31 10 56 24 56 30
0 10 -190 114 -204 111 -3 -1 -30 -9 -59 -18z m78 -14 c0 -4 6 -5 13 -1 7 4 9
3 4 -2 -5 -5 -14 -9 -20 -9 -7 -1 -11 -6 -10 -12 1 -6 -4 -17 -13 -23 -12 -11
-13 -10 -8 5 6 14 4 16 -7 10 -8 -5 -5 2 6 15 l20 24 -26 -16 c-20 -13 -26
-14 -26 -3 0 8 4 12 8 9 4 -2 10 0 14 5 7 12 45 10 45 -2z m34 -19 c-5 -8 -2
-9 10 -5 11 5 15 3 10 -5 -5 -7 -2 -9 7 -6 8 3 25 0 38 -7 l24 -12 -24 -17
c-29 -20 -42 -20 -79 -1 -28 14 -41 58 -14 48 7 -2 15 0 19 6 3 6 8 11 11 11
3 0 2 -5 -2 -12z m103 -53 c0 -8 -4 -15 -9 -15 -17 0 -23 -2 -35 -12 -7 -6
-13 -6 -13 -2 0 7 42 39 56 44 0 0 1 -7 1 -15z"/>
<path d="M499 313 c-13 -16 -12 -17 4 -4 16 13 21 21 13 21 -2 0 -10 -8 -17
-17z"/>
<path d="M517 300 c-9 -12 -9 -13 2 -3 7 6 19 9 26 7 7 -3 15 -2 18 3 10 16
-34 9 -46 -7z"/>
<path d="M1837 378 c7 -8 10 -17 8 -20 -3 -3 7 -3 22 0 17 3 22 7 13 10 -8 3
-24 9 -35 15 -17 9 -18 8 -8 -5z"/>
<path d="M930 340 c-26 -28 -48 -32 -83 -15 -6 4 -4 0 6 -8 25 -21 21 -35 -15
-57 -18 -11 -27 -20 -20 -20 8 0 27 13 43 30 16 16 31 28 33 27 2 -1 21 15 41
36 20 20 33 37 29 37 -3 0 -18 -13 -34 -30z"/>
<path d="M1783 363 c4 -6 1 -14 -5 -16 -7 -3 3 -5 22 -5 19 0 28 2 20 5 -8 3
-21 11 -29 17 -11 8 -13 8 -8 -1z"/>
<path d="M1900 355 c0 -8 4 -15 8 -15 5 0 9 7 9 15 0 8 -4 15 -9 15 -4 0 -8
-7 -8 -15z"/>
<path d="M2330 350 c0 -10 10 -25 23 -31 12 -7 26 -18 30 -25 4 -8 17 -14 28
-14 11 0 18 -4 14 -9 -3 -6 5 -9 18 -8 25 2 60 31 50 40 -3 3 -12 -1 -20 -9
-14 -13 -67 -12 -82 2 -12 11 10 13 34 4 34 -13 45 -5 19 15 -17 13 -17 14 -1
15 9 0 17 5 17 10 0 6 -12 4 -29 -5 -40 -20 -95 -10 -88 16 3 11 1 19 -4 19
-5 0 -9 -9 -9 -20z"/>
<path d="M2963 344 c-3 -8 2 -23 11 -32 10 -10 16 -12 16 -4 0 7 -5 12 -11 12
-6 0 -9 9 -6 20 6 24 -1 27 -10 4z"/>
<path d="M1869 333 c-13 -16 -12 -17 4 -4 16 13 21 21 13 21 -2 0 -10 -8 -17
-17z"/>
<path d="M1930 346 c0 -2 8 -10 18 -17 15 -13 16 -12 3 4 -13 16 -21 21 -21
13z"/>
<path d="M2915 319 c-4 -6 -5 -12 -2 -15 2 -3 7 2 10 11 7 17 1 20 -8 4z"/>
<path d="M1775 311 c-6 -11 13 -26 22 -17 4 3 1 6 -6 6 -7 0 -9 5 -6 10 3 6 4
10 1 10 -3 0 -7 -4 -11 -9z"/>
<path d="M1830 298 c0 -4 9 -8 19 -8 11 0 22 4 25 8 2 4 -6 8 -20 8 -13 0 -24
-4 -24 -8z"/>
<path d="M18 268 c-10 -10 -14 -18 -9 -18 10 0 36 29 30 34 -2 1 -12 -6 -21
-16z"/>
<path d="M1925 281 c-3 -5 -2 -12 3 -15 5 -3 9 1 9 9 0 17 -3 19 -12 6z"/>
<path d="M1106 271 c-4 -5 3 -7 14 -4 23 6 26 13 6 13 -8 0 -17 -4 -20 -9z"/>
<path d="M2953 265 c0 -8 4 -12 9 -9 5 3 6 10 3 15 -9 13 -12 11 -12 -6z"/>
<path d="M2984 256 c1 -8 5 -18 8 -22 4 -3 5 1 4 10 -1 8 -5 18 -8 22 -4 3 -5
-1 -4 -10z"/>
<path d="M2431 238 c-26 -69 -41 -122 -36 -127 10 -9 21 17 34 75 7 30 17 52
22 49 5 -4 9 -2 9 4 0 21 -20 21 -29 -1z"/>
<path d="M633 227 c-35 -12 -63 -25 -63 -30 0 -5 7 -6 16 -3 8 3 13 2 10 -3
-3 -4 5 -13 17 -20 12 -7 35 -31 50 -54 40 -62 95 -117 117 -117 15 0 8 10
-29 45 -27 25 -61 63 -76 85 -15 22 -34 40 -41 40 -20 0 -28 21 -13 35 8 7 41
15 74 19 60 6 60 6 26 -9 -19 -9 -42 -13 -53 -10 -14 5 -18 1 -18 -15 0 -18 4
-21 23 -16 13 3 32 -1 43 -8 18 -13 28 -12 82 7 34 12 62 24 62 28 0 3 -21 15
-46 27 -25 12 -42 17 -38 11 4 -7 0 -9 -12 -6 -52 14 -74 13 -131 -6z m182
-13 c12 -10 14 -14 5 -12 -8 3 -29 -1 -47 -9 -18 -7 -42 -13 -55 -13 -17 0
-11 6 22 24 56 29 51 28 75 10z"/>
<path d="M2846 236 c3 -9 11 -16 16 -16 13 0 5 23 -10 28 -7 2 -10 -2 -6 -12z"/>
<path d="M2920 227 c-12 -21 -12 -21 6 -7 10 8 20 15 22 16 2 1 -1 4 -5 7 -5
3 -15 -4 -23 -16z"/>
<path d="M1192 232 c-15 -2 -22 -9 -18 -17 4 -10 -6 -15 -36 -17 -23 -2 -43
-8 -45 -15 -4 -12 9 -17 70 -28 l39 -6 -26 -24 c-33 -31 -33 -37 5 -80 17 -19
28 -35 25 -35 -4 0 -42 18 -86 40 -44 22 -84 40 -90 40 -6 0 -35 -14 -66 -31
-41 -23 -52 -35 -44 -43 16 -16 69 -16 63 1 -3 7 -9 13 -15 13 -5 0 -7 -4 -4
-8 2 -4 -5 -9 -16 -9 -24 -2 -23 -1 24 25 35 20 84 20 72 0 -3 -5 -12 -4 -20
3 -12 10 -17 9 -27 0 -9 -10 -8 -11 8 -5 17 7 18 6 7 -8 -8 -9 -9 -19 -4 -22
6 -3 15 1 22 9 9 11 16 12 26 4 7 -5 30 -12 51 -15 29 -3 34 -1 21 6 -10 6
-21 10 -24 10 -4 -1 -11 4 -15 12 -7 10 -9 10 -9 1 0 -7 -5 -13 -11 -13 -5 0
-8 4 -4 9 3 5 -5 17 -17 25 -12 9 -19 16 -15 16 10 0 111 -51 117 -59 3 -4 24
-8 47 -8 l41 -1 -39 39 c-21 21 -39 43 -39 47 0 5 11 19 24 31 19 18 31 21 55
16 17 -3 29 -12 28 -18 -2 -13 210 -123 220 -114 3 4 -42 29 -101 56 -58 27
-106 52 -106 55 0 9 114 -34 194 -75 22 -11 43 -16 48 -11 4 4 -40 28 -100 52
-59 24 -108 47 -110 51 -2 4 -9 6 -16 3 -7 -3 -25 0 -41 6 -27 10 -27 11 -10
30 11 12 32 21 54 21 39 2 27 4 -62 14 -80 9 -64 18 30 17 43 -1 74 1 68 3
-16 6 -118 11 -143 7z m48 -49 c13 -13 -33 -31 -58 -23 -15 5 -40 12 -57 16
-29 8 -29 8 15 15 43 6 90 3 100 -8z"/>
<path d="M0 223 c0 -4 5 -15 10 -23 8 -13 10 -13 10 2 0 9 -4 20 -10 23 -5 3
-10 3 -10 -2z"/>
<path d="M2683 215 c0 -8 4 -12 9 -9 5 3 6 10 3 15 -9 13 -12 11 -12 -6z"/>
<path d="M2885 220 c-3 -5 -1 -10 4 -10 6 0 11 5 11 10 0 6 -2 10 -4 10 -3 0
-8 -4 -11 -10z"/>
<path d="M2726 212 c-3 -5 1 -15 8 -21 11 -10 14 -9 12 3 -3 21 -13 29 -20 18z"/>
<path d="M1336 186 c-19 -30 -21 -50 -3 -43 6 2 29 10 50 18 20 7 37 17 37 21
0 14 -24 9 -57 -12 -36 -22 -42 -17 -16 12 9 10 14 20 11 23 -3 3 -13 -6 -22
-19z"/>
<path d="M2940 200 c8 -5 22 -9 30 -9 10 0 8 3 -5 9 -27 12 -43 12 -25 0z"/>
<path d="M2459 183 c-12 -14 -12 -16 0 -8 10 6 13 4 9 -6 -7 -17 18 -43 27
-29 3 6 1 10 -6 10 -6 0 -9 8 -6 20 7 26 -7 34 -24 13z"/>
<path d="M2853 185 c0 -8 4 -12 9 -9 5 3 6 10 3 15 -9 13 -12 11 -12 -6z"/>
<path d="M2706 173 c-6 -14 -5 -15 5 -6 7 7 10 15 7 18 -3 3 -9 -2 -12 -12z"/>
<path d="M2650 176 c0 -2 7 -6 15 -10 8 -3 15 -1 15 4 0 6 -7 10 -15 10 -8 0
-15 -2 -15 -4z"/>
<path d="M2893 173 c-7 -2 -13 -9 -13 -15 0 -7 5 -6 14 1 18 15 29 -11 13 -30
-10 -11 -9 -11 5 0 14 10 15 18 7 32 -5 10 -11 19 -12 18 -1 0 -8 -3 -14 -6z"/>
<path d="M2613 154 c0 -7 5 -10 10 -7 5 3 13 0 17 -7 4 -7 10 -8 13 -3 4 6 -4
15 -17 21 -18 8 -23 7 -23 -4z"/>
<path d="M2755 160 c-7 -11 22 -26 32 -16 4 3 -2 6 -13 6 -16 0 -17 2 -4 10 9
6 10 10 3 10 -6 0 -15 -5 -18 -10z"/>
<path d="M2984 162 c3 -6 -2 -15 -11 -21 -16 -9 -16 -10 -2 -11 20 0 33 27 17
36 -6 4 -8 3 -4 -4z"/>
<path d="M111 134 c0 -11 3 -14 6 -6 3 7 2 16 -1 19 -3 4 -6 -2 -5 -13z"/>
<path d="M2684 142 c-6 -4 -16 -17 -23 -29 -8 -17 -8 -23 1 -29 7 -4 10 -4 6
1 -4 4 2 21 13 36 21 30 22 34 3 21z"/>
<path d="M163 111 c-6 -14 -15 -37 -19 -51 -4 -14 -14 -30 -23 -37 -14 -10
-13 -11 7 -6 12 3 22 1 22 -4 0 -5 7 -10 14 -10 11 0 13 5 5 19 -5 10 -7 34
-3 54 6 34 7 35 26 17 11 -10 23 -17 27 -16 3 0 5 -3 4 -7 -3 -10 39 -40 78
-57 26 -11 27 -11 16 16 -7 18 -33 41 -77 67 l-67 40 -10 -25z m117 -71 c8 -5
11 -10 5 -10 -5 0 -21 10 -35 21 -24 20 -5 13 30 -11z"/>
<path d="M720 120 c0 -6 7 -13 15 -16 8 -4 12 -10 9 -15 -3 -5 1 -9 8 -9 7 0
31 -18 53 -40 22 -21 46 -39 53 -40 8 0 -12 24 -44 53 -72 66 -94 82 -94 67z"/>
<path d="M2717 119 c7 -7 15 -10 18 -7 3 3 -2 9 -12 12 -14 6 -15 5 -6 -5z"/>
<path d="M2433 105 c0 -8 6 -15 13 -15 8 0 11 6 8 15 -4 8 -9 15 -13 15 -4 0
-8 -7 -8 -15z"/>
<path d="M2770 107 c0 -10 6 -16 13 -14 6 1 11 -6 11 -15 -1 -14 2 -15 17 -5
10 6 15 15 12 20 -3 4 -8 6 -11 3 -3 -3 -14 1 -24 11 -17 15 -18 15 -18 0z"/>
<path d="M2948 108 c5 -5 16 -8 23 -6 8 3 3 7 -10 11 -17 4 -21 3 -13 -5z"/>
<path d="M2506 95 c4 -8 1 -22 -6 -30 -10 -12 -10 -15 1 -15 9 0 10 -3 2 -11
-15 -15 -94 11 -90 31 1 10 -8 16 -27 18 -18 2 -26 0 -21 -7 3 -6 13 -11 21
-11 8 0 14 -5 14 -10 0 -6 12 -15 28 -21 15 -6 39 -16 55 -24 24 -12 27 -12
28 3 3 41 7 61 12 76 4 10 1 16 -8 16 -9 0 -12 -6 -9 -15z"/>
<path d="M2695 100 c-3 -5 -1 -10 4 -10 6 0 11 5 11 10 0 6 -2 10 -4 10 -3 0
-8 -4 -11 -10z"/>
<path d="M2896 102 c-3 -5 1 -9 9 -9 8 0 12 4 9 9 -3 4 -7 8 -9 8 -2 0 -6 -4
-9 -8z"/>
<path d="M2600 80 c-6 -11 -16 -19 -23 -17 -7 1 -13 -12 -15 -33 -2 -26 0 -31
8 -20 7 11 10 12 10 2 0 -9 11 -12 32 -10 24 2 34 9 36 23 3 19 2 19 -11 3
-20 -26 -37 -22 -37 8 0 27 6 28 53 9 13 -6 16 -3 11 9 -3 9 -10 16 -14 16 -5
0 -15 7 -24 15 -13 14 -16 13 -26 -5z"/>
<path d="M2716 84 c-9 -24 -2 -26 12 -4 7 11 8 20 3 20 -5 0 -12 -7 -15 -16z"/>
<path d="M1546 81 c-3 -5 0 -11 7 -14 8 -3 14 1 14 9 0 16 -13 19 -21 5z"/>
<path d="M2746 82 c-3 -5 1 -9 9 -9 8 0 12 4 9 9 -3 4 -7 8 -9 8 -2 0 -6 -4
-9 -8z"/>
<path d="M2845 79 c-4 -6 -5 -12 -2 -15 2 -3 7 2 10 11 7 17 1 20 -8 4z"/>
<path d="M2933 73 c9 -2 23 -2 30 0 6 3 -1 5 -18 5 -16 0 -22 -2 -12 -5z"/>
<path d="M170 63 c0 -13 57 -63 72 -63 6 0 9 1 7 3 -2 1 -21 18 -42 36 -20 19
-37 30 -37 24z"/>
<path d="M355 51 c-4 -13 -1 -28 6 -37 11 -14 14 -13 21 7 6 16 4 27 -6 37
-12 12 -15 11 -21 -7z m25 -10 c0 -6 -4 -13 -10 -16 -5 -3 -10 1 -10 9 0 9 5
16 10 16 6 0 10 -4 10 -9z"/>
<path d="M394 61 c4 -6 16 -16 28 -22 15 -8 18 -8 14 0 -4 6 -16 16 -28 22
-15 8 -18 8 -14 0z"/>
<path d="M2862 50 c0 -14 2 -19 5 -12 2 6 2 18 0 25 -3 6 -5 1 -5 -13z"/>
<path d="M2737 49 c7 -7 15 -10 18 -7 3 3 -2 9 -12 12 -14 6 -15 5 -6 -5z"/>
<path d="M2950 51 c0 -4 11 -13 25 -19 19 -9 23 -9 19 2 -6 15 -44 29 -44 17z"/>
<path d="M2835 21 c-3 -5 -2 -12 3 -15 5 -3 9 1 9 9 0 17 -3 19 -12 6z"/>
<path d="M2767 9 c7 -7 15 -10 18 -7 3 3 -2 9 -12 12 -14 6 -15 5 -6 -5z"/>
<path d="M2918 13 c7 -3 16 -2 19 1 4 3 -2 6 -13 5 -11 0 -14 -3 -6 -6z"/>
</g>
</svg>
