<?xml version="1.0" encoding="utf-8"?>
<svg width="644" height="679" viewBox="0 0 644 679" fill="none" xmlns="http://www.w3.org/2000/svg">
  <g>
    <rect width="644" height="679" fill="#DCDCDC" fill-rule="evenodd" />
    <g transform="translate(163 218)">
      <g transform="translate(0 2)">
        <rect width="16" height="16" rx="4" fill="#00BCD4" fill-rule="evenodd" />
        <path d="M1.70711 2.29289C1.31658 1.90237 0.683418 1.90237 0.292893 2.29289C-0.097631 2.68342 -0.097631 3.31658 0.292893 3.70711L2.29289 5.70711C2.68342 6.09763 3.31658 6.09763 3.70711 5.70711L7.70711 1.70711C8.09763 1.31658 8.09763 0.683418 7.70711 0.292893C7.31658 -0.097631 6.68342 -0.097631 6.29289 0.292893L3 3.58579L1.70711 2.29289L1.70711 2.29289Z" fill="#FFFFFF" fill-rule="evenodd" transform="translate(4 5)" />
      </g>
      <path d="M6.80176 5.92676Q6.71289 5.17139 6.07373 4.75439Q5.43799 4.33398 4.51514 4.33398Q3.5 4.33398 2.88135 4.81592Q2.26611 5.29443 2.26611 6.02588Q2.26611 6.57275 2.60107 6.90771Q2.93945 7.24268 3.39746 7.43066Q3.85889 7.61523 4.23486 7.71436L5.27051 7.99463Q5.66699 8.09717 6.15576 8.28174Q6.64795 8.46631 7.0957 8.78418Q7.54688 9.09863 7.84082 9.59082Q8.13477 10.083 8.13477 10.7974Q8.13477 11.6245 7.7041 12.291Q7.27344 12.9575 6.44971 13.3506Q5.62939 13.7402 4.45361 13.7402Q2.81299 13.7402 1.84912 12.9678Q0.885254 12.1919 0.796387 10.9375L2.06787 10.9375Q2.11914 11.5151 2.45752 11.8911Q2.79932 12.2637 3.32227 12.4482Q3.84863 12.6294 4.45361 12.6294Q5.16113 12.6294 5.72168 12.397Q6.28564 12.1646 6.61377 11.751Q6.94189 11.334 6.94189 10.7769Q6.94189 10.271 6.6582 9.95312Q6.37451 9.63525 5.90967 9.43701Q5.44824 9.23877 4.91162 9.08838L3.66064 8.72949Q2.46436 8.3877 1.76709 7.75195Q1.07324 7.11279 1.07324 6.08398Q1.07324 5.22949 1.53809 4.59033Q2.00293 3.95117 2.78906 3.5957Q3.57861 3.24023 4.55273 3.24023Q5.53711 3.24023 6.30273 3.59229Q7.06836 3.94092 7.51953 4.54932Q7.9707 5.1543 7.99463 5.92676L6.80176 5.92676ZM13.0257 13.7231Q11.9525 13.7231 11.1766 13.2173Q10.4007 12.708 9.98032 11.8193Q9.56333 10.9272 9.56333 9.78564Q9.56333 8.62012 9.994 7.72803Q10.4247 6.83594 11.1971 6.3335Q11.9696 5.82764 13.0052 5.82764Q13.8119 5.82764 14.4579 6.125Q15.1039 6.42236 15.514 6.95898Q15.9276 7.49561 16.0267 8.21338L14.8543 8.21338Q14.721 7.69043 14.2596 7.28711Q13.8016 6.88037 13.0257 6.88037Q11.9969 6.88037 11.368 7.66309Q10.7391 8.4458 10.7391 9.74463Q10.7391 11.0708 11.3578 11.8706Q11.9798 12.667 13.0257 12.667Q13.7127 12.667 14.2015 12.3149Q14.6903 11.9629 14.8543 11.334L16.0267 11.334Q15.9276 12.0107 15.5379 12.5508Q15.1483 13.0908 14.5091 13.4087Q13.87 13.7231 13.0257 13.7231ZM18.8299 8.96875L18.8299 13.5625L17.6576 13.5625L17.6576 3.38037L18.8299 3.38037L18.8299 7.11963L18.9325 7.11963Q19.1991 6.52832 19.7391 6.17969Q20.2791 5.82764 21.1781 5.82764Q22.3504 5.82764 23.0648 6.53516Q23.7826 7.23926 23.7826 8.70898L23.7826 13.5625L22.6102 13.5625L22.6102 8.79102Q22.6102 7.87842 22.1385 7.37939Q21.6703 6.88037 20.8397 6.88037Q19.9715 6.88037 19.4007 7.42725Q18.8299 7.9707 18.8299 8.96875ZM28.9538 13.7231Q27.9182 13.7231 27.1389 13.231Q26.363 12.7388 25.9255 11.8535Q25.4914 10.9683 25.4914 9.78564Q25.4914 8.58936 25.9255 7.70068Q26.363 6.81201 27.1389 6.31982Q27.9182 5.82764 28.9538 5.82764Q29.986 5.82764 30.7653 6.31982Q31.5446 6.81201 31.9787 7.70068Q32.4128 8.58936 32.4128 9.78564Q32.4128 10.9683 31.9787 11.8535Q31.5446 12.7388 30.7653 13.231Q29.986 13.7231 28.9538 13.7231ZM28.9538 12.667Q29.7399 12.667 30.2458 12.2671Q30.7517 11.8638 30.9943 11.2075Q31.2404 10.5513 31.2404 9.78564Q31.2404 9.02002 30.9943 8.36035Q30.7517 7.69727 30.2458 7.29053Q29.7399 6.88037 28.9538 6.88037Q28.1677 6.88037 27.6584 7.29053Q27.1525 7.69727 26.9099 8.36035Q26.6672 9.02002 26.6672 9.78564Q26.6672 10.5513 26.9099 11.2075Q27.1525 11.8638 27.6584 12.2671Q28.1677 12.667 28.9538 12.667ZM37.2261 13.7231Q36.1904 13.7231 35.4111 13.231Q34.6353 12.7388 34.1978 11.8535Q33.7637 10.9683 33.7637 9.78564Q33.7637 8.58936 34.1978 7.70068Q34.6353 6.81201 35.4111 6.31982Q36.1904 5.82764 37.2261 5.82764Q38.2583 5.82764 39.0376 6.31982Q39.8169 6.81201 40.251 7.70068Q40.6851 8.58936 40.6851 9.78564Q40.6851 10.9683 40.251 11.8535Q39.8169 12.7388 39.0376 13.231Q38.2583 13.7231 37.2261 13.7231ZM37.2261 12.667Q38.0122 12.667 38.5181 12.2671Q39.0239 11.8638 39.2666 11.2075Q39.5127 10.5513 39.5127 9.78564Q39.5127 9.02002 39.2666 8.36035Q39.0239 7.69727 38.5181 7.29053Q38.0122 6.88037 37.2261 6.88037Q36.4399 6.88037 35.9307 7.29053Q35.4248 7.69727 35.1821 8.36035Q34.9395 9.02002 34.9395 9.78564Q34.9395 10.5513 35.1821 11.2075Q35.4248 11.8638 35.9307 12.2671Q36.4399 12.667 37.2261 12.667ZM43.5672 3.38037L43.5672 13.5625L42.3948 13.5625L42.3948 3.38037L43.5672 3.38037ZM51.0465 7.63574L49.9904 7.93311Q49.8365 7.53662 49.4742 7.18799Q49.1119 6.83936 48.3395 6.83936Q47.6388 6.83936 47.1739 7.16064Q46.7091 7.48193 46.7091 7.97412Q46.7091 8.41162 47.027 8.66455Q47.3483 8.91748 48.0216 9.08838L49.1564 9.36523Q51.1832 9.86426 51.1832 11.4331Q51.1832 12.0894 50.8072 12.6089Q50.4347 13.125 49.7613 13.4258Q49.0914 13.7231 48.2028 13.7231Q47.0338 13.7231 46.2682 13.2173Q45.5026 12.708 45.2975 11.7339L46.4117 11.4536Q46.7262 12.6875 48.1822 12.6875Q49.0026 12.6875 49.4879 12.3389Q49.9733 11.9868 49.9733 11.4946Q49.9733 10.6846 48.8385 10.4214L47.567 10.1206Q46.5177 9.87451 46.0255 9.35156Q45.5367 8.8252 45.5367 8.03564Q45.5367 7.38623 45.9025 6.89062Q46.2682 6.39502 46.9005 6.11133Q47.5363 5.82764 48.3395 5.82764Q49.4742 5.82764 50.1237 6.32666Q50.7731 6.82227 51.0465 7.63574ZM56.8922 13.5625L56.8922 3.38037L60.3307 3.38037Q61.5304 3.38037 62.2926 3.81104Q63.0548 4.2417 63.4239 4.97314Q63.7931 5.70117 63.7931 6.60352Q63.7931 7.50244 63.4273 8.2373Q63.0616 8.97217 62.2994 9.40967Q61.5406 9.84375 60.3512 9.84375L58.1227 9.84375L58.1227 13.5625L56.8922 13.5625ZM58.1227 8.75L60.3102 8.75Q61.5406 8.75 62.0602 8.13477Q62.5797 7.51611 62.5797 6.60352Q62.5797 5.68408 62.0567 5.0791Q61.5338 4.47412 60.2931 4.47412L58.1227 4.47412L58.1227 8.75ZM65.5407 13.5625L65.5407 5.92676L66.7131 5.92676L66.7131 13.5625L65.5407 13.5625ZM66.1389 4.65186Q65.7937 4.65186 65.5476 4.41943Q65.3015 4.18701 65.3015 3.85889Q65.3015 3.53076 65.5476 3.29834Q65.7937 3.0625 66.1389 3.0625Q66.4807 3.0625 66.7268 3.29834Q66.9729 3.53076 66.9729 3.85889Q66.9729 4.18701 66.7268 4.41943Q66.4807 4.65186 66.1389 4.65186ZM71.8853 13.7231Q70.812 13.7231 70.0362 13.2173Q69.2603 12.708 68.8399 11.8193Q68.4229 10.9272 68.4229 9.78564Q68.4229 8.62012 68.8535 7.72803Q69.2842 6.83594 70.0567 6.3335Q70.8291 5.82764 71.8648 5.82764Q72.6714 5.82764 73.3174 6.125Q73.9634 6.42236 74.3736 6.95898Q74.7871 7.49561 74.8863 8.21338L73.7139 8.21338Q73.5806 7.69043 73.1192 7.28711Q72.6612 6.88037 71.8853 6.88037Q70.8565 6.88037 70.2276 7.66309Q69.5987 8.4458 69.5987 9.74463Q69.5987 11.0708 70.2173 11.8706Q70.8394 12.667 71.8853 12.667Q72.5723 12.667 73.0611 12.3149Q73.5498 11.9629 73.7139 11.334L74.8863 11.334Q74.7871 12.0107 74.3975 12.5508Q74.0078 13.0908 73.3687 13.4087Q72.7295 13.7231 71.8853 13.7231ZM76.5171 13.5625L76.5171 3.38037L77.6895 3.38037L77.6895 9.32764L77.8296 9.32764L81.1724 5.92676L82.6216 5.92676L79.395 9.1875L82.8609 13.5625L81.3706 13.5625L78.5098 9.94287L77.6895 10.7051L77.6895 13.5625L76.5171 13.5625ZM94.7539 3.38037L95.9843 3.38037L95.9843 10.1206Q95.9843 11.1665 95.4956 11.9834Q95.0068 12.8003 94.1147 13.272Q93.226 13.7402 92.0297 13.7402Q90.83 13.7402 89.9379 13.272Q89.0493 12.8003 88.5605 11.9834Q88.0717 11.1665 88.0717 10.1206L88.0717 3.38037L89.3022 3.38037L89.3022 10.0215Q89.3022 11.1426 90.0268 11.8672Q90.7548 12.5884 92.0297 12.5884Q93.3046 12.5884 94.0293 11.8672Q94.7539 11.1426 94.7539 10.0215L94.7539 3.38037ZM98.2118 16.4268L98.2118 5.92676L99.3465 5.92676L99.3465 7.14014L99.4867 7.14014Q99.6131 6.94189 99.8456 6.63086Q100.078 6.31982 100.512 6.07373Q100.946 5.82764 101.691 5.82764Q102.659 5.82764 103.393 6.30957Q104.128 6.7915 104.542 7.67676Q104.955 8.56201 104.955 9.76514Q104.955 10.9785 104.542 11.8672Q104.128 12.7524 103.397 13.2378Q102.665 13.7231 101.712 13.7231Q100.977 13.7231 100.533 13.4771Q100.092 13.231 99.8524 12.9165Q99.6131 12.5986 99.4867 12.3901L99.3841 12.3901L99.3841 16.4268L98.2118 16.4268ZM99.367 9.74463Q99.367 11.0435 99.931 11.8569Q100.495 12.667 101.555 12.667Q102.289 12.667 102.782 12.2773Q103.277 11.8877 103.527 11.2246Q103.78 10.5581 103.78 9.74463Q103.78 8.93799 103.534 8.29199Q103.287 7.64258 102.792 7.26318Q102.3 6.88037 101.555 6.88037Q100.478 6.88037 99.9208 7.67334Q99.367 8.46289 99.367 9.74463ZM112.77 13.7402Q112.042 13.7402 111.45 13.4668Q110.859 13.1899 110.51 12.667Q110.162 12.1406 110.162 11.3955Q110.162 10.7393 110.421 10.3291Q110.681 9.91895 111.112 9.68652Q111.546 9.45068 112.069 9.33447Q112.595 9.21826 113.125 9.14648Q113.822 9.05762 114.256 9.01318Q114.694 8.96533 114.892 8.85254Q115.094 8.73633 115.094 8.45264L115.094 8.41162Q115.094 7.67676 114.694 7.27002Q114.294 6.85986 113.484 6.85986Q112.643 6.85986 112.165 7.229Q111.689 7.59814 111.495 8.01514L110.38 7.61523Q110.681 6.92139 111.18 6.53174Q111.679 6.13867 112.274 5.98486Q112.869 5.82764 113.443 5.82764Q113.812 5.82764 114.291 5.9165Q114.772 6.00195 115.22 6.27197Q115.671 6.53857 115.969 7.08203Q116.27 7.62207 116.27 8.53125L116.27 13.5625L115.094 13.5625L115.094 12.5269L115.036 12.5269Q114.916 12.7764 114.636 13.0601Q114.359 13.3438 113.897 13.542Q113.436 13.7402 112.77 13.7402ZM112.947 12.6875Q113.645 12.6875 114.123 12.4141Q114.602 12.1406 114.848 11.71Q115.094 11.2759 115.094 10.7974L115.094 9.72412Q115.022 9.81299 114.769 9.88477Q114.52 9.95654 114.191 10.0112Q113.867 10.0625 113.559 10.1001Q113.255 10.1377 113.067 10.1616Q112.609 10.2231 112.212 10.3564Q111.819 10.4863 111.577 10.7461Q111.337 11.0059 111.337 11.4536Q111.337 12.0654 111.792 12.3765Q112.247 12.6875 112.947 12.6875ZM121.658 5.92676L121.658 6.92139L120.027 6.92139L120.027 11.375Q120.027 11.8706 120.174 12.1167Q120.321 12.3628 120.55 12.4448Q120.783 12.5269 121.039 12.5269Q121.234 12.5269 121.357 12.5063Q121.483 12.4824 121.559 12.4688L121.798 13.5215Q121.678 13.5659 121.463 13.6138Q121.251 13.6616 120.923 13.6616Q120.424 13.6616 119.949 13.4497Q119.474 13.2344 119.163 12.7969Q118.852 12.3594 118.852 11.6929L118.852 6.92139L117.7 6.92139L117.7 5.92676L118.852 5.92676L118.852 4.09814L120.027 4.09814L120.027 5.92676L121.658 5.92676ZM131.261 3.38037L132.495 3.38037L132.495 10.6606Q132.495 12.127 131.705 12.9165Q130.919 13.7026 129.59 13.7026Q128.756 13.7026 128.103 13.3984Q127.453 13.0908 127.081 12.5234Q126.708 11.9561 126.708 11.1768L127.922 11.1768Q127.922 11.8228 128.393 12.2158Q128.865 12.6089 129.59 12.6089Q130.393 12.6089 130.827 12.1099Q131.261 11.6074 131.261 10.6606L131.261 3.38037ZM134.881 13.5625L134.881 3.38037L138.32 3.38037Q139.512 3.38037 140.278 3.78711Q141.044 4.19043 141.413 4.89795Q141.782 5.60205 141.782 6.50439Q141.782 7.51611 141.317 8.27148Q140.852 9.02344 139.878 9.35498L142.178 13.5625L140.746 13.5625L138.6 9.58057Q138.473 9.58398 138.34 9.58398L136.112 9.58398L136.112 13.5625L134.881 13.5625ZM136.112 8.47314L138.299 8.47314Q139.523 8.47314 140.046 7.94678Q140.569 7.41699 140.569 6.50439Q140.569 5.58154 140.042 5.02783Q139.519 4.47412 138.282 4.47412L136.112 4.47412L136.112 8.47314ZM144.98 3.38037L144.98 13.5625L143.75 13.5625L143.75 3.38037L144.98 3.38037ZM155.441 7.92627L155.441 9.02002L150.987 9.02002L150.987 7.92627L155.441 7.92627ZM164.588 13.7026Q162.903 13.7026 161.973 12.3354Q161.047 10.9683 161.047 8.47314Q161.047 5.99512 161.98 4.61768Q162.917 3.24023 164.588 3.24023Q166.259 3.24023 167.193 4.61768Q168.129 5.99512 168.129 8.47314Q168.129 10.9683 167.199 12.3354Q166.273 13.7026 164.588 13.7026ZM164.588 12.6089Q165.702 12.6089 166.318 11.5356Q166.936 10.459 166.936 8.47314Q166.936 6.4873 166.314 5.40381Q165.692 4.31689 164.588 4.31689Q163.484 4.31689 162.862 5.40381Q162.24 6.4873 162.24 8.47314Q162.24 10.459 162.859 11.5356Q163.481 12.6089 164.588 12.6089ZM169.7 11.4741L169.7 10.459L174.174 3.38037L175.664 3.38037L175.664 10.3804L177.055 10.3804L177.055 11.4741L175.664 11.4741L175.664 13.5625L174.492 13.5625L174.492 11.4741L169.7 11.4741ZM174.492 10.3804L174.492 4.95264L174.41 4.95264L171.03 10.3018L171.03 10.3804L174.492 10.3804ZM182.464 2.90186L179.183 15.0938L178.11 15.0938L181.391 2.90186L182.464 2.90186ZM187.078 13.7026Q185.393 13.7026 184.463 12.3354Q183.537 10.9683 183.537 8.47314Q183.537 5.99512 184.47 4.61768Q185.407 3.24023 187.078 3.24023Q188.75 3.24023 189.683 4.61768Q190.619 5.99512 190.619 8.47314Q190.619 10.9683 189.689 12.3354Q188.763 13.7026 187.078 13.7026ZM187.078 12.6089Q188.192 12.6089 188.808 11.5356Q189.426 10.459 189.426 8.47314Q189.426 6.4873 188.804 5.40381Q188.182 4.31689 187.078 4.31689Q185.974 4.31689 185.352 5.40381Q184.73 6.4873 184.73 8.47314Q184.73 10.459 185.349 11.5356Q185.971 12.6089 187.078 12.6089ZM195.868 13.7026Q194.883 13.7026 194.114 13.3643Q193.345 13.0259 192.894 12.4209Q192.446 11.8159 192.409 11.0161L193.66 11.0161Q193.714 11.7544 194.337 12.1816Q194.962 12.6089 195.847 12.6089Q196.828 12.6089 197.461 12.1099Q198.096 11.6074 198.096 10.7974Q198.096 9.95312 197.471 9.42334Q196.845 8.89014 195.69 8.89014L194.873 8.89014L194.873 7.79639L195.69 7.79639Q196.592 7.79639 197.163 7.31445Q197.737 6.83252 197.737 6.02588Q197.737 5.25342 197.235 4.78516Q196.733 4.31689 195.888 4.31689Q195.362 4.31689 194.897 4.5083Q194.432 4.69971 194.138 5.05859Q193.844 5.41748 193.82 5.92676L192.628 5.92676Q192.655 5.12695 193.106 4.52197Q193.561 3.91699 194.292 3.57861Q195.027 3.24023 195.909 3.24023Q196.852 3.24023 197.529 3.62305Q198.206 4.00244 198.568 4.62451Q198.93 5.24658 198.93 5.96436Q198.93 6.82568 198.479 7.43408Q198.031 8.03906 197.259 8.27148L197.259 8.35352Q198.223 8.51074 198.763 9.17041Q199.306 9.83008 199.306 10.7974Q199.306 11.6279 198.855 12.2876Q198.407 12.9473 197.631 13.3267Q196.856 13.7026 195.868 13.7026ZM204.875 2.90186L201.593 15.0938L200.52 15.0938L203.801 2.90186L204.875 2.90186ZM206.166 13.5625L206.166 12.667L209.53 8.98926Q210.121 8.34326 210.504 7.86475Q210.887 7.38281 211.071 6.95898Q211.259 6.53174 211.259 6.06689Q211.259 5.26025 210.699 4.78857Q210.142 4.31689 209.311 4.31689Q208.426 4.31689 207.903 4.84668Q207.38 5.37305 207.38 6.24463L206.207 6.24463Q206.207 5.34912 206.618 4.67236Q207.031 3.99561 207.746 3.61963Q208.46 3.24023 209.349 3.24023Q210.244 3.24023 210.935 3.61963Q211.625 3.99561 212.018 4.63818Q212.411 5.28076 212.411 6.06689Q212.411 6.62744 212.209 7.16406Q212.008 7.69727 211.512 8.3501Q211.02 9.00293 210.145 9.94287L207.858 12.3901L207.858 12.4688L212.592 12.4688L212.592 13.5625L206.166 13.5625ZM217.88 13.7026Q216.195 13.7026 215.266 12.3354Q214.339 10.9683 214.339 8.47314Q214.339 5.99512 215.272 4.61768Q216.209 3.24023 217.88 3.24023Q219.552 3.24023 220.485 4.61768Q221.421 5.99512 221.421 8.47314Q221.421 10.9683 220.492 12.3354Q219.565 13.7026 217.88 13.7026ZM217.88 12.6089Q218.995 12.6089 219.61 11.5356Q220.228 10.459 220.228 8.47314Q220.228 6.4873 219.606 5.40381Q218.984 4.31689 217.88 4.31689Q216.776 4.31689 216.154 5.40381Q215.532 6.4873 215.532 8.47314Q215.532 10.459 216.151 11.5356Q216.773 12.6089 217.88 12.6089ZM223.228 13.5625L223.228 12.667L226.591 8.98926Q227.183 8.34326 227.565 7.86475Q227.948 7.38281 228.133 6.95898Q228.321 6.53174 228.321 6.06689Q228.321 5.26025 227.76 4.78857Q227.203 4.31689 226.373 4.31689Q225.487 4.31689 224.964 4.84668Q224.441 5.37305 224.441 6.24463L223.269 6.24463Q223.269 5.34912 223.679 4.67236Q224.093 3.99561 224.807 3.61963Q225.522 3.24023 226.41 3.24023Q227.306 3.24023 227.996 3.61963Q228.687 3.99561 229.08 4.63818Q229.473 5.28076 229.473 6.06689Q229.473 6.62744 229.271 7.16406Q229.069 7.69727 228.574 8.3501Q228.082 9.00293 227.207 9.94287L224.92 12.3901L224.92 12.4688L229.654 12.4688L229.654 13.5625L223.228 13.5625ZM234.802 13.7026Q233.927 13.7026 233.226 13.354Q232.525 13.0054 232.102 12.4004Q231.681 11.792 231.64 11.0161L232.833 11.0161Q232.905 11.7065 233.462 12.1577Q234.022 12.6089 234.802 12.6089Q235.431 12.6089 235.919 12.3149Q236.408 12.021 236.688 11.5083Q236.969 10.9922 236.969 10.3394Q236.969 9.67627 236.678 9.15332Q236.388 8.62695 235.882 8.32275Q235.376 8.01855 234.723 8.01514Q234.255 8.0083 233.763 8.15527Q233.271 8.30225 232.953 8.53125L231.801 8.39111L232.416 3.38037L237.707 3.38037L237.707 4.47412L233.452 4.47412L233.093 7.47852L233.151 7.47852Q233.465 7.229 233.937 7.06494Q234.409 6.90088 234.921 6.90088Q235.858 6.90088 236.589 7.34521Q237.324 7.78955 237.745 8.56201Q238.165 9.33105 238.165 10.3223Q238.165 11.2964 237.728 12.0586Q237.293 12.8208 236.531 13.2617Q235.772 13.7026 234.802 13.7026Z" transform="translate(24 2)" fill="#000000" />
    </g>
    <g transform="translate(163 148)">
      <g transform="translate(0 2)">
        <rect width="16" height="16" rx="4" fill="#00BCD4" fill-rule="evenodd" />
        <path d="M1.70711 2.29289C1.31658 1.90237 0.683418 1.90237 0.292893 2.29289C-0.097631 2.68342 -0.097631 3.31658 0.292893 3.70711L2.29289 5.70711C2.68342 6.09763 3.31658 6.09763 3.70711 5.70711L7.70711 1.70711C8.09763 1.31658 8.09763 0.683418 7.70711 0.292893C7.31658 -0.097631 6.68342 -0.097631 6.29289 0.292893L3 3.58579L1.70711 2.29289L1.70711 2.29289Z" fill="#FFFFFF" fill-rule="evenodd" transform="translate(4 5)" />
      </g>
      <path d="M4.375 13.5625L1.23389 13.5625L1.23389 3.38037L4.51514 3.38037Q5.99512 3.38037 7.04785 3.98877Q8.104 4.59717 8.66455 5.73535Q9.22852 6.87012 9.22852 8.45264Q9.22852 10.042 8.66113 11.1904Q8.09375 12.3354 7.01025 12.9507Q5.92676 13.5625 4.375 13.5625ZM2.46436 12.4688L4.29639 12.4688Q6.18994 12.4688 7.11279 11.3921Q8.03564 10.3154 8.03564 8.45264Q8.03564 6.60352 7.12988 5.54053Q6.22412 4.47412 4.43311 4.47412L2.46436 4.47412L2.46436 12.4688ZM14.2584 13.7231Q13.1544 13.7231 12.3546 13.2344Q11.5582 12.7422 11.1275 11.8604Q10.6969 10.9785 10.6969 9.80273Q10.6969 8.63037 11.1275 7.73486Q11.5582 6.83594 12.3306 6.3335Q13.1031 5.82764 14.1388 5.82764Q14.7369 5.82764 15.3179 6.02588Q15.899 6.22412 16.3741 6.66846Q16.8526 7.11279 17.1363 7.84424Q17.42 8.57568 17.42 9.64551L17.42 10.1411L11.8761 10.1411Q11.9171 11.3647 12.5699 12.0176Q13.2227 12.667 14.2584 12.667Q14.9488 12.667 15.4444 12.3696Q15.9434 12.0723 16.1656 11.4741L17.3004 11.792Q17.0338 12.6567 16.2271 13.1899Q15.4205 13.7231 14.2584 13.7231ZM11.8761 9.12939L16.2271 9.12939Q16.2271 8.15869 15.6597 7.51953Q15.0924 6.88037 14.1388 6.88037Q13.4688 6.88037 12.9766 7.19482Q12.4845 7.50586 12.2008 8.02197Q11.9171 8.53467 11.8761 9.12939ZM20.3015 3.38037L20.3015 13.5625L19.1292 13.5625L19.1292 3.38037L20.3015 3.38037ZM22.3702 13.5625L22.3702 5.92676L23.5425 5.92676L23.5425 13.5625L22.3702 13.5625ZM22.9683 4.65186Q22.6231 4.65186 22.377 4.41943Q22.1309 4.18701 22.1309 3.85889Q22.1309 3.53076 22.377 3.29834Q22.6231 3.0625 22.9683 3.0625Q23.3101 3.0625 23.5562 3.29834Q23.8023 3.53076 23.8023 3.85889Q23.8023 4.18701 23.5562 4.41943Q23.3101 4.65186 22.9683 4.65186ZM31.8558 5.92676L29.0326 13.5625L27.8397 13.5625L25.0165 5.92676L26.288 5.92676L28.3968 12.0107L28.4755 12.0107L30.5843 5.92676L31.8558 5.92676ZM36.2509 13.7231Q35.1469 13.7231 34.3471 13.2344Q33.5507 12.7422 33.12 11.8604Q32.6894 10.9785 32.6894 9.80273Q32.6894 8.63037 33.12 7.73486Q33.5507 6.83594 34.3231 6.3335Q35.0956 5.82764 36.1312 5.82764Q36.7294 5.82764 37.3104 6.02588Q37.8915 6.22412 38.3666 6.66846Q38.8451 7.11279 39.1288 7.84424Q39.4125 8.57568 39.4125 9.64551L39.4125 10.1411L33.8686 10.1411Q33.9096 11.3647 34.5624 12.0176Q35.2152 12.667 36.2509 12.667Q36.9413 12.667 37.4369 12.3696Q37.9359 12.0723 38.1581 11.4741L39.2929 11.792Q39.0263 12.6567 38.2196 13.1899Q37.413 13.7231 36.2509 13.7231ZM33.8686 9.12939L38.2196 9.12939Q38.2196 8.15869 37.6522 7.51953Q37.0849 6.88037 36.1312 6.88037Q35.4613 6.88037 34.9691 7.19482Q34.477 7.50586 34.1933 8.02197Q33.9096 8.53467 33.8686 9.12939ZM41.1217 13.5625L41.1217 5.92676L42.2564 5.92676L42.2564 7.07861L42.335 7.07861Q42.5435 6.51123 43.0904 6.15918Q43.6373 5.80713 44.3243 5.80713Q44.4542 5.80713 44.6456 5.81396Q44.8404 5.81738 44.9395 5.82764L44.9395 7.02051Q44.8814 7.00342 44.6695 6.97266Q44.4576 6.94189 44.2252 6.94189Q43.3878 6.94189 42.8409 7.44775Q42.294 7.95361 42.294 8.72949L42.294 13.5625L41.1217 13.5625ZM49.2159 13.7231Q48.1119 13.7231 47.3121 13.2344Q46.5157 12.7422 46.085 11.8604Q45.6544 10.9785 45.6544 9.80273Q45.6544 8.63037 46.085 7.73486Q46.5157 6.83594 47.2881 6.3335Q48.0606 5.82764 49.0962 5.82764Q49.6944 5.82764 50.2754 6.02588Q50.8565 6.22412 51.3316 6.66846Q51.8101 7.11279 52.0938 7.84424Q52.3775 8.57568 52.3775 9.64551L52.3775 10.1411L46.8336 10.1411Q46.8746 11.3647 47.5274 12.0176Q48.1802 12.667 49.2159 12.667Q49.9063 12.667 50.4019 12.3696Q50.9009 12.0723 51.1231 11.4741L52.2579 11.792Q51.9913 12.6567 51.1846 13.1899Q50.378 13.7231 49.2159 13.7231ZM46.8336 9.12939L51.1846 9.12939Q51.1846 8.15869 50.6172 7.51953Q50.0499 6.88037 49.0962 6.88037Q48.4263 6.88037 47.9341 7.19482Q47.442 7.50586 47.1583 8.02197Q46.8746 8.53467 46.8336 9.12939ZM56.9714 13.7231Q56.0178 13.7231 55.2864 13.2378Q54.5549 12.7524 54.1413 11.8672Q53.7278 10.9785 53.7278 9.76514Q53.7278 8.56201 54.1413 7.67676Q54.5549 6.7915 55.2898 6.30957Q56.0246 5.82764 56.9919 5.82764Q57.737 5.82764 58.1711 6.07373Q58.6052 6.31982 58.8376 6.63086Q59.07 6.94189 59.1965 7.14014L59.2991 7.14014L59.2991 3.38037L60.4714 3.38037L60.4714 13.5625L59.3367 13.5625L59.3367 12.3901L59.1965 12.3901Q59.07 12.5986 58.8308 12.9165Q58.5915 13.231 58.1472 13.4771Q57.7063 13.7231 56.9714 13.7231ZM57.1286 12.667Q58.1882 12.667 58.7522 11.8569Q59.3161 11.0435 59.3161 9.74463Q59.3161 8.46289 58.759 7.67334Q58.2053 6.88037 57.1286 6.88037Q56.3835 6.88037 55.8879 7.26318Q55.3957 7.64258 55.1496 8.29199Q54.9035 8.93799 54.9035 9.74463Q54.9035 10.5581 55.1531 11.2246Q55.406 11.8877 55.8982 12.2773Q56.3938 12.667 57.1286 12.667ZM68.8035 13.7402Q68.0755 13.7402 67.4842 13.4668Q66.8929 13.1899 66.5442 12.667Q66.1956 12.1406 66.1956 11.3955Q66.1956 10.7393 66.4554 10.3291Q66.7151 9.91895 67.1458 9.68652Q67.5799 9.45068 68.1028 9.33447Q68.6292 9.21826 69.159 9.14648Q69.8562 9.05762 70.2903 9.01318Q70.7278 8.96533 70.9261 8.85254Q71.1277 8.73633 71.1277 8.45264L71.1277 8.41162Q71.1277 7.67676 70.7278 7.27002Q70.3279 6.85986 69.5179 6.85986Q68.677 6.85986 68.1985 7.229Q67.7234 7.59814 67.5286 8.01514L66.4144 7.61523Q66.7151 6.92139 67.2142 6.53174Q67.7132 6.13867 68.3079 5.98486Q68.9026 5.82764 69.4769 5.82764Q69.846 5.82764 70.3245 5.9165Q70.8064 6.00195 71.2542 6.27197Q71.7054 6.53857 72.0027 7.08203Q72.3035 7.62207 72.3035 8.53125L72.3035 13.5625L71.1277 13.5625L71.1277 12.5269L71.0696 12.5269Q70.95 12.7764 70.6697 13.0601Q70.3929 13.3438 69.9314 13.542Q69.47 13.7402 68.8035 13.7402ZM68.9812 12.6875Q69.6785 12.6875 70.157 12.4141Q70.6355 12.1406 70.8816 11.71Q71.1277 11.2759 71.1277 10.7974L71.1277 9.72412Q71.056 9.81299 70.803 9.88477Q70.5535 9.95654 70.2254 10.0112Q69.9007 10.0625 69.5931 10.1001Q69.2889 10.1377 69.1009 10.1616Q68.6429 10.2231 68.2464 10.3564Q67.8533 10.4863 67.6106 10.7461Q67.3714 11.0059 67.3714 11.4536Q67.3714 12.0654 67.826 12.3765Q68.2806 12.6875 68.9812 12.6875ZM77.6916 5.92676L77.6916 6.92139L76.0613 6.92139L76.0613 11.375Q76.0613 11.8706 76.2082 12.1167Q76.3552 12.3628 76.5842 12.4448Q76.8166 12.5269 77.073 12.5269Q77.2678 12.5269 77.3909 12.5063Q77.5173 12.4824 77.5925 12.4688L77.8318 13.5215Q77.7122 13.5659 77.4968 13.6138Q77.2849 13.6616 76.9568 13.6616Q76.4578 13.6616 75.9827 13.4497Q75.5076 13.2344 75.1965 12.7969Q74.8855 12.3594 74.8855 11.6929L74.8855 6.92139L73.7336 6.92139L73.7336 5.92676L74.8855 5.92676L74.8855 4.09814L76.0613 4.09814L76.0613 5.92676L77.6916 5.92676ZM87.2949 3.38037L88.5288 3.38037L88.5288 10.6606Q88.5288 12.127 87.7393 12.9165Q86.9531 13.7026 85.6235 13.7026Q84.7895 13.7026 84.1367 13.3984Q83.4873 13.0908 83.1147 12.5234Q82.7422 11.9561 82.7422 11.1768L83.9556 11.1768Q83.9556 11.8228 84.4272 12.2158Q84.8989 12.6089 85.6235 12.6089Q86.4268 12.6089 86.8608 12.1099Q87.2949 11.6074 87.2949 10.6606L87.2949 3.38037ZM90.915 13.5625L90.915 3.38037L94.3535 3.38037Q95.5464 3.38037 96.312 3.78711Q97.0776 4.19043 97.4468 4.89795Q97.8159 5.60205 97.8159 6.50439Q97.8159 7.51611 97.3511 8.27148Q96.8862 9.02344 95.9121 9.35498L98.2124 13.5625L96.7803 13.5625L94.6338 9.58057Q94.5073 9.58398 94.374 9.58398L92.1455 9.58398L92.1455 13.5625L90.915 13.5625ZM92.1455 8.47314L94.333 8.47314Q95.5566 8.47314 96.0796 7.94678Q96.6025 7.41699 96.6025 6.50439Q96.6025 5.58154 96.0762 5.02783Q95.5532 4.47412 94.3159 4.47412L92.1455 4.47412L92.1455 8.47314ZM101.014 3.38037L101.014 13.5625L99.7839 13.5625L99.7839 3.38037L101.014 3.38037ZM111.475 7.92627L111.475 9.02002L107.021 9.02002L107.021 7.92627L111.475 7.92627ZM120.622 13.7026Q118.937 13.7026 118.007 12.3354Q117.081 10.9683 117.081 8.47314Q117.081 5.99512 118.014 4.61768Q118.951 3.24023 120.622 3.24023Q122.293 3.24023 123.227 4.61768Q124.163 5.99512 124.163 8.47314Q124.163 10.9683 123.233 12.3354Q122.307 13.7026 120.622 13.7026ZM120.622 12.6089Q121.736 12.6089 122.352 11.5356Q122.97 10.459 122.97 8.47314Q122.97 6.4873 122.348 5.40381Q121.726 4.31689 120.622 4.31689Q119.518 4.31689 118.896 5.40381Q118.274 6.4873 118.274 8.47314Q118.274 10.459 118.893 11.5356Q119.515 12.6089 120.622 12.6089ZM129.412 13.7026Q128.427 13.7026 127.658 13.3643Q126.889 13.0259 126.438 12.4209Q125.99 11.8159 125.953 11.0161L127.204 11.0161Q127.258 11.7544 127.88 12.1816Q128.506 12.6089 129.391 12.6089Q130.372 12.6089 131.004 12.1099Q131.64 11.6074 131.64 10.7974Q131.64 9.95312 131.015 9.42334Q130.389 8.89014 129.234 8.89014L128.417 8.89014L128.417 7.79639L129.234 7.79639Q130.136 7.79639 130.707 7.31445Q131.281 6.83252 131.281 6.02588Q131.281 5.25342 130.779 4.78516Q130.276 4.31689 129.432 4.31689Q128.906 4.31689 128.441 4.5083Q127.976 4.69971 127.682 5.05859Q127.388 5.41748 127.364 5.92676L126.171 5.92676Q126.199 5.12695 126.65 4.52197Q127.105 3.91699 127.836 3.57861Q128.571 3.24023 129.453 3.24023Q130.396 3.24023 131.073 3.62305Q131.75 4.00244 132.112 4.62451Q132.474 5.24658 132.474 5.96436Q132.474 6.82568 132.023 7.43408Q131.575 8.03906 130.803 8.27148L130.803 8.35352Q131.767 8.51074 132.307 9.17041Q132.85 9.83008 132.85 10.7974Q132.85 11.6279 132.399 12.2876Q131.951 12.9473 131.175 13.3267Q130.399 13.7026 129.412 13.7026ZM138.419 2.90186L135.137 15.0938L134.064 15.0938L137.345 2.90186L138.419 2.90186ZM143.033 13.7026Q141.348 13.7026 140.418 12.3354Q139.492 10.9683 139.492 8.47314Q139.492 5.99512 140.425 4.61768Q141.361 3.24023 143.033 3.24023Q144.704 3.24023 145.637 4.61768Q146.574 5.99512 146.574 8.47314Q146.574 10.9683 145.644 12.3354Q144.718 13.7026 143.033 13.7026ZM143.033 12.6089Q144.147 12.6089 144.762 11.5356Q145.381 10.459 145.381 8.47314Q145.381 6.4873 144.759 5.40381Q144.137 4.31689 143.033 4.31689Q141.929 4.31689 141.307 5.40381Q140.684 6.4873 140.684 8.47314Q140.684 10.459 141.303 11.5356Q141.925 12.6089 143.033 12.6089ZM151.822 13.7026Q150.838 13.7026 150.069 13.3643Q149.3 13.0259 148.849 12.4209Q148.401 11.8159 148.363 11.0161L149.614 11.0161Q149.669 11.7544 150.291 12.1816Q150.916 12.6089 151.802 12.6089Q152.783 12.6089 153.415 12.1099Q154.051 11.6074 154.051 10.7974Q154.051 9.95312 153.425 9.42334Q152.8 8.89014 151.645 8.89014L150.828 8.89014L150.828 7.79639L151.645 7.79639Q152.547 7.79639 153.118 7.31445Q153.692 6.83252 153.692 6.02588Q153.692 5.25342 153.189 4.78516Q152.687 4.31689 151.843 4.31689Q151.316 4.31689 150.852 4.5083Q150.387 4.69971 150.093 5.05859Q149.799 5.41748 149.775 5.92676L148.582 5.92676Q148.609 5.12695 149.061 4.52197Q149.515 3.91699 150.247 3.57861Q150.981 3.24023 151.863 3.24023Q152.807 3.24023 153.483 3.62305Q154.16 4.00244 154.522 4.62451Q154.885 5.24658 154.885 5.96436Q154.885 6.82568 154.434 7.43408Q153.986 8.03906 153.213 8.27148L153.213 8.35352Q154.177 8.51074 154.717 9.17041Q155.261 9.83008 155.261 10.7974Q155.261 11.6279 154.81 12.2876Q154.362 12.9473 153.586 13.3267Q152.81 13.7026 151.822 13.7026ZM160.829 2.90186L157.548 15.0938L156.475 15.0938L159.756 2.90186L160.829 2.90186ZM162.121 13.5625L162.121 12.667L165.484 8.98926Q166.076 8.34326 166.458 7.86475Q166.841 7.38281 167.026 6.95898Q167.214 6.53174 167.214 6.06689Q167.214 5.26025 166.653 4.78857Q166.096 4.31689 165.265 4.31689Q164.38 4.31689 163.857 4.84668Q163.334 5.37305 163.334 6.24463L162.162 6.24463Q162.162 5.34912 162.572 4.67236Q162.986 3.99561 163.7 3.61963Q164.414 3.24023 165.303 3.24023Q166.199 3.24023 166.889 3.61963Q167.579 3.99561 167.972 4.63818Q168.366 5.28076 168.366 6.06689Q168.366 6.62744 168.164 7.16406Q167.962 7.69727 167.467 8.3501Q166.974 9.00293 166.099 9.94287L163.813 12.3901L163.813 12.4688L168.547 12.4688L168.547 13.5625L162.121 13.5625ZM173.835 13.7026Q172.15 13.7026 171.22 12.3354Q170.294 10.9683 170.294 8.47314Q170.294 5.99512 171.227 4.61768Q172.163 3.24023 173.835 3.24023Q175.506 3.24023 176.439 4.61768Q177.376 5.99512 177.376 8.47314Q177.376 10.9683 176.446 12.3354Q175.52 13.7026 173.835 13.7026ZM173.835 12.6089Q174.949 12.6089 175.564 11.5356Q176.183 10.459 176.183 8.47314Q176.183 6.4873 175.561 5.40381Q174.939 4.31689 173.835 4.31689Q172.731 4.31689 172.109 5.40381Q171.487 6.4873 171.487 8.47314Q171.487 10.459 172.105 11.5356Q172.727 12.6089 173.835 12.6089ZM179.183 13.5625L179.183 12.667L182.546 8.98926Q183.137 8.34326 183.52 7.86475Q183.903 7.38281 184.087 6.95898Q184.275 6.53174 184.275 6.06689Q184.275 5.26025 183.715 4.78857Q183.158 4.31689 182.327 4.31689Q181.442 4.31689 180.919 4.84668Q180.396 5.37305 180.396 6.24463L179.224 6.24463Q179.224 5.34912 179.634 4.67236Q180.047 3.99561 180.762 3.61963Q181.476 3.24023 182.365 3.24023Q183.26 3.24023 183.951 3.61963Q184.641 3.99561 185.034 4.63818Q185.427 5.28076 185.427 6.06689Q185.427 6.62744 185.225 7.16406Q185.024 7.69727 184.528 8.3501Q184.036 9.00293 183.161 9.94287L180.874 12.3901L180.874 12.4688L185.608 12.4688L185.608 13.5625L179.183 13.5625ZM190.756 13.7026Q189.881 13.7026 189.181 13.354Q188.48 13.0054 188.056 12.4004Q187.636 11.792 187.595 11.0161L188.787 11.0161Q188.859 11.7065 189.416 12.1577Q189.977 12.6089 190.756 12.6089Q191.385 12.6089 191.874 12.3149Q192.363 12.021 192.643 11.5083Q192.923 10.9922 192.923 10.3394Q192.923 9.67627 192.633 9.15332Q192.342 8.62695 191.836 8.32275Q191.33 8.01855 190.678 8.01514Q190.209 8.0083 189.717 8.15527Q189.225 8.30225 188.907 8.53125L187.755 8.39111L188.37 3.38037L193.661 3.38037L193.661 4.47412L189.406 4.47412L189.047 7.47852L189.105 7.47852Q189.42 7.229 189.891 7.06494Q190.363 6.90088 190.876 6.90088Q191.812 6.90088 192.544 7.34521Q193.279 7.78955 193.699 8.56201Q194.12 9.33105 194.12 10.3223Q194.12 11.2964 193.682 12.0586Q193.248 12.8208 192.486 13.2617Q191.727 13.7026 190.756 13.7026Z" transform="translate(24 2)" fill="#000000" />
    </g>
    <g transform="translate(163 94)">
      <g transform="translate(0 2)">
        <rect width="16" height="16" rx="4" fill="#00BCD4" fill-rule="evenodd" />
        <path d="M1.70711 2.29289C1.31658 1.90237 0.683418 1.90237 0.292893 2.29289C-0.097631 2.68342 -0.097631 3.31658 0.292893 3.70711L2.29289 5.70711C2.68342 6.09763 3.31658 6.09763 3.70711 5.70711L7.70711 1.70711C8.09763 1.31658 8.09763 0.683418 7.70711 0.292893C7.31658 -0.097631 6.68342 -0.097631 6.29289 0.292893L3 3.58579L1.70711 2.29289L1.70711 2.29289Z" fill="#FFFFFF" fill-rule="evenodd" transform="translate(4 5)" />
      </g>
      <path d="M1.65088 13.5625L0.358887 13.5625L4.09814 3.38037L5.36963 3.38037L9.10889 13.5625L7.81689 13.5625L6.7915 10.6777L2.67627 10.6777L1.65088 13.5625ZM3.0625 9.58398L6.40186 9.58398L4.77148 4.99023L4.69287 4.99023L3.0625 9.58398ZM10.5387 13.5625L10.5387 5.92676L11.7111 5.92676L11.7111 13.5625L10.5387 13.5625ZM11.1368 4.65186Q10.7916 4.65186 10.5455 4.41943Q10.2994 4.18701 10.2994 3.85889Q10.2994 3.53076 10.5455 3.29834Q10.7916 3.0625 11.1368 3.0625Q11.4786 3.0625 11.7247 3.29834Q11.9708 3.53076 11.9708 3.85889Q11.9708 4.18701 11.7247 4.41943Q11.4786 4.65186 11.1368 4.65186ZM13.7797 13.5625L13.7797 5.92676L14.9145 5.92676L14.9145 7.07861L14.9931 7.07861Q15.2016 6.51123 15.7485 6.15918Q16.2953 5.80713 16.9824 5.80713Q17.1122 5.80713 17.3036 5.81396Q17.4985 5.81738 17.5976 5.82764L17.5976 7.02051Q17.5395 7.00342 17.3276 6.97266Q17.1157 6.94189 16.8832 6.94189Q16.0458 6.94189 15.499 7.44775Q14.9521 7.95361 14.9521 8.72949L14.9521 13.5625L13.7797 13.5625ZM18.9099 16.4268L18.9099 5.92676L20.0447 5.92676L20.0447 7.14014L20.1848 7.14014Q20.3113 6.94189 20.5437 6.63086Q20.7762 6.31982 21.2102 6.07373Q21.6443 5.82764 22.3894 5.82764Q23.3567 5.82764 24.0916 6.30957Q24.8265 6.7915 25.24 7.67676Q25.6536 8.56201 25.6536 9.76514Q25.6536 10.9785 25.24 11.8672Q24.8265 12.7524 24.095 13.2378Q23.3636 13.7231 22.4099 13.7231Q21.6751 13.7231 21.2307 13.4771Q20.7898 13.231 20.5506 12.9165Q20.3113 12.5986 20.1848 12.3901L20.0823 12.3901L20.0823 16.4268L18.9099 16.4268ZM20.0652 9.74463Q20.0652 11.0435 20.6292 11.8569Q21.1931 12.667 22.2527 12.667Q22.9876 12.667 23.4798 12.2773Q23.9754 11.8877 24.2249 11.2246Q24.4778 10.5581 24.4778 9.74463Q24.4778 8.93799 24.2317 8.29199Q23.9856 7.64258 23.49 7.26318Q22.9978 6.88037 22.2527 6.88037Q21.1761 6.88037 20.6189 7.67334Q20.0652 8.46289 20.0652 9.74463ZM30.4647 13.7231Q29.4291 13.7231 28.6498 13.231Q27.8739 12.7388 27.4364 11.8535Q27.0023 10.9683 27.0023 9.78564Q27.0023 8.58936 27.4364 7.70068Q27.8739 6.81201 28.6498 6.31982Q29.4291 5.82764 30.4647 5.82764Q31.4969 5.82764 32.2762 6.31982Q33.0555 6.81201 33.4896 7.70068Q33.9237 8.58936 33.9237 9.78564Q33.9237 10.9683 33.4896 11.8535Q33.0555 12.7388 32.2762 13.231Q31.4969 13.7231 30.4647 13.7231ZM30.4647 12.667Q31.2508 12.667 31.7567 12.2671Q32.2626 11.8638 32.5052 11.2075Q32.7513 10.5513 32.7513 9.78564Q32.7513 9.02002 32.5052 8.36035Q32.2626 7.69727 31.7567 7.29053Q31.2508 6.88037 30.4647 6.88037Q29.6786 6.88037 29.1693 7.29053Q28.6634 7.69727 28.4208 8.36035Q28.1781 9.02002 28.1781 9.78564Q28.1781 10.5513 28.4208 11.2075Q28.6634 11.8638 29.1693 12.2671Q29.6786 12.667 30.4647 12.667ZM35.6335 13.5625L35.6335 5.92676L36.7682 5.92676L36.7682 7.07861L36.8468 7.07861Q37.0553 6.51123 37.6022 6.15918Q38.1491 5.80713 38.8361 5.80713Q38.966 5.80713 39.1574 5.81396Q39.3522 5.81738 39.4513 5.82764L39.4513 7.02051Q39.3932 7.00342 39.1813 6.97266Q38.9694 6.94189 38.737 6.94189Q37.8996 6.94189 37.3527 7.44775Q36.8058 7.95361 36.8058 8.72949L36.8058 13.5625L35.6335 13.5625ZM44.5632 5.92676L44.5632 6.92139L42.9329 6.92139L42.9329 11.375Q42.9329 11.8706 43.0798 12.1167Q43.2268 12.3628 43.4558 12.4448Q43.6882 12.5269 43.9446 12.5269Q44.1394 12.5269 44.2625 12.5063Q44.3889 12.4824 44.4641 12.4688L44.7034 13.5215Q44.5837 13.5659 44.3684 13.6138Q44.1565 13.6616 43.8284 13.6616Q43.3293 13.6616 42.8542 13.4497Q42.3792 13.2344 42.0681 12.7969Q41.7571 12.3594 41.7571 11.6929L41.7571 6.92139L40.6052 6.92139L40.6052 5.92676L41.7571 5.92676L41.7571 4.09814L42.9329 4.09814L42.9329 5.92676L44.5632 5.92676ZM50.687 13.5625L49.395 13.5625L53.1343 3.38037L54.4058 3.38037L58.145 13.5625L56.853 13.5625L55.8276 10.6777L51.7124 10.6777L50.687 13.5625ZM52.0986 9.58398L55.438 9.58398L53.8076 4.99023L53.729 4.99023L52.0986 9.58398ZM59.4953 13.5625L59.4953 5.92676L60.6301 5.92676L60.6301 7.07861L60.7087 7.07861Q60.9172 6.51123 61.464 6.15918Q62.0109 5.80713 62.6979 5.80713Q62.8278 5.80713 63.0192 5.81396Q63.214 5.81738 63.3132 5.82764L63.3132 7.02051Q63.2551 7.00342 63.0431 6.97266Q62.8312 6.94189 62.5988 6.94189Q61.7614 6.94189 61.2145 7.44775Q60.6676 7.95361 60.6676 8.72949L60.6676 13.5625L59.4953 13.5625ZM64.6255 13.5625L64.6255 5.92676L65.7603 5.92676L65.7603 7.07861L65.8389 7.07861Q66.0474 6.51123 66.5943 6.15918Q67.1411 5.80713 67.8281 5.80713Q67.958 5.80713 68.1494 5.81396Q68.3443 5.81738 68.4434 5.82764L68.4434 7.02051Q68.3853 7.00342 68.1734 6.97266Q67.9614 6.94189 67.729 6.94189Q66.8916 6.94189 66.3447 7.44775Q65.7979 7.95361 65.7979 8.72949L65.7979 13.5625L64.6255 13.5625ZM69.7557 13.5625L69.7557 5.92676L70.9281 5.92676L70.9281 13.5625L69.7557 13.5625ZM70.3539 4.65186Q70.0087 4.65186 69.7626 4.41943Q69.5165 4.18701 69.5165 3.85889Q69.5165 3.53076 69.7626 3.29834Q70.0087 3.0625 70.3539 3.0625Q70.6957 3.0625 70.9418 3.29834Q71.1879 3.53076 71.1879 3.85889Q71.1879 4.18701 70.9418 4.41943Q70.6957 4.65186 70.3539 4.65186ZM79.2414 5.92676L76.4181 13.5625L75.2253 13.5625L72.402 5.92676L73.6735 5.92676L75.7824 12.0107L75.861 12.0107L77.9699 5.92676L79.2414 5.92676ZM82.7226 13.7402Q81.9946 13.7402 81.4033 13.4668Q80.812 13.1899 80.4633 12.667Q80.1147 12.1406 80.1147 11.3955Q80.1147 10.7393 80.3745 10.3291Q80.6342 9.91895 81.0649 9.68652Q81.499 9.45068 82.0219 9.33447Q82.5483 9.21826 83.0781 9.14648Q83.7753 9.05762 84.2094 9.01318Q84.6469 8.96533 84.8452 8.85254Q85.0468 8.73633 85.0468 8.45264L85.0468 8.41162Q85.0468 7.67676 84.6469 7.27002Q84.247 6.85986 83.437 6.85986Q82.5961 6.85986 82.1176 7.229Q81.6425 7.59814 81.4477 8.01514L80.3334 7.61523Q80.6342 6.92139 81.1332 6.53174Q81.6323 6.13867 82.227 5.98486Q82.8217 5.82764 83.3959 5.82764Q83.7651 5.82764 84.2436 5.9165Q84.7255 6.00195 85.1733 6.27197Q85.6245 6.53857 85.9218 7.08203Q86.2226 7.62207 86.2226 8.53125L86.2226 13.5625L85.0468 13.5625L85.0468 12.5269L84.9887 12.5269Q84.8691 12.7764 84.5888 13.0601Q84.312 13.3438 83.8505 13.542Q83.3891 13.7402 82.7226 13.7402ZM82.9003 12.6875Q83.5976 12.6875 84.0761 12.4141Q84.5546 12.1406 84.8007 11.71Q85.0468 11.2759 85.0468 10.7974L85.0468 9.72412Q84.975 9.81299 84.7221 9.88477Q84.4726 9.95654 84.1445 10.0112Q83.8198 10.0625 83.5121 10.1001Q83.2079 10.1377 83.02 10.1616Q82.562 10.2231 82.1655 10.3564Q81.7724 10.4863 81.5297 10.7461Q81.2905 11.0059 81.2905 11.4536Q81.2905 12.0654 81.7451 12.3765Q82.1996 12.6875 82.9003 12.6875ZM89.4608 3.38037L89.4608 13.5625L88.2885 13.5625L88.2885 3.38037L89.4608 3.38037ZM96.9401 7.63574L95.884 7.93311Q95.7302 7.53662 95.3679 7.18799Q95.0056 6.83936 94.2331 6.83936Q93.5324 6.83936 93.0676 7.16064Q92.6027 7.48193 92.6027 7.97412Q92.6027 8.41162 92.9206 8.66455Q93.2419 8.91748 93.9152 9.08838L95.05 9.36523Q97.0768 9.86426 97.0768 11.4331Q97.0768 12.0894 96.7009 12.6089Q96.3283 13.125 95.655 13.4258Q94.985 13.7231 94.0964 13.7231Q92.9274 13.7231 92.1618 13.2173Q91.3962 12.708 91.1911 11.7339L92.3054 11.4536Q92.6198 12.6875 94.0759 12.6875Q94.8962 12.6875 95.3815 12.3389Q95.8669 11.9868 95.8669 11.4946Q95.8669 10.6846 94.7321 10.4214L93.4606 10.1206Q92.4113 9.87451 91.9191 9.35156Q91.4304 8.8252 91.4304 8.03564Q91.4304 7.38623 91.7961 6.89062Q92.1618 6.39502 92.7941 6.11133Q93.4299 5.82764 94.2331 5.82764Q95.3679 5.82764 96.0173 6.32666Q96.6667 6.82227 96.9401 7.63574ZM107 7.92627L107 9.02002L102.547 9.02002L102.547 7.92627L107 7.92627ZM116.148 13.7026Q114.463 13.7026 113.533 12.3354Q112.607 10.9683 112.607 8.47314Q112.607 5.99512 113.54 4.61768Q114.476 3.24023 116.148 3.24023Q117.819 3.24023 118.752 4.61768Q119.689 5.99512 119.689 8.47314Q119.689 10.9683 118.759 12.3354Q117.833 13.7026 116.148 13.7026ZM116.148 12.6089Q117.262 12.6089 117.877 11.5356Q118.496 10.459 118.496 8.47314Q118.496 6.4873 117.874 5.40381Q117.252 4.31689 116.148 4.31689Q115.044 4.31689 114.422 5.40381Q113.799 6.4873 113.799 8.47314Q113.799 10.459 114.418 11.5356Q115.04 12.6089 116.148 12.6089ZM125.077 3.38037L125.077 13.5625L123.843 13.5625L123.843 4.67236L123.782 4.67236L121.297 6.32324L121.297 5.07227L123.843 3.38037L125.077 3.38037ZM131.538 2.90186L128.257 15.0938L127.183 15.0938L130.465 2.90186L131.538 2.90186ZM136.152 13.7026Q134.467 13.7026 133.537 12.3354Q132.611 10.9683 132.611 8.47314Q132.611 5.99512 133.544 4.61768Q134.481 3.24023 136.152 3.24023Q137.823 3.24023 138.756 4.61768Q139.693 5.99512 139.693 8.47314Q139.693 10.9683 138.763 12.3354Q137.837 13.7026 136.152 13.7026ZM136.152 12.6089Q137.266 12.6089 137.881 11.5356Q138.5 10.459 138.5 8.47314Q138.5 6.4873 137.878 5.40381Q137.256 4.31689 136.152 4.31689Q135.048 4.31689 134.426 5.40381Q133.804 6.4873 133.804 8.47314Q133.804 10.459 134.422 11.5356Q135.044 12.6089 136.152 12.6089ZM144.942 13.7026Q143.957 13.7026 143.188 13.3643Q142.419 13.0259 141.968 12.4209Q141.52 11.8159 141.483 11.0161L142.734 11.0161Q142.788 11.7544 143.41 12.1816Q144.036 12.6089 144.921 12.6089Q145.902 12.6089 146.534 12.1099Q147.17 11.6074 147.17 10.7974Q147.17 9.95312 146.545 9.42334Q145.919 8.89014 144.764 8.89014L143.947 8.89014L143.947 7.79639L144.764 7.79639Q145.666 7.79639 146.237 7.31445Q146.811 6.83252 146.811 6.02588Q146.811 5.25342 146.309 4.78516Q145.806 4.31689 144.962 4.31689Q144.436 4.31689 143.971 4.5083Q143.506 4.69971 143.212 5.05859Q142.918 5.41748 142.894 5.92676L141.701 5.92676Q141.729 5.12695 142.18 4.52197Q142.634 3.91699 143.366 3.57861Q144.101 3.24023 144.983 3.24023Q145.926 3.24023 146.603 3.62305Q147.279 4.00244 147.642 4.62451Q148.004 5.24658 148.004 5.96436Q148.004 6.82568 147.553 7.43408Q147.105 8.03906 146.333 8.27148L146.333 8.35352Q147.297 8.51074 147.837 9.17041Q148.38 9.83008 148.38 10.7974Q148.38 11.6279 147.929 12.2876Q147.481 12.9473 146.705 13.3267Q145.929 13.7026 144.942 13.7026ZM153.948 2.90186L150.667 15.0938L149.594 15.0938L152.875 2.90186L153.948 2.90186ZM155.24 13.5625L155.24 12.667L158.604 8.98926Q159.195 8.34326 159.578 7.86475Q159.96 7.38281 160.145 6.95898Q160.333 6.53174 160.333 6.06689Q160.333 5.26025 159.772 4.78857Q159.215 4.31689 158.385 4.31689Q157.499 4.31689 156.977 4.84668Q156.454 5.37305 156.454 6.24463L155.281 6.24463Q155.281 5.34912 155.691 4.67236Q156.105 3.99561 156.819 3.61963Q157.534 3.24023 158.422 3.24023Q159.318 3.24023 160.008 3.61963Q160.699 3.99561 161.092 4.63818Q161.485 5.28076 161.485 6.06689Q161.485 6.62744 161.283 7.16406Q161.082 7.69727 160.586 8.3501Q160.094 9.00293 159.219 9.94287L156.932 12.3901L156.932 12.4688L161.666 12.4688L161.666 13.5625L155.24 13.5625ZM166.954 13.7026Q165.269 13.7026 164.339 12.3354Q163.413 10.9683 163.413 8.47314Q163.413 5.99512 164.346 4.61768Q165.283 3.24023 166.954 3.24023Q168.625 3.24023 169.559 4.61768Q170.495 5.99512 170.495 8.47314Q170.495 10.9683 169.565 12.3354Q168.639 13.7026 166.954 13.7026ZM166.954 12.6089Q168.068 12.6089 168.684 11.5356Q169.302 10.459 169.302 8.47314Q169.302 6.4873 168.68 5.40381Q168.058 4.31689 166.954 4.31689Q165.85 4.31689 165.228 5.40381Q164.606 6.4873 164.606 8.47314Q164.606 10.459 165.225 11.5356Q165.847 12.6089 166.954 12.6089ZM172.302 13.5625L172.302 12.667L175.665 8.98926Q176.256 8.34326 176.639 7.86475Q177.022 7.38281 177.207 6.95898Q177.395 6.53174 177.395 6.06689Q177.395 5.26025 176.834 4.78857Q176.277 4.31689 175.446 4.31689Q174.561 4.31689 174.038 4.84668Q173.515 5.37305 173.515 6.24463L172.343 6.24463Q172.343 5.34912 172.753 4.67236Q173.167 3.99561 173.881 3.61963Q174.595 3.24023 175.484 3.24023Q176.379 3.24023 177.07 3.61963Q177.76 3.99561 178.153 4.63818Q178.546 5.28076 178.546 6.06689Q178.546 6.62744 178.345 7.16406Q178.143 7.69727 177.648 8.3501Q177.155 9.00293 176.28 9.94287L173.994 12.3901L173.994 12.4688L178.728 12.4688L178.728 13.5625L172.302 13.5625ZM183.876 13.7026Q183.001 13.7026 182.3 13.354Q181.599 13.0054 181.175 12.4004Q180.755 11.792 180.714 11.0161L181.907 11.0161Q181.979 11.7065 182.536 12.1577Q183.096 12.6089 183.876 12.6089Q184.504 12.6089 184.993 12.3149Q185.482 12.021 185.762 11.5083Q186.043 10.9922 186.043 10.3394Q186.043 9.67627 185.752 9.15332Q185.461 8.62695 184.956 8.32275Q184.45 8.01855 183.797 8.01514Q183.329 8.0083 182.836 8.15527Q182.344 8.30225 182.026 8.53125L180.875 8.39111L181.49 3.38037L186.781 3.38037L186.781 4.47412L182.525 4.47412L182.167 7.47852L182.225 7.47852Q182.539 7.229 183.011 7.06494Q183.482 6.90088 183.995 6.90088Q184.932 6.90088 185.663 7.34521Q186.398 7.78955 186.818 8.56201Q187.239 9.33105 187.239 10.3223Q187.239 11.2964 186.801 12.0586Q186.367 12.8208 185.605 13.2617Q184.846 13.7026 183.876 13.7026Z" transform="translate(24 2)" fill="#000000" />
    </g>
    <g transform="translate(163 311)">
      <g transform="translate(0 2)">
        <rect width="16" height="16" rx="4" fill="#00BCD4" fill-rule="evenodd" />
        <path d="M1.70711 2.29289C1.31658 1.90237 0.683418 1.90237 0.292893 2.29289C-0.097631 2.68342 -0.097631 3.31658 0.292893 3.70711L2.29289 5.70711C2.68342 6.09763 3.31658 6.09763 3.70711 5.70711L7.70711 1.70711C8.09763 1.31658 8.09763 0.683418 7.70711 0.292893C7.31658 -0.097631 6.68342 -0.097631 6.29289 0.292893L3 3.58579L1.70711 2.29289L1.70711 2.29289Z" fill="#FFFFFF" fill-rule="evenodd" transform="translate(4 5)" />
      </g>
      <path d="M2.46436 3.38037L2.46436 13.5625L1.23389 13.5625L1.23389 3.38037L2.46436 3.38037ZM5.86447 8.96875L5.86447 13.5625L4.69211 13.5625L4.69211 5.92676L5.82687 5.92676L5.82687 7.11963L5.92599 7.11963Q6.19259 6.53857 6.73947 6.18311Q7.28634 5.82764 8.15451 5.82764Q9.30978 5.82764 10.0241 6.53857Q10.7385 7.24951 10.7385 8.70898L10.7385 13.5625L9.56613 13.5625L9.56613 8.79102Q9.56613 7.88867 9.09787 7.38623Q8.62961 6.88037 7.81613 6.88037Q6.97531 6.88037 6.41818 7.42725Q5.86447 7.9707 5.86447 8.96875ZM18.2159 7.63574L17.1598 7.93311Q17.006 7.53662 16.6437 7.18799Q16.2814 6.83936 15.5089 6.83936Q14.8082 6.83936 14.3434 7.16064Q13.8785 7.48193 13.8785 7.97412Q13.8785 8.41162 14.1964 8.66455Q14.5177 8.91748 15.191 9.08838L16.3258 9.36523Q18.3527 9.86426 18.3527 11.4331Q18.3527 12.0894 17.9767 12.6089Q17.6041 13.125 16.9308 13.4258Q16.2609 13.7231 15.3722 13.7231Q14.2032 13.7231 13.4376 13.2173Q12.672 12.708 12.4669 11.7339L13.5812 11.4536Q13.8956 12.6875 15.3517 12.6875Q16.172 12.6875 16.6573 12.3389Q17.1427 11.9868 17.1427 11.4946Q17.1427 10.6846 16.0079 10.4214L14.7364 10.1206Q13.6871 9.87451 13.1949 9.35156Q12.7062 8.8252 12.7062 8.03564Q12.7062 7.38623 13.0719 6.89062Q13.4376 6.39502 14.0699 6.11133Q14.7057 5.82764 15.5089 5.82764Q16.6437 5.82764 17.2931 6.32666Q17.9425 6.82227 18.2159 7.63574ZM23.3657 5.92676L23.3657 6.92139L21.7354 6.92139L21.7354 11.375Q21.7354 11.8706 21.8823 12.1167Q22.0293 12.3628 22.2583 12.4448Q22.4907 12.5269 22.7471 12.5269Q22.9419 12.5269 23.065 12.5063Q23.1914 12.4824 23.2666 12.4688L23.5059 13.5215Q23.3862 13.5659 23.1709 13.6138Q22.959 13.6616 22.6309 13.6616Q22.1318 13.6616 21.6568 13.4497Q21.1817 13.2344 20.8706 12.7969Q20.5596 12.3594 20.5596 11.6929L20.5596 6.92139L19.4077 6.92139L19.4077 5.92676L20.5596 5.92676L20.5596 4.09814L21.7354 4.09814L21.7354 5.92676L23.3657 5.92676ZM27.3034 13.7402Q26.5754 13.7402 25.9841 13.4668Q25.3928 13.1899 25.0441 12.667Q24.6955 12.1406 24.6955 11.3955Q24.6955 10.7393 24.9553 10.3291Q25.215 9.91895 25.6457 9.68652Q26.0798 9.45068 26.6027 9.33447Q27.1291 9.21826 27.6589 9.14648Q28.3561 9.05762 28.7902 9.01318Q29.2277 8.96533 29.426 8.85254Q29.6276 8.73633 29.6276 8.45264L29.6276 8.41162Q29.6276 7.67676 29.2277 7.27002Q28.8278 6.85986 28.0178 6.85986Q27.1769 6.85986 26.6984 7.229Q26.2233 7.59814 26.0285 8.01514L24.9142 7.61523Q25.215 6.92139 25.714 6.53174Q26.2131 6.13867 26.8078 5.98486Q27.4025 5.82764 27.9767 5.82764Q28.3459 5.82764 28.8244 5.9165Q29.3063 6.00195 29.7541 6.27197Q30.2053 6.53857 30.5026 7.08203Q30.8034 7.62207 30.8034 8.53125L30.8034 13.5625L29.6276 13.5625L29.6276 12.5269L29.5695 12.5269Q29.4499 12.7764 29.1696 13.0601Q28.8928 13.3438 28.4313 13.542Q27.9699 13.7402 27.3034 13.7402ZM27.4811 12.6875Q28.1784 12.6875 28.6569 12.4141Q29.1354 12.1406 29.3815 11.71Q29.6276 11.2759 29.6276 10.7974L29.6276 9.72412Q29.5558 9.81299 29.3029 9.88477Q29.0534 9.95654 28.7253 10.0112Q28.4006 10.0625 28.093 10.1001Q27.7888 10.1377 27.6008 10.1616Q27.1428 10.2231 26.7463 10.3564Q26.3532 10.4863 26.1105 10.7461Q25.8713 11.0059 25.8713 11.4536Q25.8713 12.0654 26.3259 12.3765Q26.7805 12.6875 27.4811 12.6875ZM34.0416 3.38037L34.0416 13.5625L32.8693 13.5625L32.8693 3.38037L34.0416 3.38037ZM37.2826 3.38037L37.2826 13.5625L36.1103 13.5625L36.1103 3.38037L37.2826 3.38037ZM41.6003 13.7402Q40.8723 13.7402 40.281 13.4668Q39.6897 13.1899 39.3411 12.667Q38.9924 12.1406 38.9924 11.3955Q38.9924 10.7393 39.2522 10.3291Q39.512 9.91895 39.9426 9.68652Q40.3767 9.45068 40.8997 9.33447Q41.426 9.21826 41.9558 9.14648Q42.6531 9.05762 43.0872 9.01318Q43.5247 8.96533 43.7229 8.85254Q43.9246 8.73633 43.9246 8.45264L43.9246 8.41162Q43.9246 7.67676 43.5247 7.27002Q43.1247 6.85986 42.3147 6.85986Q41.4739 6.85986 40.9954 7.229Q40.5203 7.59814 40.3254 8.01514L39.2112 7.61523Q39.512 6.92139 40.011 6.53174Q40.51 6.13867 41.1047 5.98486Q41.6995 5.82764 42.2737 5.82764Q42.6428 5.82764 43.1213 5.9165Q43.6033 6.00195 44.051 6.27197Q44.5022 6.53857 44.7996 7.08203Q45.1003 7.62207 45.1003 8.53125L45.1003 13.5625L43.9246 13.5625L43.9246 12.5269L43.8664 12.5269Q43.7468 12.7764 43.4665 13.0601Q43.1897 13.3438 42.7283 13.542Q42.2668 13.7402 41.6003 13.7402ZM41.7781 12.6875Q42.4753 12.6875 42.9538 12.4141Q43.4324 12.1406 43.6785 11.71Q43.9246 11.2759 43.9246 10.7974L43.9246 9.72412Q43.8528 9.81299 43.5998 9.88477Q43.3503 9.95654 43.0222 10.0112Q42.6975 10.0625 42.3899 10.1001Q42.0857 10.1377 41.8977 10.1616Q41.4397 10.2231 41.0432 10.3564Q40.6501 10.4863 40.4075 10.7461Q40.1682 11.0059 40.1682 11.4536Q40.1682 12.0654 40.6228 12.3765Q41.0774 12.6875 41.7781 12.6875ZM50.4885 5.92676L50.4885 6.92139L48.8581 6.92139L48.8581 11.375Q48.8581 11.8706 49.0051 12.1167Q49.152 12.3628 49.381 12.4448Q49.6135 12.5269 49.8698 12.5269Q50.0646 12.5269 50.1877 12.5063Q50.3141 12.4824 50.3893 12.4688L50.6286 13.5215Q50.509 13.5659 50.2936 13.6138Q50.0817 13.6616 49.7536 13.6616Q49.2546 13.6616 48.7795 13.4497Q48.3044 13.2344 47.9933 12.7969Q47.6823 12.3594 47.6823 11.6929L47.6823 6.92139L46.5305 6.92139L46.5305 5.92676L47.6823 5.92676L47.6823 4.09814L48.8581 4.09814L48.8581 5.92676L50.4885 5.92676ZM52.1771 13.5625L52.1771 5.92676L53.3495 5.92676L53.3495 13.5625L52.1771 13.5625ZM52.7753 4.65186Q52.43 4.65186 52.1839 4.41943Q51.9379 4.18701 51.9379 3.85889Q51.9379 3.53076 52.1839 3.29834Q52.43 3.0625 52.7753 3.0625Q53.1171 3.0625 53.3631 3.29834Q53.6092 3.53076 53.6092 3.85889Q53.6092 4.18701 53.3631 4.41943Q53.1171 4.65186 52.7753 4.65186ZM58.5216 13.7231Q57.486 13.7231 56.7067 13.231Q55.9308 12.7388 55.4933 11.8535Q55.0592 10.9683 55.0592 9.78564Q55.0592 8.58936 55.4933 7.70068Q55.9308 6.81201 56.7067 6.31982Q57.486 5.82764 58.5216 5.82764Q59.5539 5.82764 60.3332 6.31982Q61.1125 6.81201 61.5466 7.70068Q61.9806 8.58936 61.9806 9.78564Q61.9806 10.9683 61.5466 11.8535Q61.1125 12.7388 60.3332 13.231Q59.5539 13.7231 58.5216 13.7231ZM58.5216 12.667Q59.3078 12.667 59.8136 12.2671Q60.3195 11.8638 60.5622 11.2075Q60.8083 10.5513 60.8083 9.78564Q60.8083 9.02002 60.5622 8.36035Q60.3195 7.69727 59.8136 7.29053Q59.3078 6.88037 58.5216 6.88037Q57.7355 6.88037 57.2262 7.29053Q56.7204 7.69727 56.4777 8.36035Q56.235 9.02002 56.235 9.78564Q56.235 10.5513 56.4777 11.2075Q56.7204 11.8638 57.2262 12.2671Q57.7355 12.667 58.5216 12.667ZM64.8628 8.96875L64.8628 13.5625L63.6904 13.5625L63.6904 5.92676L64.8252 5.92676L64.8252 7.11963L64.9243 7.11963Q65.1909 6.53857 65.7378 6.18311Q66.2846 5.82764 67.1528 5.82764Q68.3081 5.82764 69.0224 6.53857Q69.7368 7.24951 69.7368 8.70898L69.7368 13.5625L68.5644 13.5625L68.5644 8.79102Q68.5644 7.88867 68.0962 7.38623Q67.6279 6.88037 66.8144 6.88037Q65.9736 6.88037 65.4165 7.42725Q64.8628 7.9707 64.8628 8.96875ZM77.2142 7.63574L76.1581 7.93311Q76.0043 7.53662 75.642 7.18799Q75.2797 6.83936 74.5072 6.83936Q73.8065 6.83936 73.3417 7.16064Q72.8768 7.48193 72.8768 7.97412Q72.8768 8.41162 73.1947 8.66455Q73.516 8.91748 74.1893 9.08838L75.3241 9.36523Q77.351 9.86426 77.351 11.4331Q77.351 12.0894 76.975 12.6089Q76.6024 13.125 75.9291 13.4258Q75.2592 13.7231 74.3705 13.7231Q73.2015 13.7231 72.4359 13.2173Q71.6703 12.708 71.4652 11.7339L72.5795 11.4536Q72.8939 12.6875 74.35 12.6875Q75.1703 12.6875 75.6556 12.3389Q76.141 11.9868 76.141 11.4946Q76.141 10.6846 75.0062 10.4214L73.7347 10.1206Q72.6854 9.87451 72.1932 9.35156Q71.7045 8.8252 71.7045 8.03564Q71.7045 7.38623 72.0702 6.89062Q72.4359 6.39502 73.0682 6.11133Q73.704 5.82764 74.5072 5.82764Q75.642 5.82764 76.2914 6.32666Q76.9408 6.82227 77.2142 7.63574ZM87.2743 7.92627L87.2743 9.02002L82.8207 9.02002L82.8207 7.92627L87.2743 7.92627ZM96.6815 3.38037L96.6815 13.5625L95.4476 13.5625L95.4476 4.67236L95.3861 4.67236L92.9012 6.32324L92.9012 5.07227L95.4476 3.38037L96.6815 3.38037ZM102.845 13.7026Q101.159 13.7026 100.23 12.3354Q99.3035 10.9683 99.3035 8.47314Q99.3035 5.99512 100.237 4.61768Q101.173 3.24023 102.845 3.24023Q104.516 3.24023 105.449 4.61768Q106.386 5.99512 106.386 8.47314Q106.386 10.9683 105.456 12.3354Q104.53 13.7026 102.845 13.7026ZM102.845 12.6089Q103.959 12.6089 104.574 11.5356Q105.193 10.459 105.193 8.47314Q105.193 6.4873 104.571 5.40381Q103.949 4.31689 102.845 4.31689Q101.741 4.31689 101.118 5.40381Q100.496 6.4873 100.496 8.47314Q100.496 10.459 101.115 11.5356Q101.737 12.6089 102.845 12.6089Z" transform="translate(24 2)" fill="#000000" />
    </g>
    <line x1="1" y1="0" x2="1" y2="48.5" fill="none" stroke-width="1" stroke="#BDBDBD" stroke-linecap="square" transform="translate(223 169.5)" />
    <g transform="translate(163 401)">
      <g transform="translate(0 2)">
        <rect width="16" height="16" rx="4" fill="#00BCD4" fill-rule="evenodd" />
        <path d="M1.70711 2.29289C1.31658 1.90237 0.683418 1.90237 0.292893 2.29289C-0.097631 2.68342 -0.097631 3.31658 0.292893 3.70711L2.29289 5.70711C2.68342 6.09763 3.31658 6.09763 3.70711 5.70711L7.70711 1.70711C8.09763 1.31658 8.09763 0.683418 7.70711 0.292893C7.31658 -0.097631 6.68342 -0.097631 6.29289 0.292893L3 3.58579L1.70711 2.29289L1.70711 2.29289Z" fill="#FFFFFF" fill-rule="evenodd" transform="translate(4 5)" />
      </g>
      <path d="M0.676758 4.47412L0.676758 3.38037L8.3125 3.38037L8.3125 4.47412L5.10986 4.47412L5.10986 13.5625L3.87939 13.5625L3.87939 4.47412L0.676758 4.47412ZM9.18642 13.5625L9.18642 5.92676L10.3212 5.92676L10.3212 7.07861L10.3998 7.07861Q10.6083 6.51123 11.1552 6.15918Q11.702 5.80713 12.3891 5.80713Q12.5189 5.80713 12.7104 5.81396Q12.9052 5.81738 13.0043 5.82764L13.0043 7.02051Q12.9462 7.00342 12.7343 6.97266Q12.5224 6.94189 12.2899 6.94189Q11.4525 6.94189 10.9057 7.44775Q10.3588 7.95361 10.3588 8.72949L10.3588 13.5625L9.18642 13.5625ZM16.5657 13.7402Q15.8376 13.7402 15.2463 13.4668Q14.655 13.1899 14.3064 12.667Q13.9578 12.1406 13.9578 11.3955Q13.9578 10.7393 14.2175 10.3291Q14.4773 9.91895 14.908 9.68652Q15.342 9.45068 15.865 9.33447Q16.3914 9.21826 16.9211 9.14648Q17.6184 9.05762 18.0525 9.01318Q18.49 8.96533 18.6882 8.85254Q18.8899 8.73633 18.8899 8.45264L18.8899 8.41162Q18.8899 7.67676 18.49 7.27002Q18.0901 6.85986 17.28 6.85986Q16.4392 6.85986 15.9607 7.229Q15.4856 7.59814 15.2908 8.01514L14.1765 7.61523Q14.4773 6.92139 14.9763 6.53174Q15.4753 6.13867 16.0701 5.98486Q16.6648 5.82764 17.239 5.82764Q17.6082 5.82764 18.0867 5.9165Q18.5686 6.00195 19.0164 6.27197Q19.4675 6.53857 19.7649 7.08203Q20.0657 7.62207 20.0657 8.53125L20.0657 13.5625L18.8899 13.5625L18.8899 12.5269L18.8318 12.5269Q18.7122 12.7764 18.4319 13.0601Q18.155 13.3438 17.6936 13.542Q17.2322 13.7402 16.5657 13.7402ZM16.7434 12.6875Q17.4407 12.6875 17.9192 12.4141Q18.3977 12.1406 18.6438 11.71Q18.8899 11.2759 18.8899 10.7974L18.8899 9.72412Q18.8181 9.81299 18.5652 9.88477Q18.3157 9.95654 17.9875 10.0112Q17.6628 10.0625 17.3552 10.1001Q17.051 10.1377 16.863 10.1616Q16.405 10.2231 16.0085 10.3564Q15.6155 10.4863 15.3728 10.7461Q15.1335 11.0059 15.1335 11.4536Q15.1335 12.0654 15.5881 12.3765Q16.0427 12.6875 16.7434 12.6875ZM22.1315 13.5625L22.1315 5.92676L23.3039 5.92676L23.3039 13.5625L22.1315 13.5625ZM22.7297 4.65186Q22.3845 4.65186 22.1384 4.41943Q21.8923 4.18701 21.8923 3.85889Q21.8923 3.53076 22.1384 3.29834Q22.3845 3.0625 22.7297 3.0625Q23.0715 3.0625 23.3176 3.29834Q23.5637 3.53076 23.5637 3.85889Q23.5637 4.18701 23.3176 4.41943Q23.0715 4.65186 22.7297 4.65186ZM26.5449 8.96875L26.5449 13.5625L25.3726 13.5625L25.3726 5.92676L26.5073 5.92676L26.5073 7.11963L26.6064 7.11963Q26.873 6.53857 27.4199 6.18311Q27.9668 5.82764 28.835 5.82764Q29.9902 5.82764 30.7046 6.53857Q31.4189 7.24951 31.4189 8.70898L31.4189 13.5625L30.2466 13.5625L30.2466 8.79102Q30.2466 7.88867 29.7783 7.38623Q29.3101 6.88037 28.4966 6.88037Q27.6558 6.88037 27.0986 7.42725Q26.5449 7.9707 26.5449 8.96875ZM36.6884 13.7231Q35.5844 13.7231 34.7846 13.2344Q33.9882 12.7422 33.5575 11.8604Q33.1269 10.9785 33.1269 9.80273Q33.1269 8.63037 33.5575 7.73486Q33.9882 6.83594 34.7606 6.3335Q35.5331 5.82764 36.5687 5.82764Q37.1669 5.82764 37.7479 6.02588Q38.329 6.22412 38.8041 6.66846Q39.2826 7.11279 39.5663 7.84424Q39.85 8.57568 39.85 9.64551L39.85 10.1411L34.3061 10.1411Q34.3471 11.3647 34.9999 12.0176Q35.6527 12.667 36.6884 12.667Q37.3788 12.667 37.8744 12.3696Q38.3734 12.0723 38.5956 11.4741L39.7304 11.792Q39.4638 12.6567 38.6571 13.1899Q37.8505 13.7231 36.6884 13.7231ZM34.3061 9.12939L38.6571 9.12939Q38.6571 8.15869 38.0897 7.51953Q37.5224 6.88037 36.5687 6.88037Q35.8988 6.88037 35.4066 7.19482Q34.9145 7.50586 34.6308 8.02197Q34.3471 8.53467 34.3061 9.12939ZM44.4439 13.7231Q43.4903 13.7231 42.7589 13.2378Q42.0274 12.7524 41.6138 11.8672Q41.2003 10.9785 41.2003 9.76514Q41.2003 8.56201 41.6138 7.67676Q42.0274 6.7915 42.7623 6.30957Q43.4971 5.82764 44.4644 5.82764Q45.2095 5.82764 45.6436 6.07373Q46.0777 6.31982 46.3101 6.63086Q46.5425 6.94189 46.669 7.14014L46.7716 7.14014L46.7716 3.38037L47.9439 3.38037L47.9439 13.5625L46.8092 13.5625L46.8092 12.3901L46.669 12.3901Q46.5425 12.5986 46.3033 12.9165Q46.064 13.231 45.6197 13.4771Q45.1788 13.7231 44.4439 13.7231ZM44.6011 12.667Q45.6607 12.667 46.2247 11.8569Q46.7886 11.0435 46.7886 9.74463Q46.7886 8.46289 46.2315 7.67334Q45.6778 6.88037 44.6011 6.88037Q43.856 6.88037 43.3604 7.26318Q42.8682 7.64258 42.6221 8.29199Q42.376 8.93799 42.376 9.74463Q42.376 10.5581 42.6256 11.2246Q42.8785 11.8877 43.3707 12.2773Q43.8663 12.667 44.6011 12.667ZM58.402 7.92627L58.402 9.02002L53.9484 9.02002L53.9484 7.92627L58.402 7.92627ZM67.8092 3.38037L67.8092 13.5625L66.5753 13.5625L66.5753 4.67236L66.5138 4.67236L64.0289 6.32324L64.0289 5.07227L66.5753 3.38037L67.8092 3.38037ZM73.9723 13.7026Q72.2872 13.7026 71.3575 12.3354Q70.4313 10.9683 70.4313 8.47314Q70.4313 5.99512 71.3644 4.61768Q72.3009 3.24023 73.9723 3.24023Q75.6437 3.24023 76.5768 4.61768Q77.5133 5.99512 77.5133 8.47314Q77.5133 10.9683 76.5836 12.3354Q75.6573 13.7026 73.9723 13.7026ZM73.9723 12.6089Q75.0865 12.6089 75.7018 11.5356Q76.3204 10.459 76.3204 8.47314Q76.3204 6.4873 75.6983 5.40381Q75.0763 4.31689 73.9723 4.31689Q72.8683 4.31689 72.2462 5.40381Q71.6241 6.4873 71.6241 8.47314Q71.6241 10.459 72.2428 11.5356Q72.8649 12.6089 73.9723 12.6089Z" transform="translate(24 2)" fill="#000000" />
    </g>
    <line x1="1" y1="0" x2="1" y2="69" fill="none" stroke-width="1" stroke="#BDBDBD" stroke-linecap="square" transform="translate(223 242)" />
    <line x1="1" y1="0" x2="1" y2="66" fill="none" stroke-width="1" stroke="#BDBDBD" stroke-linecap="square" transform="translate(223 335)" />
    <line x1="1" y1="0" x2="1" y2="30" fill="none" stroke-width="1" stroke="#BDBDBD" stroke-linecap="square" transform="translate(223 118)" />
    <line x1="1" y1="0" x2="1" y2="85" fill="none" stroke-width="1" stroke="#BDBDBD" stroke-linecap="square" transform="translate(223 425)" />
    <g transform="translate(163 510)">
      <g transform="translate(0 4)">
        <rect width="16" height="16" rx="8" fill="#00BCD4" fill-rule="evenodd" />
        <path d="M6 3C6 4.65685 4.65685 6 3 6C1.34315 6 0 4.65685 0 3C0 1.34315 1.34315 0 3 0C4.65685 0 6 1.34315 6 3L6 3Z" fill="#FFFFFF" fill-rule="evenodd" transform="translate(5 5)" />
      </g>
      <path d="M1.23389 13.5625L1.23389 3.38037L4.67236 3.38037Q5.87207 3.38037 6.63428 3.81104Q7.39648 4.2417 7.76562 4.97314Q8.13477 5.70117 8.13477 6.60352Q8.13477 7.50244 7.76904 8.2373Q7.40332 8.97217 6.64111 9.40967Q5.88232 9.84375 4.69287 9.84375L2.46436 9.84375L2.46436 13.5625L1.23389 13.5625ZM2.46436 8.75L4.65186 8.75Q5.88232 8.75 6.40186 8.13477Q6.92139 7.51611 6.92139 6.60352Q6.92139 5.68408 6.39844 5.0791Q5.87549 4.47412 4.63477 4.47412L2.46436 4.47412L2.46436 8.75ZM13.0055 13.7231Q11.9015 13.7231 11.1017 13.2344Q10.3053 12.7422 9.87468 11.8604Q9.44401 10.9785 9.44401 9.80273Q9.44401 8.63037 9.87468 7.73486Q10.3053 6.83594 11.0778 6.3335Q11.8503 5.82764 12.8859 5.82764Q13.4841 5.82764 14.0651 6.02588Q14.6462 6.22412 15.1213 6.66846Q15.5998 7.11279 15.8835 7.84424Q16.1672 8.57568 16.1672 9.64551L16.1672 10.1411L10.6232 10.1411Q10.6642 11.3647 11.3171 12.0176Q11.9699 12.667 13.0055 12.667Q13.696 12.667 14.1916 12.3696Q14.6906 12.0723 14.9128 11.4741L16.0475 11.792Q15.7809 12.6567 14.9743 13.1899Q14.1676 13.7231 13.0055 13.7231ZM10.6232 9.12939L14.9743 9.12939Q14.9743 8.15869 14.4069 7.51953Q13.8395 6.88037 12.8859 6.88037Q12.216 6.88037 11.7238 7.19482Q11.2316 7.50586 10.9479 8.02197Q10.6642 8.53467 10.6232 9.12939ZM19.0487 8.96875L19.0487 13.5625L17.8763 13.5625L17.8763 5.92676L19.0111 5.92676L19.0111 7.11963L19.1102 7.11963Q19.3768 6.53857 19.9237 6.18311Q20.4705 5.82764 21.3387 5.82764Q22.494 5.82764 23.2083 6.53857Q23.9227 7.24951 23.9227 8.70898L23.9227 13.5625L22.7503 13.5625L22.7503 8.79102Q22.7503 7.88867 22.2821 7.38623Q21.8138 6.88037 21.0003 6.88037Q20.1595 6.88037 19.6024 7.42725Q19.0487 7.9707 19.0487 8.96875ZM28.8743 13.7231Q27.9206 13.7231 27.1892 13.2378Q26.4578 12.7524 26.0442 11.8672Q25.6306 10.9785 25.6306 9.76514Q25.6306 8.56201 26.0442 7.67676Q26.4578 6.7915 27.1926 6.30957Q27.9275 5.82764 28.8948 5.82764Q29.6399 5.82764 30.074 6.07373Q30.508 6.31982 30.7405 6.63086Q30.9729 6.94189 31.0994 7.14014L31.2019 7.14014L31.2019 3.38037L32.3743 3.38037L32.3743 13.5625L31.2395 13.5625L31.2395 12.3901L31.0994 12.3901Q30.9729 12.5986 30.7336 12.9165Q30.4944 13.231 30.05 13.4771Q29.6091 13.7231 28.8743 13.7231ZM29.0315 12.667Q30.0911 12.667 30.655 11.8569Q31.219 11.0435 31.219 9.74463Q31.219 8.46289 30.6619 7.67334Q30.1081 6.88037 29.0315 6.88037Q28.2864 6.88037 27.7908 7.26318Q27.2986 7.64258 27.0525 8.29199Q26.8064 8.93799 26.8064 9.74463Q26.8064 10.5581 27.0559 11.2246Q27.3088 11.8877 27.801 12.2773Q28.2966 12.667 29.0315 12.667ZM34.5998 13.5625L34.5998 5.92676L35.7722 5.92676L35.7722 13.5625L34.5998 13.5625ZM35.198 4.65186Q34.8528 4.65186 34.6067 4.41943Q34.3606 4.18701 34.3606 3.85889Q34.3606 3.53076 34.6067 3.29834Q34.8528 3.0625 35.198 3.0625Q35.5398 3.0625 35.7859 3.29834Q36.032 3.53076 36.032 3.85889Q36.032 4.18701 35.7859 4.41943Q35.5398 4.65186 35.198 4.65186ZM39.0132 8.96875L39.0132 13.5625L37.8409 13.5625L37.8409 5.92676L38.9756 5.92676L38.9756 7.11963L39.0747 7.11963Q39.3413 6.53857 39.8882 6.18311Q40.4351 5.82764 41.3033 5.82764Q42.4585 5.82764 43.1729 6.53857Q43.8872 7.24951 43.8872 8.70898L43.8872 13.5625L42.7149 13.5625L42.7149 8.79102Q42.7149 7.88867 42.2466 7.38623Q41.7784 6.88037 40.9649 6.88037Q40.1241 6.88037 39.5669 7.42725Q39.0132 7.9707 39.0132 8.96875ZM49.037 16.584Q47.7587 16.584 47.0136 16.1191Q46.2719 15.6543 45.9164 15.0527L46.8495 14.3965Q47.0102 14.605 47.2529 14.875Q47.4955 15.1484 47.9194 15.3501Q48.3466 15.5518 49.037 15.5518Q49.9633 15.5518 50.5649 15.104Q51.1664 14.6562 51.1664 13.7026L51.1664 12.1509L51.0639 12.1509Q50.9374 12.3594 50.6982 12.667Q50.4623 12.9712 50.0214 13.207Q49.5839 13.4429 48.8388 13.4429Q47.9125 13.4429 47.1777 13.0054Q46.4462 12.5679 46.019 11.7339Q45.5952 10.8965 45.5952 9.70361Q45.5952 8.53125 46.0087 7.65967Q46.4223 6.78467 47.1572 6.30615Q47.892 5.82764 48.8593 5.82764Q49.6044 5.82764 50.0419 6.07373Q50.4828 6.31982 50.7187 6.63086Q50.9545 6.94189 51.0844 7.14014L51.204 7.14014L51.204 5.92676L52.3388 5.92676L52.3388 13.7812Q52.3388 14.7656 51.8911 15.3843Q51.4467 16.0029 50.6982 16.2935Q49.9531 16.584 49.037 16.584ZM48.996 12.3901Q50.0556 12.3901 50.6196 11.6724Q51.1835 10.9512 51.1835 9.68311Q51.1835 8.4458 50.6264 7.66309Q50.0727 6.88037 48.996 6.88037Q48.2509 6.88037 47.7553 7.25977Q47.2631 7.63574 47.017 8.2749Q46.7709 8.91064 46.7709 9.68311Q46.7709 10.8794 47.3315 11.6348Q47.892 12.3901 48.996 12.3901ZM58.6798 8.47314Q58.6798 6.59326 59.1685 5.01416Q59.6607 3.43506 60.5699 2.10889L61.6056 2.10889Q61.127 2.76514 60.7374 3.81104Q60.3512 4.85352 60.1222 6.07031Q59.8932 7.28711 59.8932 8.47314Q59.8932 9.65576 60.1222 10.8726Q60.3512 12.0894 60.7374 13.1353Q61.127 14.1777 61.6056 14.834L60.5699 14.834Q59.6607 13.5078 59.1685 11.9287Q58.6798 10.3496 58.6798 8.47314ZM64.6449 3.38037L64.6449 13.5625L63.4145 13.5625L63.4145 3.38037L64.6449 3.38037ZM68.045 8.96875L68.045 13.5625L66.8727 13.5625L66.8727 5.92676L68.0074 5.92676L68.0074 7.11963L68.1066 7.11963Q68.3732 6.53857 68.92 6.18311Q69.4669 5.82764 70.3351 5.82764Q71.4903 5.82764 72.2047 6.53857Q72.9191 7.24951 72.9191 8.70898L72.9191 13.5625L71.7467 13.5625L71.7467 8.79102Q71.7467 7.88867 71.2784 7.38623Q70.8102 6.88037 69.9967 6.88037Q69.1559 6.88037 68.5987 7.42725Q68.045 7.9707 68.045 8.96875ZM80.3965 7.63574L79.3403 7.93311Q79.1865 7.53662 78.8242 7.18799Q78.4619 6.83936 77.6895 6.83936Q76.9888 6.83936 76.5239 7.16064Q76.0591 7.48193 76.0591 7.97412Q76.0591 8.41162 76.377 8.66455Q76.6983 8.91748 77.3716 9.08838L78.5064 9.36523Q80.5332 9.86426 80.5332 11.4331Q80.5332 12.0894 80.1572 12.6089Q79.7847 13.125 79.1113 13.4258Q78.4414 13.7231 77.5527 13.7231Q76.3838 13.7231 75.6182 13.2173Q74.8526 12.708 74.6475 11.7339L75.7617 11.4536Q76.0762 12.6875 77.5322 12.6875Q78.3526 12.6875 78.8379 12.3389Q79.3233 11.9868 79.3233 11.4946Q79.3233 10.6846 78.1885 10.4214L76.917 10.1206Q75.8677 9.87451 75.3755 9.35156Q74.8867 8.8252 74.8867 8.03564Q74.8867 7.38623 75.2525 6.89062Q75.6182 6.39502 76.2505 6.11133Q76.8862 5.82764 77.6895 5.82764Q78.8242 5.82764 79.4736 6.32666Q80.1231 6.82227 80.3965 7.63574ZM85.5463 5.92676L85.5463 6.92139L83.9159 6.92139L83.9159 11.375Q83.9159 11.8706 84.0629 12.1167Q84.2099 12.3628 84.4389 12.4448Q84.6713 12.5269 84.9277 12.5269Q85.1225 12.5269 85.2455 12.5063Q85.372 12.4824 85.4472 12.4688L85.6864 13.5215Q85.5668 13.5659 85.3515 13.6138Q85.1396 13.6616 84.8114 13.6616Q84.3124 13.6616 83.8373 13.4497Q83.3622 13.2344 83.0512 12.7969Q82.7402 12.3594 82.7402 11.6929L82.7402 6.92139L81.5883 6.92139L81.5883 5.92676L82.7402 5.92676L82.7402 4.09814L83.9159 4.09814L83.9159 5.92676L85.5463 5.92676ZM89.484 13.7402Q88.7559 13.7402 88.1646 13.4668Q87.5733 13.1899 87.2247 12.667Q86.8761 12.1406 86.8761 11.3955Q86.8761 10.7393 87.1358 10.3291Q87.3956 9.91895 87.8263 9.68652Q88.2603 9.45068 88.7833 9.33447Q89.3097 9.21826 89.8394 9.14648Q90.5367 9.05762 90.9708 9.01318Q91.4083 8.96533 91.6065 8.85254Q91.8082 8.73633 91.8082 8.45264L91.8082 8.41162Q91.8082 7.67676 91.4083 7.27002Q91.0084 6.85986 90.1983 6.85986Q89.3575 6.85986 88.879 7.229Q88.4039 7.59814 88.2091 8.01514L87.0948 7.61523Q87.3956 6.92139 87.8946 6.53174Q88.3936 6.13867 88.9884 5.98486Q89.5831 5.82764 90.1573 5.82764Q90.5265 5.82764 91.005 5.9165Q91.4869 6.00195 91.9347 6.27197Q92.3858 6.53857 92.6832 7.08203Q92.984 7.62207 92.984 8.53125L92.984 13.5625L91.8082 13.5625L91.8082 12.5269L91.7501 12.5269Q91.6305 12.7764 91.3502 13.0601Q91.0733 13.3438 90.6119 13.542Q90.1505 13.7402 89.484 13.7402ZM89.6617 12.6875Q90.359 12.6875 90.8375 12.4141Q91.316 12.1406 91.5621 11.71Q91.8082 11.2759 91.8082 10.7974L91.8082 9.72412Q91.7364 9.81299 91.4835 9.88477Q91.234 9.95654 90.9058 10.0112Q90.5811 10.0625 90.2735 10.1001Q89.9693 10.1377 89.7813 10.1616Q89.3233 10.2231 88.9268 10.3564Q88.5338 10.4863 88.2911 10.7461Q88.0518 11.0059 88.0518 11.4536Q88.0518 12.0654 88.5064 12.3765Q88.961 12.6875 89.6617 12.6875ZM96.2222 3.38037L96.2222 13.5625L95.0498 13.5625L95.0498 3.38037L96.2222 3.38037ZM99.4632 3.38037L99.4632 13.5625L98.2909 13.5625L98.2909 3.38037L99.4632 3.38037ZM103.781 13.7402Q103.053 13.7402 102.462 13.4668Q101.87 13.1899 101.522 12.667Q101.173 12.1406 101.173 11.3955Q101.173 10.7393 101.433 10.3291Q101.693 9.91895 102.123 9.68652Q102.557 9.45068 103.08 9.33447Q103.607 9.21826 104.136 9.14648Q104.834 9.05762 105.268 9.01318Q105.705 8.96533 105.903 8.85254Q106.105 8.73633 106.105 8.45264L106.105 8.41162Q106.105 7.67676 105.705 7.27002Q105.305 6.85986 104.495 6.85986Q103.654 6.85986 103.176 7.229Q102.701 7.59814 102.506 8.01514L101.392 7.61523Q101.693 6.92139 102.192 6.53174Q102.691 6.13867 103.285 5.98486Q103.88 5.82764 104.454 5.82764Q104.823 5.82764 105.302 5.9165Q105.784 6.00195 106.232 6.27197Q106.683 6.53857 106.98 7.08203Q107.281 7.62207 107.281 8.53125L107.281 13.5625L106.105 13.5625L106.105 12.5269L106.047 12.5269Q105.927 12.7764 105.647 13.0601Q105.37 13.3438 104.909 13.542Q104.447 13.7402 103.781 13.7402ZM103.959 12.6875Q104.656 12.6875 105.134 12.4141Q105.613 12.1406 105.859 11.71Q106.105 11.2759 106.105 10.7974L106.105 9.72412Q106.033 9.81299 105.78 9.88477Q105.531 9.95654 105.203 10.0112Q104.878 10.0625 104.57 10.1001Q104.266 10.1377 104.078 10.1616Q103.62 10.2231 103.224 10.3564Q102.831 10.4863 102.588 10.7461Q102.349 11.0059 102.349 11.4536Q102.349 12.0654 102.803 12.3765Q103.258 12.6875 103.959 12.6875ZM112.669 5.92676L112.669 6.92139L111.039 6.92139L111.039 11.375Q111.039 11.8706 111.186 12.1167Q111.333 12.3628 111.562 12.4448Q111.794 12.5269 112.05 12.5269Q112.245 12.5269 112.368 12.5063Q112.495 12.4824 112.57 12.4688L112.809 13.5215Q112.69 13.5659 112.474 13.6138Q112.262 13.6616 111.934 13.6616Q111.435 13.6616 110.96 13.4497Q110.485 13.2344 110.174 12.7969Q109.863 12.3594 109.863 11.6929L109.863 6.92139L108.711 6.92139L108.711 5.92676L109.863 5.92676L109.863 4.09814L111.039 4.09814L111.039 5.92676L112.669 5.92676ZM114.358 13.5625L114.358 5.92676L115.53 5.92676L115.53 13.5625L114.358 13.5625ZM114.956 4.65186Q114.611 4.65186 114.365 4.41943Q114.118 4.18701 114.118 3.85889Q114.118 3.53076 114.365 3.29834Q114.611 3.0625 114.956 3.0625Q115.298 3.0625 115.544 3.29834Q115.79 3.53076 115.79 3.85889Q115.79 4.18701 115.544 4.41943Q115.298 4.65186 114.956 4.65186ZM120.702 13.7231Q119.667 13.7231 118.887 13.231Q118.111 12.7388 117.674 11.8535Q117.24 10.9683 117.24 9.78564Q117.24 8.58936 117.674 7.70068Q118.111 6.81201 118.887 6.31982Q119.667 5.82764 120.702 5.82764Q121.734 5.82764 122.514 6.31982Q123.293 6.81201 123.727 7.70068Q124.161 8.58936 124.161 9.78564Q124.161 10.9683 123.727 11.8535Q123.293 12.7388 122.514 13.231Q121.734 13.7231 120.702 13.7231ZM120.702 12.667Q121.488 12.667 121.994 12.2671Q122.5 11.8638 122.743 11.2075Q122.989 10.5513 122.989 9.78564Q122.989 9.02002 122.743 8.36035Q122.5 7.69727 121.994 7.29053Q121.488 6.88037 120.702 6.88037Q119.916 6.88037 119.407 7.29053Q118.901 7.69727 118.658 8.36035Q118.416 9.02002 118.416 9.78564Q118.416 10.5513 118.658 11.2075Q118.901 11.8638 119.407 12.2671Q119.916 12.667 120.702 12.667ZM127.043 8.96875L127.043 13.5625L125.871 13.5625L125.871 5.92676L127.006 5.92676L127.006 7.11963L127.105 7.11963Q127.371 6.53857 127.918 6.18311Q128.465 5.82764 129.333 5.82764Q130.489 5.82764 131.203 6.53857Q131.917 7.24951 131.917 8.70898L131.917 13.5625L130.745 13.5625L130.745 8.79102Q130.745 7.88867 130.277 7.38623Q129.808 6.88037 128.995 6.88037Q128.154 6.88037 127.597 7.42725Q127.043 7.9707 127.043 8.96875ZM139.395 7.63574L138.339 7.93311Q138.185 7.53662 137.823 7.18799Q137.46 6.83936 136.688 6.83936Q135.987 6.83936 135.522 7.16064Q135.057 7.48193 135.057 7.97412Q135.057 8.41162 135.375 8.66455Q135.697 8.91748 136.37 9.08838L137.505 9.36523Q139.532 9.86426 139.532 11.4331Q139.532 12.0894 139.156 12.6089Q138.783 13.125 138.11 13.4258Q137.44 13.7231 136.551 13.7231Q135.382 13.7231 134.616 13.2173Q133.851 12.708 133.646 11.7339L134.76 11.4536Q135.074 12.6875 136.531 12.6875Q137.351 12.6875 137.836 12.3389Q138.322 11.9868 138.322 11.4946Q138.322 10.6846 137.187 10.4214L135.915 10.1206Q134.866 9.87451 134.374 9.35156Q133.885 8.8252 133.885 8.03564Q133.885 7.38623 134.251 6.89062Q134.616 6.39502 135.249 6.11133Q135.885 5.82764 136.688 5.82764Q137.823 5.82764 138.472 6.32666Q139.121 6.82227 139.395 7.63574ZM148.064 11.7715L148.064 9.04736L145.34 9.04736L145.34 7.93311L148.064 7.93311L148.064 5.20898L149.178 5.20898L149.178 7.93311L151.902 7.93311L151.902 9.04736L149.178 9.04736L149.178 11.7715L148.064 11.7715ZM157.688 4.47412L157.688 3.38037L165.324 3.38037L165.324 4.47412L162.121 4.47412L162.121 13.5625L160.891 13.5625L160.891 4.47412L157.688 4.47412ZM166.198 13.5625L166.198 5.92676L167.333 5.92676L167.333 7.07861L167.411 7.07861Q167.62 6.51123 168.167 6.15918Q168.713 5.80713 169.4 5.80713Q169.53 5.80713 169.722 5.81396Q169.917 5.81738 170.016 5.82764L170.016 7.02051Q169.958 7.00342 169.746 6.97266Q169.534 6.94189 169.301 6.94189Q168.464 6.94189 167.917 7.44775Q167.37 7.95361 167.37 8.72949L167.37 13.5625L166.198 13.5625ZM173.577 13.7402Q172.849 13.7402 172.258 13.4668Q171.666 13.1899 171.318 12.667Q170.969 12.1406 170.969 11.3955Q170.969 10.7393 171.229 10.3291Q171.489 9.91895 171.919 9.68652Q172.353 9.45068 172.876 9.33447Q173.403 9.21826 173.933 9.14648Q174.63 9.05762 175.064 9.01318Q175.501 8.96533 175.7 8.85254Q175.901 8.73633 175.901 8.45264L175.901 8.41162Q175.901 7.67676 175.501 7.27002Q175.101 6.85986 174.291 6.85986Q173.451 6.85986 172.972 7.229Q172.497 7.59814 172.302 8.01514L171.188 7.61523Q171.489 6.92139 171.988 6.53174Q172.487 6.13867 173.081 5.98486Q173.676 5.82764 174.25 5.82764Q174.62 5.82764 175.098 5.9165Q175.58 6.00195 176.028 6.27197Q176.479 6.53857 176.776 7.08203Q177.077 7.62207 177.077 8.53125L177.077 13.5625L175.901 13.5625L175.901 12.5269L175.843 12.5269Q175.724 12.7764 175.443 13.0601Q175.166 13.3438 174.705 13.542Q174.244 13.7402 173.577 13.7402ZM173.755 12.6875Q174.452 12.6875 174.931 12.4141Q175.409 12.1406 175.655 11.71Q175.901 11.2759 175.901 10.7974L175.901 9.72412Q175.829 9.81299 175.577 9.88477Q175.327 9.95654 174.999 10.0112Q174.674 10.0625 174.367 10.1001Q174.062 10.1377 173.874 10.1616Q173.416 10.2231 173.02 10.3564Q172.627 10.4863 172.384 10.7461Q172.145 11.0059 172.145 11.4536Q172.145 12.0654 172.6 12.3765Q173.054 12.6875 173.755 12.6875ZM179.143 13.5625L179.143 5.92676L180.315 5.92676L180.315 13.5625L179.143 13.5625ZM179.741 4.65186Q179.396 4.65186 179.15 4.41943Q178.904 4.18701 178.904 3.85889Q178.904 3.53076 179.15 3.29834Q179.396 3.0625 179.741 3.0625Q180.083 3.0625 180.329 3.29834Q180.575 3.53076 180.575 3.85889Q180.575 4.18701 180.329 4.41943Q180.083 4.65186 179.741 4.65186ZM183.556 8.96875L183.556 13.5625L182.384 13.5625L182.384 5.92676L183.519 5.92676L183.519 7.11963L183.618 7.11963Q183.884 6.53857 184.431 6.18311Q184.978 5.82764 185.846 5.82764Q187.002 5.82764 187.716 6.53857Q188.43 7.24951 188.43 8.70898L188.43 13.5625L187.258 13.5625L187.258 8.79102Q187.258 7.88867 186.79 7.38623Q186.321 6.88037 185.508 6.88037Q184.667 6.88037 184.11 7.42725Q183.556 7.9707 183.556 8.96875ZM190.497 13.5625L190.497 5.92676L191.669 5.92676L191.669 13.5625L190.497 13.5625ZM191.095 4.65186Q190.75 4.65186 190.504 4.41943Q190.258 4.18701 190.258 3.85889Q190.258 3.53076 190.504 3.29834Q190.75 3.0625 191.095 3.0625Q191.437 3.0625 191.683 3.29834Q191.929 3.53076 191.929 3.85889Q191.929 4.18701 191.683 4.41943Q191.437 4.65186 191.095 4.65186ZM194.91 8.96875L194.91 13.5625L193.738 13.5625L193.738 5.92676L194.873 5.92676L194.873 7.11963L194.972 7.11963Q195.239 6.53857 195.785 6.18311Q196.332 5.82764 197.201 5.82764Q198.356 5.82764 199.07 6.53857Q199.785 7.24951 199.785 8.70898L199.785 13.5625L198.612 13.5625L198.612 8.79102Q198.612 7.88867 198.144 7.38623Q197.676 6.88037 196.862 6.88037Q196.021 6.88037 195.464 7.42725Q194.91 7.9707 194.91 8.96875ZM204.934 16.584Q203.656 16.584 202.911 16.1191Q202.169 15.6543 201.814 15.0527L202.747 14.3965Q202.907 14.605 203.15 14.875Q203.393 15.1484 203.817 15.3501Q204.244 15.5518 204.934 15.5518Q205.861 15.5518 206.462 15.104Q207.064 14.6562 207.064 13.7026L207.064 12.1509L206.961 12.1509Q206.835 12.3594 206.595 12.667Q206.36 12.9712 205.919 13.207Q205.481 13.4429 204.736 13.4429Q203.81 13.4429 203.075 13.0054Q202.344 12.5679 201.916 11.7339Q201.492 10.8965 201.492 9.70361Q201.492 8.53125 201.906 7.65967Q202.32 6.78467 203.054 6.30615Q203.789 5.82764 204.757 5.82764Q205.502 5.82764 205.939 6.07373Q206.38 6.31982 206.616 6.63086Q206.852 6.94189 206.982 7.14014L207.101 7.14014L207.101 5.92676L208.236 5.92676L208.236 13.7812Q208.236 14.7656 207.788 15.3843Q207.344 16.0029 206.595 16.2935Q205.85 16.584 204.934 16.584ZM204.893 12.3901Q205.953 12.3901 206.517 11.6724Q207.081 10.9512 207.081 9.68311Q207.081 8.4458 206.524 7.66309Q205.97 6.88037 204.893 6.88037Q204.148 6.88037 203.653 7.25977Q203.16 7.63574 202.914 8.2749Q202.668 8.91064 202.668 9.68311Q202.668 10.8794 203.229 11.6348Q203.789 12.3901 204.893 12.3901ZM215.713 7.63574L214.657 7.93311Q214.503 7.53662 214.141 7.18799Q213.779 6.83936 213.006 6.83936Q212.305 6.83936 211.841 7.16064Q211.376 7.48193 211.376 7.97412Q211.376 8.41162 211.694 8.66455Q212.015 8.91748 212.688 9.08838L213.823 9.36523Q215.85 9.86426 215.85 11.4331Q215.85 12.0894 215.474 12.6089Q215.101 13.125 214.428 13.4258Q213.758 13.7231 212.869 13.7231Q211.701 13.7231 210.935 13.2173Q210.169 12.708 209.964 11.7339L211.078 11.4536Q211.393 12.6875 212.849 12.6875Q213.669 12.6875 214.155 12.3389Q214.64 11.9868 214.64 11.4946Q214.64 10.6846 213.505 10.4214L212.234 10.1206Q211.184 9.87451 210.692 9.35156Q210.203 8.8252 210.203 8.03564Q210.203 7.38623 210.569 6.89062Q210.935 6.39502 211.567 6.11133Q212.203 5.82764 213.006 5.82764Q214.141 5.82764 214.79 6.32666Q215.44 6.82227 215.713 7.63574ZM220.046 9.26611Q220.046 11.146 219.557 12.7251Q219.069 14.3042 218.159 15.6304L217.124 15.6304Q217.602 14.9741 217.988 13.9282Q218.378 12.8857 218.604 11.6689Q218.833 10.4487 218.833 9.26611Q218.833 8.0835 218.604 6.8667Q218.378 5.64648 217.988 4.604Q217.602 3.55811 217.124 2.90186L218.159 2.90186Q219.069 4.23145 219.557 5.81055Q220.046 7.38623 220.046 9.26611ZM230.764 7.92627L230.764 9.02002L226.311 9.02002L226.311 7.92627L230.764 7.92627ZM240.171 3.38037L240.171 13.5625L238.938 13.5625L238.938 4.67236L238.876 4.67236L236.391 6.32324L236.391 5.07227L238.938 3.38037L240.171 3.38037Z" transform="translate(24 2)" fill="#000000" />
    </g>
  </g>
</svg>