<?xml version="1.0" encoding="utf-8"?>
<svg width="644" height="679" viewBox="0 0 644 679" fill="none" xmlns="http://www.w3.org/2000/svg">
  <g>
    <rect width="644" height="679" fill="#DCDCDC" fill-rule="evenodd" />
    <g transform="translate(163 218)">
      <g transform="translate(0 2)">
        <rect width="16" height="16" rx="4" fill="#00BCD4" fill-rule="evenodd" />
        <path d="M1.70711 2.29289C1.31658 1.90237 0.683418 1.90237 0.292893 2.29289C-0.097631 2.68342 -0.097631 3.31658 0.292893 3.70711L2.29289 5.70711C2.68342 6.09763 3.31658 6.09763 3.70711 5.70711L7.70711 1.70711C8.09763 1.31658 8.09763 0.683418 7.70711 0.292893C7.31658 -0.097631 6.68342 -0.097631 6.29289 0.292893L3 3.58579L1.70711 2.29289L1.70711 2.29289Z" fill="#FFFFFF" fill-rule="evenodd" transform="translate(4 5)" />
      </g>
      <path d="M6.80176 5.92676Q6.71289 5.17139 6.07373 4.75439Q5.43799 4.33398 4.51514 4.33398Q3.5 4.33398 2.88135 4.81592Q2.26611 5.29443 2.26611 6.02588Q2.26611 6.57275 2.60107 6.90771Q2.93945 7.24268 3.39746 7.43066Q3.85889 7.61523 4.23486 7.71436L5.27051 7.99463Q5.66699 8.09717 6.15576 8.28174Q6.64795 8.46631 7.0957 8.78418Q7.54688 9.09863 7.84082 9.59082Q8.13477 10.083 8.13477 10.7974Q8.13477 11.6245 7.7041 12.291Q7.27344 12.9575 6.44971 13.3506Q5.62939 13.7402 4.45361 13.7402Q2.81299 13.7402 1.84912 12.9678Q0.885254 12.1919 0.796387 10.9375L2.06787 10.9375Q2.11914 11.5151 2.45752 11.8911Q2.79932 12.2637 3.32227 12.4482Q3.84863 12.6294 4.45361 12.6294Q5.16113 12.6294 5.72168 12.397Q6.28564 12.1646 6.61377 11.751Q6.94189 11.334 6.94189 10.7769Q6.94189 10.271 6.6582 9.95312Q6.37451 9.63525 5.90967 9.43701Q5.44824 9.23877 4.91162 9.08838L3.66064 8.72949Q2.46436 8.3877 1.76709 7.75195Q1.07324 7.11279 1.07324 6.08398Q1.07324 5.22949 1.53809 4.59033Q2.00293 3.95117 2.78906 3.5957Q3.57861 3.24023 4.55273 3.24023Q5.53711 3.24023 6.30273 3.59229Q7.06836 3.94092 7.51953 4.54932Q7.9707 5.1543 7.99463 5.92676L6.80176 5.92676ZM13.0257 13.7231Q11.9525 13.7231 11.1766 13.2173Q10.4007 12.708 9.98032 11.8193Q9.56333 10.9272 9.56333 9.78564Q9.56333 8.62012 9.994 7.72803Q10.4247 6.83594 11.1971 6.3335Q11.9696 5.82764 13.0052 5.82764Q13.8119 5.82764 14.4579 6.125Q15.1039 6.42236 15.514 6.95898Q15.9276 7.49561 16.0267 8.21338L14.8543 8.21338Q14.721 7.69043 14.2596 7.28711Q13.8016 6.88037 13.0257 6.88037Q11.9969 6.88037 11.368 7.66309Q10.7391 8.4458 10.7391 9.74463Q10.7391 11.0708 11.3578 11.8706Q11.9798 12.667 13.0257 12.667Q13.7127 12.667 14.2015 12.3149Q14.6903 11.9629 14.8543 11.334L16.0267 11.334Q15.9276 12.0107 15.5379 12.5508Q15.1483 13.0908 14.5091 13.4087Q13.87 13.7231 13.0257 13.7231ZM18.8299 8.96875L18.8299 13.5625L17.6576 13.5625L17.6576 3.38037L18.8299 3.38037L18.8299 7.11963L18.9325 7.11963Q19.1991 6.52832 19.7391 6.17969Q20.2791 5.82764 21.1781 5.82764Q22.3504 5.82764 23.0648 6.53516Q23.7826 7.23926 23.7826 8.70898L23.7826 13.5625L22.6102 13.5625L22.6102 8.79102Q22.6102 7.87842 22.1385 7.37939Q21.6703 6.88037 20.8397 6.88037Q19.9715 6.88037 19.4007 7.42725Q18.8299 7.9707 18.8299 8.96875ZM28.9538 13.7231Q27.9182 13.7231 27.1389 13.231Q26.363 12.7388 25.9255 11.8535Q25.4914 10.9683 25.4914 9.78564Q25.4914 8.58936 25.9255 7.70068Q26.363 6.81201 27.1389 6.31982Q27.9182 5.82764 28.9538 5.82764Q29.986 5.82764 30.7653 6.31982Q31.5446 6.81201 31.9787 7.70068Q32.4128 8.58936 32.4128 9.78564Q32.4128 10.9683 31.9787 11.8535Q31.5446 12.7388 30.7653 13.231Q29.986 13.7231 28.9538 13.7231ZM28.9538 12.667Q29.7399 12.667 30.2458 12.2671Q30.7517 11.8638 30.9943 11.2075Q31.2404 10.5513 31.2404 9.78564Q31.2404 9.02002 30.9943 8.36035Q30.7517 7.69727 30.2458 7.29053Q29.7399 6.88037 28.9538 6.88037Q28.1677 6.88037 27.6584 7.29053Q27.1525 7.69727 26.9099 8.36035Q26.6672 9.02002 26.6672 9.78564Q26.6672 10.5513 26.9099 11.2075Q27.1525 11.8638 27.6584 12.2671Q28.1677 12.667 28.9538 12.667ZM37.2261 13.7231Q36.1904 13.7231 35.4111 13.231Q34.6353 12.7388 34.1978 11.8535Q33.7637 10.9683 33.7637 9.78564Q33.7637 8.58936 34.1978 7.70068Q34.6353 6.81201 35.4111 6.31982Q36.1904 5.82764 37.2261 5.82764Q38.2583 5.82764 39.0376 6.31982Q39.8169 6.81201 40.251 7.70068Q40.6851 8.58936 40.6851 9.78564Q40.6851 10.9683 40.251 11.8535Q39.8169 12.7388 39.0376 13.231Q38.2583 13.7231 37.2261 13.7231ZM37.2261 12.667Q38.0122 12.667 38.5181 12.2671Q39.0239 11.8638 39.2666 11.2075Q39.5127 10.5513 39.5127 9.78564Q39.5127 9.02002 39.2666 8.36035Q39.0239 7.69727 38.5181 7.29053Q38.0122 6.88037 37.2261 6.88037Q36.4399 6.88037 35.9307 7.29053Q35.4248 7.69727 35.1821 8.36035Q34.9395 9.02002 34.9395 9.78564Q34.9395 10.5513 35.1821 11.2075Q35.4248 11.8638 35.9307 12.2671Q36.4399 12.667 37.2261 12.667ZM43.5672 3.38037L43.5672 13.5625L42.3948 13.5625L42.3948 3.38037L43.5672 3.38037ZM51.0465 7.63574L49.9904 7.93311Q49.8365 7.53662 49.4742 7.18799Q49.1119 6.83936 48.3395 6.83936Q47.6388 6.83936 47.1739 7.16064Q46.7091 7.48193 46.7091 7.97412Q46.7091 8.41162 47.027 8.66455Q47.3483 8.91748 48.0216 9.08838L49.1564 9.36523Q51.1832 9.86426 51.1832 11.4331Q51.1832 12.0894 50.8072 12.6089Q50.4347 13.125 49.7613 13.4258Q49.0914 13.7231 48.2028 13.7231Q47.0338 13.7231 46.2682 13.2173Q45.5026 12.708 45.2975 11.7339L46.4117 11.4536Q46.7262 12.6875 48.1822 12.6875Q49.0026 12.6875 49.4879 12.3389Q49.9733 11.9868 49.9733 11.4946Q49.9733 10.6846 48.8385 10.4214L47.567 10.1206Q46.5177 9.87451 46.0255 9.35156Q45.5367 8.8252 45.5367 8.03564Q45.5367 7.38623 45.9025 6.89062Q46.2682 6.39502 46.9005 6.11133Q47.5363 5.82764 48.3395 5.82764Q49.4742 5.82764 50.1237 6.32666Q50.7731 6.82227 51.0465 7.63574ZM56.8922 13.5625L56.8922 3.38037L60.3307 3.38037Q61.5304 3.38037 62.2926 3.81104Q63.0548 4.2417 63.4239 4.97314Q63.7931 5.70117 63.7931 6.60352Q63.7931 7.50244 63.4273 8.2373Q63.0616 8.97217 62.2994 9.40967Q61.5406 9.84375 60.3512 9.84375L58.1227 9.84375L58.1227 13.5625L56.8922 13.5625ZM58.1227 8.75L60.3102 8.75Q61.5406 8.75 62.0602 8.13477Q62.5797 7.51611 62.5797 6.60352Q62.5797 5.68408 62.0567 5.0791Q61.5338 4.47412 60.2931 4.47412L58.1227 4.47412L58.1227 8.75ZM65.5407 13.5625L65.5407 5.92676L66.7131 5.92676L66.7131 13.5625L65.5407 13.5625ZM66.1389 4.65186Q65.7937 4.65186 65.5476 4.41943Q65.3015 4.18701 65.3015 3.85889Q65.3015 3.53076 65.5476 3.29834Q65.7937 3.0625 66.1389 3.0625Q66.4807 3.0625 66.7268 3.29834Q66.9729 3.53076 66.9729 3.85889Q66.9729 4.18701 66.7268 4.41943Q66.4807 4.65186 66.1389 4.65186ZM71.8853 13.7231Q70.812 13.7231 70.0362 13.2173Q69.2603 12.708 68.8399 11.8193Q68.4229 10.9272 68.4229 9.78564Q68.4229 8.62012 68.8535 7.72803Q69.2842 6.83594 70.0567 6.3335Q70.8291 5.82764 71.8648 5.82764Q72.6714 5.82764 73.3174 6.125Q73.9634 6.42236 74.3736 6.95898Q74.7871 7.49561 74.8863 8.21338L73.7139 8.21338Q73.5806 7.69043 73.1192 7.28711Q72.6612 6.88037 71.8853 6.88037Q70.8565 6.88037 70.2276 7.66309Q69.5987 8.4458 69.5987 9.74463Q69.5987 11.0708 70.2173 11.8706Q70.8394 12.667 71.8853 12.667Q72.5723 12.667 73.0611 12.3149Q73.5498 11.9629 73.7139 11.334L74.8863 11.334Q74.7871 12.0107 74.3975 12.5508Q74.0078 13.0908 73.3687 13.4087Q72.7295 13.7231 71.8853 13.7231ZM76.5171 13.5625L76.5171 3.38037L77.6895 3.38037L77.6895 9.32764L77.8296 9.32764L81.1724 5.92676L82.6216 5.92676L79.395 9.1875L82.8609 13.5625L81.3706 13.5625L78.5098 9.94287L77.6895 10.7051L77.6895 13.5625L76.5171 13.5625ZM94.7539 3.38037L95.9843 3.38037L95.9843 10.1206Q95.9843 11.1665 95.4956 11.9834Q95.0068 12.8003 94.1147 13.272Q93.226 13.7402 92.0297 13.7402Q90.83 13.7402 89.9379 13.272Q89.0493 12.8003 88.5605 11.9834Q88.0717 11.1665 88.0717 10.1206L88.0717 3.38037L89.3022 3.38037L89.3022 10.0215Q89.3022 11.1426 90.0268 11.8672Q90.7548 12.5884 92.0297 12.5884Q93.3046 12.5884 94.0293 11.8672Q94.7539 11.1426 94.7539 10.0215L94.7539 3.38037ZM98.2118 16.4268L98.2118 5.92676L99.3465 5.92676L99.3465 7.14014L99.4867 7.14014Q99.6131 6.94189 99.8456 6.63086Q100.078 6.31982 100.512 6.07373Q100.946 5.82764 101.691 5.82764Q102.659 5.82764 103.393 6.30957Q104.128 6.7915 104.542 7.67676Q104.955 8.56201 104.955 9.76514Q104.955 10.9785 104.542 11.8672Q104.128 12.7524 103.397 13.2378Q102.665 13.7231 101.712 13.7231Q100.977 13.7231 100.533 13.4771Q100.092 13.231 99.8524 12.9165Q99.6131 12.5986 99.4867 12.3901L99.3841 12.3901L99.3841 16.4268L98.2118 16.4268ZM99.367 9.74463Q99.367 11.0435 99.931 11.8569Q100.495 12.667 101.555 12.667Q102.289 12.667 102.782 12.2773Q103.277 11.8877 103.527 11.2246Q103.78 10.5581 103.78 9.74463Q103.78 8.93799 103.534 8.29199Q103.287 7.64258 102.792 7.26318Q102.3 6.88037 101.555 6.88037Q100.478 6.88037 99.9208 7.67334Q99.367 8.46289 99.367 9.74463ZM112.074 7.63574L111.018 7.93311Q110.864 7.53662 110.501 7.18799Q110.139 6.83936 109.367 6.83936Q108.666 6.83936 108.201 7.16064Q107.736 7.48193 107.736 7.97412Q107.736 8.41162 108.054 8.66455Q108.375 8.91748 109.049 9.08838L110.184 9.36523Q112.21 9.86426 112.21 11.4331Q112.21 12.0894 111.834 12.6089Q111.462 13.125 110.789 13.4258Q110.119 13.7231 109.23 13.7231Q108.061 13.7231 107.295 13.2173Q106.53 12.708 106.325 11.7339L107.439 11.4536Q107.753 12.6875 109.209 12.6875Q110.03 12.6875 110.515 12.3389Q111 11.9868 111 11.4946Q111 10.6846 109.866 10.4214L108.594 10.1206Q107.545 9.87451 107.053 9.35156Q106.564 8.8252 106.564 8.03564Q106.564 7.38623 106.93 6.89062Q107.295 6.39502 107.928 6.11133Q108.563 5.82764 109.367 5.82764Q110.501 5.82764 111.151 6.32666Q111.8 6.82227 112.074 7.63574ZM122.134 7.92627L122.134 9.02002L117.68 9.02002L117.68 7.92627L122.134 7.92627ZM127.959 13.5625L127.959 12.667L131.322 8.98926Q131.913 8.34326 132.296 7.86475Q132.679 7.38281 132.864 6.95898Q133.052 6.53174 133.052 6.06689Q133.052 5.26025 132.491 4.78857Q131.934 4.31689 131.103 4.31689Q130.218 4.31689 129.695 4.84668Q129.172 5.37305 129.172 6.24463L128 6.24463Q128 5.34912 128.41 4.67236Q128.824 3.99561 129.538 3.61963Q130.252 3.24023 131.141 3.24023Q132.036 3.24023 132.727 3.61963Q133.417 3.99561 133.81 4.63818Q134.203 5.28076 134.203 6.06689Q134.203 6.62744 134.002 7.16406Q133.8 7.69727 133.305 8.3501Q132.812 9.00293 131.937 9.94287L129.651 12.3901L129.651 12.4688L134.385 12.4688L134.385 13.5625L127.959 13.5625ZM135.896 11.4741L135.896 10.459L140.37 3.38037L141.86 3.38037L141.86 10.3804L143.251 10.3804L143.251 11.4741L141.86 11.4741L141.86 13.5625L140.688 13.5625L140.688 11.4741L135.896 11.4741ZM140.688 10.3804L140.688 4.95264L140.606 4.95264L137.225 10.3018L137.225 10.3804L140.688 10.3804ZM148.66 2.90186L145.379 15.0938L144.305 15.0938L147.587 2.90186L148.66 2.90186ZM153.274 13.7026Q151.589 13.7026 150.659 12.3354Q149.733 10.9683 149.733 8.47314Q149.733 5.99512 150.666 4.61768Q151.603 3.24023 153.274 3.24023Q154.945 3.24023 155.879 4.61768Q156.815 5.99512 156.815 8.47314Q156.815 10.9683 155.885 12.3354Q154.959 13.7026 153.274 13.7026ZM153.274 12.6089Q154.388 12.6089 155.004 11.5356Q155.622 10.459 155.622 8.47314Q155.622 6.4873 155 5.40381Q154.378 4.31689 153.274 4.31689Q152.17 4.31689 151.548 5.40381Q150.926 6.4873 150.926 8.47314Q150.926 10.459 151.545 11.5356Q152.167 12.6089 153.274 12.6089ZM158.661 13.5625L163.217 4.55273L163.217 4.47412L157.967 4.47412L157.967 3.38037L164.489 3.38037L164.489 4.53564L159.957 13.5625L158.661 13.5625ZM169.877 2.90186L166.596 15.0938L165.523 15.0938L168.804 2.90186L169.877 2.90186ZM171.169 13.5625L171.169 12.667L174.533 8.98926Q175.124 8.34326 175.507 7.86475Q175.889 7.38281 176.074 6.95898Q176.262 6.53174 176.262 6.06689Q176.262 5.26025 175.701 4.78857Q175.144 4.31689 174.314 4.31689Q173.428 4.31689 172.906 4.84668Q172.383 5.37305 172.383 6.24463L171.21 6.24463Q171.21 5.34912 171.62 4.67236Q172.034 3.99561 172.748 3.61963Q173.463 3.24023 174.351 3.24023Q175.247 3.24023 175.937 3.61963Q176.628 3.99561 177.021 4.63818Q177.414 5.28076 177.414 6.06689Q177.414 6.62744 177.212 7.16406Q177.011 7.69727 176.515 8.3501Q176.023 9.00293 175.148 9.94287L172.861 12.3901L172.861 12.4688L177.595 12.4688L177.595 13.5625L171.169 13.5625ZM182.883 13.7026Q181.198 13.7026 180.268 12.3354Q179.342 10.9683 179.342 8.47314Q179.342 5.99512 180.275 4.61768Q181.212 3.24023 182.883 3.24023Q184.554 3.24023 185.488 4.61768Q186.424 5.99512 186.424 8.47314Q186.424 10.9683 185.494 12.3354Q184.568 13.7026 182.883 13.7026ZM182.883 12.6089Q183.997 12.6089 184.613 11.5356Q185.231 10.459 185.231 8.47314Q185.231 6.4873 184.609 5.40381Q183.987 4.31689 182.883 4.31689Q181.779 4.31689 181.157 5.40381Q180.535 6.4873 180.535 8.47314Q180.535 10.459 181.154 11.5356Q181.776 12.6089 182.883 12.6089ZM188.231 13.5625L188.231 12.667L191.594 8.98926Q192.185 8.34326 192.568 7.86475Q192.951 7.38281 193.136 6.95898Q193.324 6.53174 193.324 6.06689Q193.324 5.26025 192.763 4.78857Q192.206 4.31689 191.375 4.31689Q190.49 4.31689 189.967 4.84668Q189.444 5.37305 189.444 6.24463L188.272 6.24463Q188.272 5.34912 188.682 4.67236Q189.096 3.99561 189.81 3.61963Q190.524 3.24023 191.413 3.24023Q192.308 3.24023 192.999 3.61963Q193.689 3.99561 194.082 4.63818Q194.475 5.28076 194.475 6.06689Q194.475 6.62744 194.274 7.16406Q194.072 7.69727 193.577 8.3501Q193.084 9.00293 192.209 9.94287L189.923 12.3901L189.923 12.4688L194.657 12.4688L194.657 13.5625L188.231 13.5625ZM199.805 13.7026Q198.93 13.7026 198.229 13.354Q197.528 13.0054 197.104 12.4004Q196.684 11.792 196.643 11.0161L197.836 11.0161Q197.908 11.7065 198.465 12.1577Q199.025 12.6089 199.805 12.6089Q200.433 12.6089 200.922 12.3149Q201.411 12.021 201.691 11.5083Q201.972 10.9922 201.972 10.3394Q201.972 9.67627 201.681 9.15332Q201.39 8.62695 200.885 8.32275Q200.379 8.01855 199.726 8.01514Q199.258 8.0083 198.765 8.15527Q198.273 8.30225 197.955 8.53125L196.804 8.39111L197.419 3.38037L202.71 3.38037L202.71 4.47412L198.454 4.47412L198.096 7.47852L198.154 7.47852Q198.468 7.229 198.94 7.06494Q199.411 6.90088 199.924 6.90088Q200.861 6.90088 201.592 7.34521Q202.327 7.78955 202.747 8.56201Q203.168 9.33105 203.168 10.3223Q203.168 11.2964 202.73 12.0586Q202.296 12.8208 201.534 13.2617Q200.775 13.7026 199.805 13.7026Z" transform="translate(24 2)" fill="#000000" />
    </g>
    <g transform="translate(163 148)">
      <g transform="translate(0 2)">
        <rect width="16" height="16" rx="4" fill="#00BCD4" fill-rule="evenodd" />
        <path d="M1.70711 2.29289C1.31658 1.90237 0.683418 1.90237 0.292893 2.29289C-0.097631 2.68342 -0.097631 3.31658 0.292893 3.70711L2.29289 5.70711C2.68342 6.09763 3.31658 6.09763 3.70711 5.70711L7.70711 1.70711C8.09763 1.31658 8.09763 0.683418 7.70711 0.292893C7.31658 -0.097631 6.68342 -0.097631 6.29289 0.292893L3 3.58579L1.70711 2.29289L1.70711 2.29289Z" fill="#FFFFFF" fill-rule="evenodd" transform="translate(4 5)" />
      </g>
      <path d="M4.375 13.5625L1.23389 13.5625L1.23389 3.38037L4.51514 3.38037Q5.99512 3.38037 7.04785 3.98877Q8.104 4.59717 8.66455 5.73535Q9.22852 6.87012 9.22852 8.45264Q9.22852 10.042 8.66113 11.1904Q8.09375 12.3354 7.01025 12.9507Q5.92676 13.5625 4.375 13.5625ZM2.46436 12.4688L4.29639 12.4688Q6.18994 12.4688 7.11279 11.3921Q8.03564 10.3154 8.03564 8.45264Q8.03564 6.60352 7.12988 5.54053Q6.22412 4.47412 4.43311 4.47412L2.46436 4.47412L2.46436 12.4688ZM14.2584 13.7231Q13.1544 13.7231 12.3546 13.2344Q11.5582 12.7422 11.1275 11.8604Q10.6969 10.9785 10.6969 9.80273Q10.6969 8.63037 11.1275 7.73486Q11.5582 6.83594 12.3306 6.3335Q13.1031 5.82764 14.1388 5.82764Q14.7369 5.82764 15.3179 6.02588Q15.899 6.22412 16.3741 6.66846Q16.8526 7.11279 17.1363 7.84424Q17.42 8.57568 17.42 9.64551L17.42 10.1411L11.8761 10.1411Q11.9171 11.3647 12.5699 12.0176Q13.2227 12.667 14.2584 12.667Q14.9488 12.667 15.4444 12.3696Q15.9434 12.0723 16.1656 11.4741L17.3004 11.792Q17.0338 12.6567 16.2271 13.1899Q15.4205 13.7231 14.2584 13.7231ZM11.8761 9.12939L16.2271 9.12939Q16.2271 8.15869 15.6597 7.51953Q15.0924 6.88037 14.1388 6.88037Q13.4688 6.88037 12.9766 7.19482Q12.4845 7.50586 12.2008 8.02197Q11.9171 8.53467 11.8761 9.12939ZM20.3015 3.38037L20.3015 13.5625L19.1292 13.5625L19.1292 3.38037L20.3015 3.38037ZM22.3702 13.5625L22.3702 5.92676L23.5425 5.92676L23.5425 13.5625L22.3702 13.5625ZM22.9683 4.65186Q22.6231 4.65186 22.377 4.41943Q22.1309 4.18701 22.1309 3.85889Q22.1309 3.53076 22.377 3.29834Q22.6231 3.0625 22.9683 3.0625Q23.3101 3.0625 23.5562 3.29834Q23.8023 3.53076 23.8023 3.85889Q23.8023 4.18701 23.5562 4.41943Q23.3101 4.65186 22.9683 4.65186ZM31.8558 5.92676L29.0326 13.5625L27.8397 13.5625L25.0165 5.92676L26.288 5.92676L28.3968 12.0107L28.4755 12.0107L30.5843 5.92676L31.8558 5.92676ZM36.2509 13.7231Q35.1469 13.7231 34.3471 13.2344Q33.5507 12.7422 33.12 11.8604Q32.6894 10.9785 32.6894 9.80273Q32.6894 8.63037 33.12 7.73486Q33.5507 6.83594 34.3231 6.3335Q35.0956 5.82764 36.1312 5.82764Q36.7294 5.82764 37.3104 6.02588Q37.8915 6.22412 38.3666 6.66846Q38.8451 7.11279 39.1288 7.84424Q39.4125 8.57568 39.4125 9.64551L39.4125 10.1411L33.8686 10.1411Q33.9096 11.3647 34.5624 12.0176Q35.2152 12.667 36.2509 12.667Q36.9413 12.667 37.4369 12.3696Q37.9359 12.0723 38.1581 11.4741L39.2929 11.792Q39.0263 12.6567 38.2196 13.1899Q37.413 13.7231 36.2509 13.7231ZM33.8686 9.12939L38.2196 9.12939Q38.2196 8.15869 37.6522 7.51953Q37.0849 6.88037 36.1312 6.88037Q35.4613 6.88037 34.9691 7.19482Q34.477 7.50586 34.1933 8.02197Q33.9096 8.53467 33.8686 9.12939ZM41.1217 13.5625L41.1217 5.92676L42.2564 5.92676L42.2564 7.07861L42.335 7.07861Q42.5435 6.51123 43.0904 6.15918Q43.6373 5.80713 44.3243 5.80713Q44.4542 5.80713 44.6456 5.81396Q44.8404 5.81738 44.9395 5.82764L44.9395 7.02051Q44.8814 7.00342 44.6695 6.97266Q44.4576 6.94189 44.2252 6.94189Q43.3878 6.94189 42.8409 7.44775Q42.294 7.95361 42.294 8.72949L42.294 13.5625L41.1217 13.5625ZM49.2159 13.7231Q48.1119 13.7231 47.3121 13.2344Q46.5157 12.7422 46.085 11.8604Q45.6544 10.9785 45.6544 9.80273Q45.6544 8.63037 46.085 7.73486Q46.5157 6.83594 47.2881 6.3335Q48.0606 5.82764 49.0962 5.82764Q49.6944 5.82764 50.2754 6.02588Q50.8565 6.22412 51.3316 6.66846Q51.8101 7.11279 52.0938 7.84424Q52.3775 8.57568 52.3775 9.64551L52.3775 10.1411L46.8336 10.1411Q46.8746 11.3647 47.5274 12.0176Q48.1802 12.667 49.2159 12.667Q49.9063 12.667 50.4019 12.3696Q50.9009 12.0723 51.1231 11.4741L52.2579 11.792Q51.9913 12.6567 51.1846 13.1899Q50.378 13.7231 49.2159 13.7231ZM46.8336 9.12939L51.1846 9.12939Q51.1846 8.15869 50.6172 7.51953Q50.0499 6.88037 49.0962 6.88037Q48.4263 6.88037 47.9341 7.19482Q47.442 7.50586 47.1583 8.02197Q46.8746 8.53467 46.8336 9.12939ZM56.9714 13.7231Q56.0178 13.7231 55.2864 13.2378Q54.5549 12.7524 54.1413 11.8672Q53.7278 10.9785 53.7278 9.76514Q53.7278 8.56201 54.1413 7.67676Q54.5549 6.7915 55.2898 6.30957Q56.0246 5.82764 56.9919 5.82764Q57.737 5.82764 58.1711 6.07373Q58.6052 6.31982 58.8376 6.63086Q59.07 6.94189 59.1965 7.14014L59.2991 7.14014L59.2991 3.38037L60.4714 3.38037L60.4714 13.5625L59.3367 13.5625L59.3367 12.3901L59.1965 12.3901Q59.07 12.5986 58.8308 12.9165Q58.5915 13.231 58.1472 13.4771Q57.7063 13.7231 56.9714 13.7231ZM57.1286 12.667Q58.1882 12.667 58.7522 11.8569Q59.3161 11.0435 59.3161 9.74463Q59.3161 8.46289 58.759 7.67334Q58.2053 6.88037 57.1286 6.88037Q56.3835 6.88037 55.8879 7.26318Q55.3957 7.64258 55.1496 8.29199Q54.9035 8.93799 54.9035 9.74463Q54.9035 10.5581 55.1531 11.2246Q55.406 11.8877 55.8982 12.2773Q56.3938 12.667 57.1286 12.667ZM68.8035 13.7402Q68.0755 13.7402 67.4842 13.4668Q66.8929 13.1899 66.5442 12.667Q66.1956 12.1406 66.1956 11.3955Q66.1956 10.7393 66.4554 10.3291Q66.7151 9.91895 67.1458 9.68652Q67.5799 9.45068 68.1028 9.33447Q68.6292 9.21826 69.159 9.14648Q69.8562 9.05762 70.2903 9.01318Q70.7278 8.96533 70.9261 8.85254Q71.1277 8.73633 71.1277 8.45264L71.1277 8.41162Q71.1277 7.67676 70.7278 7.27002Q70.3279 6.85986 69.5179 6.85986Q68.677 6.85986 68.1985 7.229Q67.7234 7.59814 67.5286 8.01514L66.4144 7.61523Q66.7151 6.92139 67.2142 6.53174Q67.7132 6.13867 68.3079 5.98486Q68.9026 5.82764 69.4769 5.82764Q69.846 5.82764 70.3245 5.9165Q70.8064 6.00195 71.2542 6.27197Q71.7054 6.53857 72.0027 7.08203Q72.3035 7.62207 72.3035 8.53125L72.3035 13.5625L71.1277 13.5625L71.1277 12.5269L71.0696 12.5269Q70.95 12.7764 70.6697 13.0601Q70.3929 13.3438 69.9314 13.542Q69.47 13.7402 68.8035 13.7402ZM68.9812 12.6875Q69.6785 12.6875 70.157 12.4141Q70.6355 12.1406 70.8816 11.71Q71.1277 11.2759 71.1277 10.7974L71.1277 9.72412Q71.056 9.81299 70.803 9.88477Q70.5535 9.95654 70.2254 10.0112Q69.9007 10.0625 69.5931 10.1001Q69.2889 10.1377 69.1009 10.1616Q68.6429 10.2231 68.2464 10.3564Q67.8533 10.4863 67.6106 10.7461Q67.3714 11.0059 67.3714 11.4536Q67.3714 12.0654 67.826 12.3765Q68.2806 12.6875 68.9812 12.6875ZM77.6916 5.92676L77.6916 6.92139L76.0613 6.92139L76.0613 11.375Q76.0613 11.8706 76.2082 12.1167Q76.3552 12.3628 76.5842 12.4448Q76.8166 12.5269 77.073 12.5269Q77.2678 12.5269 77.3909 12.5063Q77.5173 12.4824 77.5925 12.4688L77.8318 13.5215Q77.7122 13.5659 77.4968 13.6138Q77.2849 13.6616 76.9568 13.6616Q76.4578 13.6616 75.9827 13.4497Q75.5076 13.2344 75.1965 12.7969Q74.8855 12.3594 74.8855 11.6929L74.8855 6.92139L73.7336 6.92139L73.7336 5.92676L74.8855 5.92676L74.8855 4.09814L76.0613 4.09814L76.0613 5.92676L77.6916 5.92676ZM87.2949 3.38037L88.5288 3.38037L88.5288 10.6606Q88.5288 12.127 87.7393 12.9165Q86.9531 13.7026 85.6235 13.7026Q84.7895 13.7026 84.1367 13.3984Q83.4873 13.0908 83.1147 12.5234Q82.7422 11.9561 82.7422 11.1768L83.9556 11.1768Q83.9556 11.8228 84.4272 12.2158Q84.8989 12.6089 85.6235 12.6089Q86.4268 12.6089 86.8608 12.1099Q87.2949 11.6074 87.2949 10.6606L87.2949 3.38037ZM90.915 13.5625L90.915 3.38037L94.3535 3.38037Q95.5464 3.38037 96.312 3.78711Q97.0776 4.19043 97.4468 4.89795Q97.8159 5.60205 97.8159 6.50439Q97.8159 7.51611 97.3511 8.27148Q96.8862 9.02344 95.9121 9.35498L98.2124 13.5625L96.7803 13.5625L94.6338 9.58057Q94.5073 9.58398 94.374 9.58398L92.1455 9.58398L92.1455 13.5625L90.915 13.5625ZM92.1455 8.47314L94.333 8.47314Q95.5566 8.47314 96.0796 7.94678Q96.6025 7.41699 96.6025 6.50439Q96.6025 5.58154 96.0762 5.02783Q95.5532 4.47412 94.3159 4.47412L92.1455 4.47412L92.1455 8.47314ZM101.014 3.38037L101.014 13.5625L99.7839 13.5625L99.7839 3.38037L101.014 3.38037ZM115.85 8.47314Q115.85 10.083 115.269 11.2554Q114.688 12.4277 113.672 13.0669Q112.657 13.7026 111.355 13.7026Q110.053 13.7026 109.038 13.0669Q108.026 12.4277 107.441 11.2554Q106.86 10.083 106.86 8.47314Q106.86 6.85986 107.441 5.6875Q108.026 4.51514 109.038 3.87939Q110.053 3.24023 111.355 3.24023Q112.657 3.24023 113.672 3.87939Q114.688 4.51514 115.269 5.6875Q115.85 6.85986 115.85 8.47314ZM114.657 8.47314Q114.657 7.15039 114.216 6.24121Q113.778 5.32861 113.03 4.86377Q112.281 4.39551 111.355 4.39551Q110.432 4.39551 109.684 4.86377Q108.935 5.32861 108.494 6.24121Q108.053 7.15039 108.053 8.47314Q108.053 9.79248 108.494 10.7051Q108.935 11.6143 109.684 12.0825Q110.432 12.5474 111.355 12.5474Q112.281 12.5474 113.03 12.0825Q113.778 11.6143 114.216 10.7051Q114.657 9.79248 114.657 8.47314ZM121.08 5.92676L121.08 6.92139L119.371 6.92139L119.371 13.5625L118.195 13.5625L118.195 6.92139L116.964 6.92139L116.964 5.92676L118.195 5.92676L118.195 4.87061Q118.195 4.21436 118.502 3.77686Q118.813 3.33936 119.306 3.12061Q119.798 2.90186 120.345 2.90186Q120.775 2.90186 121.049 2.97363Q121.322 3.04199 121.459 3.10352L121.121 4.11523Q121.032 4.08789 120.875 4.04346Q120.717 3.99561 120.464 3.99561Q119.883 3.99561 119.627 4.28955Q119.371 4.5835 119.371 5.15088L119.371 5.92676L121.08 5.92676ZM126.051 5.92676L126.051 6.92139L124.342 6.92139L124.342 13.5625L123.166 13.5625L123.166 6.92139L121.935 6.92139L121.935 5.92676L123.166 5.92676L123.166 4.87061Q123.166 4.21436 123.474 3.77686Q123.785 3.33936 124.277 3.12061Q124.769 2.90186 125.316 2.90186Q125.747 2.90186 126.02 2.97363Q126.293 3.04199 126.43 3.10352L126.092 4.11523Q126.003 4.08789 125.846 4.04346Q125.688 3.99561 125.435 3.99561Q124.854 3.99561 124.598 4.28955Q124.342 4.5835 124.342 5.15088L124.342 5.92676L126.051 5.92676ZM127.621 13.5625L127.621 5.92676L128.793 5.92676L128.793 13.5625L127.621 13.5625ZM128.219 4.65186Q127.874 4.65186 127.628 4.41943Q127.382 4.18701 127.382 3.85889Q127.382 3.53076 127.628 3.29834Q127.874 3.0625 128.219 3.0625Q128.561 3.0625 128.807 3.29834Q129.053 3.53076 129.053 3.85889Q129.053 4.18701 128.807 4.41943Q128.561 4.65186 128.219 4.65186ZM133.966 13.7231Q132.892 13.7231 132.116 13.2173Q131.341 12.708 130.92 11.8193Q130.503 10.9272 130.503 9.78564Q130.503 8.62012 130.934 7.72803Q131.364 6.83594 132.137 6.3335Q132.909 5.82764 133.945 5.82764Q134.752 5.82764 135.398 6.125Q136.044 6.42236 136.454 6.95898Q136.867 7.49561 136.966 8.21338L135.794 8.21338Q135.661 7.69043 135.199 7.28711Q134.741 6.88037 133.966 6.88037Q132.937 6.88037 132.308 7.66309Q131.679 8.4458 131.679 9.74463Q131.679 11.0708 132.298 11.8706Q132.92 12.667 133.966 12.667Q134.653 12.667 135.141 12.3149Q135.63 11.9629 135.794 11.334L136.966 11.334Q136.867 12.0107 136.478 12.5508Q136.088 13.0908 135.449 13.4087Q134.81 13.7231 133.966 13.7231ZM141.8 13.7231Q140.696 13.7231 139.896 13.2344Q139.1 12.7422 138.669 11.8604Q138.238 10.9785 138.238 9.80273Q138.238 8.63037 138.669 7.73486Q139.1 6.83594 139.872 6.3335Q140.645 5.82764 141.68 5.82764Q142.278 5.82764 142.86 6.02588Q143.441 6.22412 143.916 6.66846Q144.394 7.11279 144.678 7.84424Q144.962 8.57568 144.962 9.64551L144.962 10.1411L139.418 10.1411Q139.459 11.3647 140.111 12.0176Q140.764 12.667 141.8 12.667Q142.49 12.667 142.986 12.3696Q143.485 12.0723 143.707 11.4741L144.842 11.792Q144.575 12.6567 143.769 13.1899Q142.962 13.7231 141.8 13.7231ZM139.418 9.12939L143.769 9.12939Q143.769 8.15869 143.201 7.51953Q142.634 6.88037 141.68 6.88037Q141.01 6.88037 140.518 7.19482Q140.026 7.50586 139.742 8.02197Q139.459 8.53467 139.418 9.12939ZM154.903 7.92627L154.903 9.02002L150.45 9.02002L150.45 7.92627L154.903 7.92627ZM156.394 13.5625L156.394 12.667L159.757 8.98926Q160.348 8.34326 160.731 7.86475Q161.114 7.38281 161.298 6.95898Q161.486 6.53174 161.486 6.06689Q161.486 5.26025 160.926 4.78857Q160.369 4.31689 159.538 4.31689Q158.653 4.31689 158.13 4.84668Q157.607 5.37305 157.607 6.24463L156.435 6.24463Q156.435 5.34912 156.845 4.67236Q157.258 3.99561 157.973 3.61963Q158.687 3.24023 159.576 3.24023Q160.471 3.24023 161.162 3.61963Q161.852 3.99561 162.245 4.63818Q162.638 5.28076 162.638 6.06689Q162.638 6.62744 162.437 7.16406Q162.235 7.69727 161.739 8.3501Q161.247 9.00293 160.372 9.94287L158.086 12.3901L158.086 12.4688L162.819 12.4688L162.819 13.5625L156.394 13.5625ZM168.227 13.7026Q167.243 13.7026 166.474 13.3643Q165.705 13.0259 165.253 12.4209Q164.806 11.8159 164.768 11.0161L166.019 11.0161Q166.074 11.7544 166.696 12.1816Q167.321 12.6089 168.207 12.6089Q169.188 12.6089 169.82 12.1099Q170.456 11.6074 170.456 10.7974Q170.456 9.95312 169.83 9.42334Q169.205 8.89014 168.049 8.89014L167.232 8.89014L167.232 7.79639L168.049 7.79639Q168.952 7.79639 169.523 7.31445Q170.097 6.83252 170.097 6.02588Q170.097 5.25342 169.594 4.78516Q169.092 4.31689 168.248 4.31689Q167.721 4.31689 167.256 4.5083Q166.792 4.69971 166.498 5.05859Q166.204 5.41748 166.18 5.92676L164.987 5.92676Q165.014 5.12695 165.465 4.52197Q165.92 3.91699 166.651 3.57861Q167.386 3.24023 168.268 3.24023Q169.212 3.24023 169.888 3.62305Q170.565 4.00244 170.927 4.62451Q171.29 5.24658 171.29 5.96436Q171.29 6.82568 170.838 7.43408Q170.391 8.03906 169.618 8.27148L169.618 8.35352Q170.582 8.51074 171.122 9.17041Q171.666 9.83008 171.666 10.7974Q171.666 11.6279 171.214 12.2876Q170.767 12.9473 169.991 13.3267Q169.215 13.7026 168.227 13.7026ZM177.234 2.90186L173.953 15.0938L172.879 15.0938L176.161 2.90186L177.234 2.90186ZM181.848 13.7026Q180.163 13.7026 179.233 12.3354Q178.307 10.9683 178.307 8.47314Q178.307 5.99512 179.24 4.61768Q180.177 3.24023 181.848 3.24023Q183.519 3.24023 184.453 4.61768Q185.389 5.99512 185.389 8.47314Q185.389 10.9683 184.459 12.3354Q183.533 13.7026 181.848 13.7026ZM181.848 12.6089Q182.962 12.6089 183.578 11.5356Q184.196 10.459 184.196 8.47314Q184.196 6.4873 183.574 5.40381Q182.952 4.31689 181.848 4.31689Q180.744 4.31689 180.122 5.40381Q179.5 6.4873 179.5 8.47314Q179.5 10.459 180.119 11.5356Q180.741 12.6089 181.848 12.6089ZM187.235 13.5625L191.791 4.55273L191.791 4.47412L186.541 4.47412L186.541 3.38037L193.063 3.38037L193.063 4.53564L188.531 13.5625L187.235 13.5625ZM198.451 2.90186L195.17 15.0938L194.097 15.0938L197.378 2.90186L198.451 2.90186ZM199.743 13.5625L199.743 12.667L203.106 8.98926Q203.698 8.34326 204.081 7.86475Q204.463 7.38281 204.648 6.95898Q204.836 6.53174 204.836 6.06689Q204.836 5.26025 204.275 4.78857Q203.718 4.31689 202.888 4.31689Q202.002 4.31689 201.48 4.84668Q200.957 5.37305 200.957 6.24463L199.784 6.24463Q199.784 5.34912 200.194 4.67236Q200.608 3.99561 201.322 3.61963Q202.037 3.24023 202.925 3.24023Q203.821 3.24023 204.511 3.61963Q205.202 3.99561 205.595 4.63818Q205.988 5.28076 205.988 6.06689Q205.988 6.62744 205.786 7.16406Q205.585 7.69727 205.089 8.3501Q204.597 9.00293 203.722 9.94287L201.435 12.3901L201.435 12.4688L206.169 12.4688L206.169 13.5625L199.743 13.5625ZM211.457 13.7026Q209.772 13.7026 208.842 12.3354Q207.916 10.9683 207.916 8.47314Q207.916 5.99512 208.849 4.61768Q209.786 3.24023 211.457 3.24023Q213.128 3.24023 214.062 4.61768Q214.998 5.99512 214.998 8.47314Q214.998 10.9683 214.068 12.3354Q213.142 13.7026 211.457 13.7026ZM211.457 12.6089Q212.571 12.6089 213.187 11.5356Q213.805 10.459 213.805 8.47314Q213.805 6.4873 213.183 5.40381Q212.561 4.31689 211.457 4.31689Q210.353 4.31689 209.731 5.40381Q209.109 6.4873 209.109 8.47314Q209.109 10.459 209.728 11.5356Q210.35 12.6089 211.457 12.6089ZM216.805 13.5625L216.805 12.667L220.168 8.98926Q220.759 8.34326 221.142 7.86475Q221.525 7.38281 221.71 6.95898Q221.898 6.53174 221.898 6.06689Q221.898 5.26025 221.337 4.78857Q220.78 4.31689 219.949 4.31689Q219.064 4.31689 218.541 4.84668Q218.018 5.37305 218.018 6.24463L216.846 6.24463Q216.846 5.34912 217.256 4.67236Q217.67 3.99561 218.384 3.61963Q219.098 3.24023 219.987 3.24023Q220.882 3.24023 221.573 3.61963Q222.263 3.99561 222.656 4.63818Q223.049 5.28076 223.049 6.06689Q223.049 6.62744 222.848 7.16406Q222.646 7.69727 222.15 8.3501Q221.658 9.00293 220.783 9.94287L218.497 12.3901L218.497 12.4688L223.231 12.4688L223.231 13.5625L216.805 13.5625ZM228.378 13.7026Q227.503 13.7026 226.803 13.354Q226.102 13.0054 225.678 12.4004Q225.258 11.792 225.217 11.0161L226.41 11.0161Q226.482 11.7065 227.039 12.1577Q227.599 12.6089 228.378 12.6089Q229.007 12.6089 229.496 12.3149Q229.985 12.021 230.265 11.5083Q230.545 10.9922 230.545 10.3394Q230.545 9.67627 230.255 9.15332Q229.964 8.62695 229.459 8.32275Q228.953 8.01855 228.3 8.01514Q227.832 8.0083 227.339 8.15527Q226.847 8.30225 226.529 8.53125L225.378 8.39111L225.993 3.38037L231.284 3.38037L231.284 4.47412L227.028 4.47412L226.67 7.47852L226.728 7.47852Q227.042 7.229 227.514 7.06494Q227.985 6.90088 228.498 6.90088Q229.435 6.90088 230.166 7.34521Q230.901 7.78955 231.321 8.56201Q231.742 9.33105 231.742 10.3223Q231.742 11.2964 231.304 12.0586Q230.87 12.8208 230.108 13.2617Q229.349 13.7026 228.378 13.7026Z" transform="translate(24 2)" fill="#000000" />
    </g>
    <g transform="translate(163 94)">
      <g transform="translate(0 2)">
        <rect width="16" height="16" rx="4" fill="#00BCD4" fill-rule="evenodd" />
        <path d="M1.70711 2.29289C1.31658 1.90237 0.683418 1.90237 0.292893 2.29289C-0.097631 2.68342 -0.097631 3.31658 0.292893 3.70711L2.29289 5.70711C2.68342 6.09763 3.31658 6.09763 3.70711 5.70711L7.70711 1.70711C8.09763 1.31658 8.09763 0.683418 7.70711 0.292893C7.31658 -0.097631 6.68342 -0.097631 6.29289 0.292893L3 3.58579L1.70711 2.29289L1.70711 2.29289Z" fill="#FFFFFF" fill-rule="evenodd" transform="translate(4 5)" />
      </g>
      <path d="M1.65088 13.5625L0.358887 13.5625L4.09814 3.38037L5.36963 3.38037L9.10889 13.5625L7.81689 13.5625L6.7915 10.6777L2.67627 10.6777L1.65088 13.5625ZM3.0625 9.58398L6.40186 9.58398L4.77148 4.99023L4.69287 4.99023L3.0625 9.58398ZM10.5387 13.5625L10.5387 5.92676L11.7111 5.92676L11.7111 13.5625L10.5387 13.5625ZM11.1368 4.65186Q10.7916 4.65186 10.5455 4.41943Q10.2994 4.18701 10.2994 3.85889Q10.2994 3.53076 10.5455 3.29834Q10.7916 3.0625 11.1368 3.0625Q11.4786 3.0625 11.7247 3.29834Q11.9708 3.53076 11.9708 3.85889Q11.9708 4.18701 11.7247 4.41943Q11.4786 4.65186 11.1368 4.65186ZM13.7797 13.5625L13.7797 5.92676L14.9145 5.92676L14.9145 7.07861L14.9931 7.07861Q15.2016 6.51123 15.7485 6.15918Q16.2953 5.80713 16.9824 5.80713Q17.1122 5.80713 17.3036 5.81396Q17.4985 5.81738 17.5976 5.82764L17.5976 7.02051Q17.5395 7.00342 17.3276 6.97266Q17.1157 6.94189 16.8832 6.94189Q16.0458 6.94189 15.499 7.44775Q14.9521 7.95361 14.9521 8.72949L14.9521 13.5625L13.7797 13.5625ZM18.9099 16.4268L18.9099 5.92676L20.0447 5.92676L20.0447 7.14014L20.1848 7.14014Q20.3113 6.94189 20.5437 6.63086Q20.7762 6.31982 21.2102 6.07373Q21.6443 5.82764 22.3894 5.82764Q23.3567 5.82764 24.0916 6.30957Q24.8265 6.7915 25.24 7.67676Q25.6536 8.56201 25.6536 9.76514Q25.6536 10.9785 25.24 11.8672Q24.8265 12.7524 24.095 13.2378Q23.3636 13.7231 22.4099 13.7231Q21.6751 13.7231 21.2307 13.4771Q20.7898 13.231 20.5506 12.9165Q20.3113 12.5986 20.1848 12.3901L20.0823 12.3901L20.0823 16.4268L18.9099 16.4268ZM20.0652 9.74463Q20.0652 11.0435 20.6292 11.8569Q21.1931 12.667 22.2527 12.667Q22.9876 12.667 23.4798 12.2773Q23.9754 11.8877 24.2249 11.2246Q24.4778 10.5581 24.4778 9.74463Q24.4778 8.93799 24.2317 8.29199Q23.9856 7.64258 23.49 7.26318Q22.9978 6.88037 22.2527 6.88037Q21.1761 6.88037 20.6189 7.67334Q20.0652 8.46289 20.0652 9.74463ZM30.4647 13.7231Q29.4291 13.7231 28.6498 13.231Q27.8739 12.7388 27.4364 11.8535Q27.0023 10.9683 27.0023 9.78564Q27.0023 8.58936 27.4364 7.70068Q27.8739 6.81201 28.6498 6.31982Q29.4291 5.82764 30.4647 5.82764Q31.4969 5.82764 32.2762 6.31982Q33.0555 6.81201 33.4896 7.70068Q33.9237 8.58936 33.9237 9.78564Q33.9237 10.9683 33.4896 11.8535Q33.0555 12.7388 32.2762 13.231Q31.4969 13.7231 30.4647 13.7231ZM30.4647 12.667Q31.2508 12.667 31.7567 12.2671Q32.2626 11.8638 32.5052 11.2075Q32.7513 10.5513 32.7513 9.78564Q32.7513 9.02002 32.5052 8.36035Q32.2626 7.69727 31.7567 7.29053Q31.2508 6.88037 30.4647 6.88037Q29.6786 6.88037 29.1693 7.29053Q28.6634 7.69727 28.4208 8.36035Q28.1781 9.02002 28.1781 9.78564Q28.1781 10.5513 28.4208 11.2075Q28.6634 11.8638 29.1693 12.2671Q29.6786 12.667 30.4647 12.667ZM35.6335 13.5625L35.6335 5.92676L36.7682 5.92676L36.7682 7.07861L36.8468 7.07861Q37.0553 6.51123 37.6022 6.15918Q38.1491 5.80713 38.8361 5.80713Q38.966 5.80713 39.1574 5.81396Q39.3522 5.81738 39.4513 5.82764L39.4513 7.02051Q39.3932 7.00342 39.1813 6.97266Q38.9694 6.94189 38.737 6.94189Q37.8996 6.94189 37.3527 7.44775Q36.8058 7.95361 36.8058 8.72949L36.8058 13.5625L35.6335 13.5625ZM44.5632 5.92676L44.5632 6.92139L42.9329 6.92139L42.9329 11.375Q42.9329 11.8706 43.0798 12.1167Q43.2268 12.3628 43.4558 12.4448Q43.6882 12.5269 43.9446 12.5269Q44.1394 12.5269 44.2625 12.5063Q44.3889 12.4824 44.4641 12.4688L44.7034 13.5215Q44.5837 13.5659 44.3684 13.6138Q44.1565 13.6616 43.8284 13.6616Q43.3293 13.6616 42.8542 13.4497Q42.3792 13.2344 42.0681 12.7969Q41.7571 12.3594 41.7571 11.6929L41.7571 6.92139L40.6052 6.92139L40.6052 5.92676L41.7571 5.92676L41.7571 4.09814L42.9329 4.09814L42.9329 5.92676L44.5632 5.92676ZM50.687 13.5625L49.395 13.5625L53.1343 3.38037L54.4058 3.38037L58.145 13.5625L56.853 13.5625L55.8276 10.6777L51.7124 10.6777L50.687 13.5625ZM52.0986 9.58398L55.438 9.58398L53.8076 4.99023L53.729 4.99023L52.0986 9.58398ZM59.4953 13.5625L59.4953 5.92676L60.6301 5.92676L60.6301 7.07861L60.7087 7.07861Q60.9172 6.51123 61.464 6.15918Q62.0109 5.80713 62.6979 5.80713Q62.8278 5.80713 63.0192 5.81396Q63.214 5.81738 63.3132 5.82764L63.3132 7.02051Q63.2551 7.00342 63.0431 6.97266Q62.8312 6.94189 62.5988 6.94189Q61.7614 6.94189 61.2145 7.44775Q60.6676 7.95361 60.6676 8.72949L60.6676 13.5625L59.4953 13.5625ZM64.6255 13.5625L64.6255 5.92676L65.7603 5.92676L65.7603 7.07861L65.8389 7.07861Q66.0474 6.51123 66.5943 6.15918Q67.1411 5.80713 67.8281 5.80713Q67.958 5.80713 68.1494 5.81396Q68.3443 5.81738 68.4434 5.82764L68.4434 7.02051Q68.3853 7.00342 68.1734 6.97266Q67.9614 6.94189 67.729 6.94189Q66.8916 6.94189 66.3447 7.44775Q65.7979 7.95361 65.7979 8.72949L65.7979 13.5625L64.6255 13.5625ZM69.7557 13.5625L69.7557 5.92676L70.9281 5.92676L70.9281 13.5625L69.7557 13.5625ZM70.3539 4.65186Q70.0087 4.65186 69.7626 4.41943Q69.5165 4.18701 69.5165 3.85889Q69.5165 3.53076 69.7626 3.29834Q70.0087 3.0625 70.3539 3.0625Q70.6957 3.0625 70.9418 3.29834Q71.1879 3.53076 71.1879 3.85889Q71.1879 4.18701 70.9418 4.41943Q70.6957 4.65186 70.3539 4.65186ZM79.2414 5.92676L76.4181 13.5625L75.2253 13.5625L72.402 5.92676L73.6735 5.92676L75.7824 12.0107L75.861 12.0107L77.9699 5.92676L79.2414 5.92676ZM82.7226 13.7402Q81.9946 13.7402 81.4033 13.4668Q80.812 13.1899 80.4633 12.667Q80.1147 12.1406 80.1147 11.3955Q80.1147 10.7393 80.3745 10.3291Q80.6342 9.91895 81.0649 9.68652Q81.499 9.45068 82.0219 9.33447Q82.5483 9.21826 83.0781 9.14648Q83.7753 9.05762 84.2094 9.01318Q84.6469 8.96533 84.8452 8.85254Q85.0468 8.73633 85.0468 8.45264L85.0468 8.41162Q85.0468 7.67676 84.6469 7.27002Q84.247 6.85986 83.437 6.85986Q82.5961 6.85986 82.1176 7.229Q81.6425 7.59814 81.4477 8.01514L80.3334 7.61523Q80.6342 6.92139 81.1332 6.53174Q81.6323 6.13867 82.227 5.98486Q82.8217 5.82764 83.3959 5.82764Q83.7651 5.82764 84.2436 5.9165Q84.7255 6.00195 85.1733 6.27197Q85.6245 6.53857 85.9218 7.08203Q86.2226 7.62207 86.2226 8.53125L86.2226 13.5625L85.0468 13.5625L85.0468 12.5269L84.9887 12.5269Q84.8691 12.7764 84.5888 13.0601Q84.312 13.3438 83.8505 13.542Q83.3891 13.7402 82.7226 13.7402ZM82.9003 12.6875Q83.5976 12.6875 84.0761 12.4141Q84.5546 12.1406 84.8007 11.71Q85.0468 11.2759 85.0468 10.7974L85.0468 9.72412Q84.975 9.81299 84.7221 9.88477Q84.4726 9.95654 84.1445 10.0112Q83.8198 10.0625 83.5121 10.1001Q83.2079 10.1377 83.02 10.1616Q82.562 10.2231 82.1655 10.3564Q81.7724 10.4863 81.5297 10.7461Q81.2905 11.0059 81.2905 11.4536Q81.2905 12.0654 81.7451 12.3765Q82.1996 12.6875 82.9003 12.6875ZM89.4608 3.38037L89.4608 13.5625L88.2885 13.5625L88.2885 3.38037L89.4608 3.38037ZM96.9401 7.63574L95.884 7.93311Q95.7302 7.53662 95.3679 7.18799Q95.0056 6.83936 94.2331 6.83936Q93.5324 6.83936 93.0676 7.16064Q92.6027 7.48193 92.6027 7.97412Q92.6027 8.41162 92.9206 8.66455Q93.2419 8.91748 93.9152 9.08838L95.05 9.36523Q97.0768 9.86426 97.0768 11.4331Q97.0768 12.0894 96.7009 12.6089Q96.3283 13.125 95.655 13.4258Q94.985 13.7231 94.0964 13.7231Q92.9274 13.7231 92.1618 13.2173Q91.3962 12.708 91.1911 11.7339L92.3054 11.4536Q92.6198 12.6875 94.0759 12.6875Q94.8962 12.6875 95.3815 12.3389Q95.8669 11.9868 95.8669 11.4946Q95.8669 10.6846 94.7321 10.4214L93.4606 10.1206Q92.4113 9.87451 91.9191 9.35156Q91.4304 8.8252 91.4304 8.03564Q91.4304 7.38623 91.7961 6.89062Q92.1618 6.39502 92.7941 6.11133Q93.4299 5.82764 94.2331 5.82764Q95.3679 5.82764 96.0173 6.32666Q96.6667 6.82227 96.9401 7.63574ZM107 7.92627L107 9.02002L102.547 9.02002L102.547 7.92627L107 7.92627ZM112.825 13.5625L112.825 12.667L116.189 8.98926Q116.78 8.34326 117.163 7.86475Q117.546 7.38281 117.73 6.95898Q117.918 6.53174 117.918 6.06689Q117.918 5.26025 117.358 4.78857Q116.8 4.31689 115.97 4.31689Q115.085 4.31689 114.562 4.84668Q114.039 5.37305 114.039 6.24463L112.866 6.24463Q112.866 5.34912 113.277 4.67236Q113.69 3.99561 114.404 3.61963Q115.119 3.24023 116.007 3.24023Q116.903 3.24023 117.593 3.61963Q118.284 3.99561 118.677 4.63818Q119.07 5.28076 119.07 6.06689Q119.07 6.62744 118.868 7.16406Q118.667 7.69727 118.171 8.3501Q117.679 9.00293 116.804 9.94287L114.517 12.3901L114.517 12.4688L119.251 12.4688L119.251 13.5625L112.825 13.5625ZM124.539 13.7026Q122.854 13.7026 121.924 12.3354Q120.998 10.9683 120.998 8.47314Q120.998 5.99512 121.931 4.61768Q122.868 3.24023 124.539 3.24023Q126.211 3.24023 127.144 4.61768Q128.08 5.99512 128.08 8.47314Q128.08 10.9683 127.151 12.3354Q126.224 13.7026 124.539 13.7026ZM124.539 12.6089Q125.653 12.6089 126.269 11.5356Q126.887 10.459 126.887 8.47314Q126.887 6.4873 126.265 5.40381Q125.643 4.31689 124.539 4.31689Q123.435 4.31689 122.813 5.40381Q122.191 6.4873 122.191 8.47314Q122.191 10.459 122.81 11.5356Q123.432 12.6089 124.539 12.6089ZM133.507 2.90186L130.225 15.0938L129.152 15.0938L132.433 2.90186L133.507 2.90186ZM138.121 13.7026Q136.436 13.7026 135.506 12.3354Q134.58 10.9683 134.58 8.47314Q134.58 5.99512 135.513 4.61768Q136.449 3.24023 138.121 3.24023Q139.792 3.24023 140.725 4.61768Q141.662 5.99512 141.662 8.47314Q141.662 10.9683 140.732 12.3354Q139.806 13.7026 138.121 13.7026ZM138.121 12.6089Q139.235 12.6089 139.85 11.5356Q140.469 10.459 140.469 8.47314Q140.469 6.4873 139.847 5.40381Q139.225 4.31689 138.121 4.31689Q137.017 4.31689 136.395 5.40381Q135.773 6.4873 135.773 8.47314Q135.773 10.459 136.391 11.5356Q137.013 12.6089 138.121 12.6089ZM143.508 13.5625L148.064 4.55273L148.064 4.47412L142.814 4.47412L142.814 3.38037L149.336 3.38037L149.336 4.53564L144.803 13.5625L143.508 13.5625ZM154.724 2.90186L151.443 15.0938L150.369 15.0938L153.651 2.90186L154.724 2.90186ZM156.016 13.5625L156.016 12.667L159.379 8.98926Q159.97 8.34326 160.353 7.86475Q160.736 7.38281 160.921 6.95898Q161.109 6.53174 161.109 6.06689Q161.109 5.26025 160.548 4.78857Q159.991 4.31689 159.16 4.31689Q158.275 4.31689 157.752 4.84668Q157.229 5.37305 157.229 6.24463L156.057 6.24463Q156.057 5.34912 156.467 4.67236Q156.881 3.99561 157.595 3.61963Q158.309 3.24023 159.198 3.24023Q160.093 3.24023 160.784 3.61963Q161.474 3.99561 161.867 4.63818Q162.26 5.28076 162.26 6.06689Q162.26 6.62744 162.059 7.16406Q161.857 7.69727 161.362 8.3501Q160.869 9.00293 159.994 9.94287L157.708 12.3901L157.708 12.4688L162.442 12.4688L162.442 13.5625L156.016 13.5625ZM167.73 13.7026Q166.045 13.7026 165.115 12.3354Q164.189 10.9683 164.189 8.47314Q164.189 5.99512 165.122 4.61768Q166.058 3.24023 167.73 3.24023Q169.401 3.24023 170.334 4.61768Q171.271 5.99512 171.271 8.47314Q171.271 10.9683 170.341 12.3354Q169.415 13.7026 167.73 13.7026ZM167.73 12.6089Q168.844 12.6089 169.459 11.5356Q170.078 10.459 170.078 8.47314Q170.078 6.4873 169.456 5.40381Q168.834 4.31689 167.73 4.31689Q166.626 4.31689 166.004 5.40381Q165.382 6.4873 165.382 8.47314Q165.382 10.459 166 11.5356Q166.622 12.6089 167.73 12.6089ZM173.077 13.5625L173.077 12.667L176.441 8.98926Q177.032 8.34326 177.415 7.86475Q177.798 7.38281 177.982 6.95898Q178.17 6.53174 178.17 6.06689Q178.17 5.26025 177.61 4.78857Q177.052 4.31689 176.222 4.31689Q175.337 4.31689 174.814 4.84668Q174.291 5.37305 174.291 6.24463L173.118 6.24463Q173.118 5.34912 173.529 4.67236Q173.942 3.99561 174.656 3.61963Q175.371 3.24023 176.26 3.24023Q177.155 3.24023 177.845 3.61963Q178.536 3.99561 178.929 4.63818Q179.322 5.28076 179.322 6.06689Q179.322 6.62744 179.12 7.16406Q178.919 7.69727 178.423 8.3501Q177.931 9.00293 177.056 9.94287L174.769 12.3901L174.769 12.4688L179.503 12.4688L179.503 13.5625L173.077 13.5625ZM184.651 13.7026Q183.776 13.7026 183.075 13.354Q182.375 13.0054 181.951 12.4004Q181.531 11.792 181.489 11.0161L182.682 11.0161Q182.754 11.7065 183.311 12.1577Q183.872 12.6089 184.651 12.6089Q185.28 12.6089 185.769 12.3149Q186.258 12.021 186.538 11.5083Q186.818 10.9922 186.818 10.3394Q186.818 9.67627 186.528 9.15332Q186.237 8.62695 185.731 8.32275Q185.225 8.01855 184.572 8.01514Q184.104 8.0083 183.612 8.15527Q183.12 8.30225 182.802 8.53125L181.65 8.39111L182.265 3.38037L187.556 3.38037L187.556 4.47412L183.301 4.47412L182.942 7.47852L183 7.47852Q183.315 7.229 183.786 7.06494Q184.258 6.90088 184.771 6.90088Q185.707 6.90088 186.439 7.34521Q187.174 7.78955 187.594 8.56201Q188.014 9.33105 188.014 10.3223Q188.014 11.2964 187.577 12.0586Q187.143 12.8208 186.381 13.2617Q185.622 13.7026 184.651 13.7026Z" transform="translate(24 2)" fill="#000000" />
    </g>
    <g transform="translate(163 311)">
      <g transform="translate(0 2)">
        <rect width="16" height="16" rx="4" fill="#00BCD4" fill-rule="evenodd" />
        <path d="M1.70711 2.29289C1.31658 1.90237 0.683418 1.90237 0.292893 2.29289C-0.097631 2.68342 -0.097631 3.31658 0.292893 3.70711L2.29289 5.70711C2.68342 6.09763 3.31658 6.09763 3.70711 5.70711L7.70711 1.70711C8.09763 1.31658 8.09763 0.683418 7.70711 0.292893C7.31658 -0.097631 6.68342 -0.097631 6.29289 0.292893L3 3.58579L1.70711 2.29289L1.70711 2.29289Z" fill="#FFFFFF" fill-rule="evenodd" transform="translate(4 5)" />
      </g>
      <path d="M2.46436 3.38037L2.46436 13.5625L1.23389 13.5625L1.23389 3.38037L2.46436 3.38037ZM5.86447 8.96875L5.86447 13.5625L4.69211 13.5625L4.69211 5.92676L5.82687 5.92676L5.82687 7.11963L5.92599 7.11963Q6.19259 6.53857 6.73947 6.18311Q7.28634 5.82764 8.15451 5.82764Q9.30978 5.82764 10.0241 6.53857Q10.7385 7.24951 10.7385 8.70898L10.7385 13.5625L9.56613 13.5625L9.56613 8.79102Q9.56613 7.88867 9.09787 7.38623Q8.62961 6.88037 7.81613 6.88037Q6.97531 6.88037 6.41818 7.42725Q5.86447 7.9707 5.86447 8.96875ZM18.2159 7.63574L17.1598 7.93311Q17.006 7.53662 16.6437 7.18799Q16.2814 6.83936 15.5089 6.83936Q14.8082 6.83936 14.3434 7.16064Q13.8785 7.48193 13.8785 7.97412Q13.8785 8.41162 14.1964 8.66455Q14.5177 8.91748 15.191 9.08838L16.3258 9.36523Q18.3527 9.86426 18.3527 11.4331Q18.3527 12.0894 17.9767 12.6089Q17.6041 13.125 16.9308 13.4258Q16.2609 13.7231 15.3722 13.7231Q14.2032 13.7231 13.4376 13.2173Q12.672 12.708 12.4669 11.7339L13.5812 11.4536Q13.8956 12.6875 15.3517 12.6875Q16.172 12.6875 16.6573 12.3389Q17.1427 11.9868 17.1427 11.4946Q17.1427 10.6846 16.0079 10.4214L14.7364 10.1206Q13.6871 9.87451 13.1949 9.35156Q12.7062 8.8252 12.7062 8.03564Q12.7062 7.38623 13.0719 6.89062Q13.4376 6.39502 14.0699 6.11133Q14.7057 5.82764 15.5089 5.82764Q16.6437 5.82764 17.2931 6.32666Q17.9425 6.82227 18.2159 7.63574ZM23.3657 5.92676L23.3657 6.92139L21.7354 6.92139L21.7354 11.375Q21.7354 11.8706 21.8823 12.1167Q22.0293 12.3628 22.2583 12.4448Q22.4907 12.5269 22.7471 12.5269Q22.9419 12.5269 23.065 12.5063Q23.1914 12.4824 23.2666 12.4688L23.5059 13.5215Q23.3862 13.5659 23.1709 13.6138Q22.959 13.6616 22.6309 13.6616Q22.1318 13.6616 21.6568 13.4497Q21.1817 13.2344 20.8706 12.7969Q20.5596 12.3594 20.5596 11.6929L20.5596 6.92139L19.4077 6.92139L19.4077 5.92676L20.5596 5.92676L20.5596 4.09814L21.7354 4.09814L21.7354 5.92676L23.3657 5.92676ZM27.3034 13.7402Q26.5754 13.7402 25.9841 13.4668Q25.3928 13.1899 25.0441 12.667Q24.6955 12.1406 24.6955 11.3955Q24.6955 10.7393 24.9553 10.3291Q25.215 9.91895 25.6457 9.68652Q26.0798 9.45068 26.6027 9.33447Q27.1291 9.21826 27.6589 9.14648Q28.3561 9.05762 28.7902 9.01318Q29.2277 8.96533 29.426 8.85254Q29.6276 8.73633 29.6276 8.45264L29.6276 8.41162Q29.6276 7.67676 29.2277 7.27002Q28.8278 6.85986 28.0178 6.85986Q27.1769 6.85986 26.6984 7.229Q26.2233 7.59814 26.0285 8.01514L24.9142 7.61523Q25.215 6.92139 25.714 6.53174Q26.2131 6.13867 26.8078 5.98486Q27.4025 5.82764 27.9767 5.82764Q28.3459 5.82764 28.8244 5.9165Q29.3063 6.00195 29.7541 6.27197Q30.2053 6.53857 30.5026 7.08203Q30.8034 7.62207 30.8034 8.53125L30.8034 13.5625L29.6276 13.5625L29.6276 12.5269L29.5695 12.5269Q29.4499 12.7764 29.1696 13.0601Q28.8928 13.3438 28.4313 13.542Q27.9699 13.7402 27.3034 13.7402ZM27.4811 12.6875Q28.1784 12.6875 28.6569 12.4141Q29.1354 12.1406 29.3815 11.71Q29.6276 11.2759 29.6276 10.7974L29.6276 9.72412Q29.5558 9.81299 29.3029 9.88477Q29.0534 9.95654 28.7253 10.0112Q28.4006 10.0625 28.093 10.1001Q27.7888 10.1377 27.6008 10.1616Q27.1428 10.2231 26.7463 10.3564Q26.3532 10.4863 26.1105 10.7461Q25.8713 11.0059 25.8713 11.4536Q25.8713 12.0654 26.3259 12.3765Q26.7805 12.6875 27.4811 12.6875ZM34.0416 3.38037L34.0416 13.5625L32.8693 13.5625L32.8693 3.38037L34.0416 3.38037ZM37.2826 3.38037L37.2826 13.5625L36.1103 13.5625L36.1103 3.38037L37.2826 3.38037ZM41.6003 13.7402Q40.8723 13.7402 40.281 13.4668Q39.6897 13.1899 39.3411 12.667Q38.9924 12.1406 38.9924 11.3955Q38.9924 10.7393 39.2522 10.3291Q39.512 9.91895 39.9426 9.68652Q40.3767 9.45068 40.8997 9.33447Q41.426 9.21826 41.9558 9.14648Q42.6531 9.05762 43.0872 9.01318Q43.5247 8.96533 43.7229 8.85254Q43.9246 8.73633 43.9246 8.45264L43.9246 8.41162Q43.9246 7.67676 43.5247 7.27002Q43.1247 6.85986 42.3147 6.85986Q41.4739 6.85986 40.9954 7.229Q40.5203 7.59814 40.3254 8.01514L39.2112 7.61523Q39.512 6.92139 40.011 6.53174Q40.51 6.13867 41.1047 5.98486Q41.6995 5.82764 42.2737 5.82764Q42.6428 5.82764 43.1213 5.9165Q43.6033 6.00195 44.051 6.27197Q44.5022 6.53857 44.7996 7.08203Q45.1003 7.62207 45.1003 8.53125L45.1003 13.5625L43.9246 13.5625L43.9246 12.5269L43.8664 12.5269Q43.7468 12.7764 43.4665 13.0601Q43.1897 13.3438 42.7283 13.542Q42.2668 13.7402 41.6003 13.7402ZM41.7781 12.6875Q42.4753 12.6875 42.9538 12.4141Q43.4324 12.1406 43.6785 11.71Q43.9246 11.2759 43.9246 10.7974L43.9246 9.72412Q43.8528 9.81299 43.5998 9.88477Q43.3503 9.95654 43.0222 10.0112Q42.6975 10.0625 42.3899 10.1001Q42.0857 10.1377 41.8977 10.1616Q41.4397 10.2231 41.0432 10.3564Q40.6501 10.4863 40.4075 10.7461Q40.1682 11.0059 40.1682 11.4536Q40.1682 12.0654 40.6228 12.3765Q41.0774 12.6875 41.7781 12.6875ZM50.4885 5.92676L50.4885 6.92139L48.8581 6.92139L48.8581 11.375Q48.8581 11.8706 49.0051 12.1167Q49.152 12.3628 49.381 12.4448Q49.6135 12.5269 49.8698 12.5269Q50.0646 12.5269 50.1877 12.5063Q50.3141 12.4824 50.3893 12.4688L50.6286 13.5215Q50.509 13.5659 50.2936 13.6138Q50.0817 13.6616 49.7536 13.6616Q49.2546 13.6616 48.7795 13.4497Q48.3044 13.2344 47.9933 12.7969Q47.6823 12.3594 47.6823 11.6929L47.6823 6.92139L46.5305 6.92139L46.5305 5.92676L47.6823 5.92676L47.6823 4.09814L48.8581 4.09814L48.8581 5.92676L50.4885 5.92676ZM52.1771 13.5625L52.1771 5.92676L53.3495 5.92676L53.3495 13.5625L52.1771 13.5625ZM52.7753 4.65186Q52.43 4.65186 52.1839 4.41943Q51.9379 4.18701 51.9379 3.85889Q51.9379 3.53076 52.1839 3.29834Q52.43 3.0625 52.7753 3.0625Q53.1171 3.0625 53.3631 3.29834Q53.6092 3.53076 53.6092 3.85889Q53.6092 4.18701 53.3631 4.41943Q53.1171 4.65186 52.7753 4.65186ZM58.5216 13.7231Q57.486 13.7231 56.7067 13.231Q55.9308 12.7388 55.4933 11.8535Q55.0592 10.9683 55.0592 9.78564Q55.0592 8.58936 55.4933 7.70068Q55.9308 6.81201 56.7067 6.31982Q57.486 5.82764 58.5216 5.82764Q59.5539 5.82764 60.3332 6.31982Q61.1125 6.81201 61.5466 7.70068Q61.9806 8.58936 61.9806 9.78564Q61.9806 10.9683 61.5466 11.8535Q61.1125 12.7388 60.3332 13.231Q59.5539 13.7231 58.5216 13.7231ZM58.5216 12.667Q59.3078 12.667 59.8136 12.2671Q60.3195 11.8638 60.5622 11.2075Q60.8083 10.5513 60.8083 9.78564Q60.8083 9.02002 60.5622 8.36035Q60.3195 7.69727 59.8136 7.29053Q59.3078 6.88037 58.5216 6.88037Q57.7355 6.88037 57.2262 7.29053Q56.7204 7.69727 56.4777 8.36035Q56.235 9.02002 56.235 9.78564Q56.235 10.5513 56.4777 11.2075Q56.7204 11.8638 57.2262 12.2671Q57.7355 12.667 58.5216 12.667ZM64.8628 8.96875L64.8628 13.5625L63.6904 13.5625L63.6904 5.92676L64.8252 5.92676L64.8252 7.11963L64.9243 7.11963Q65.1909 6.53857 65.7378 6.18311Q66.2846 5.82764 67.1528 5.82764Q68.3081 5.82764 69.0224 6.53857Q69.7368 7.24951 69.7368 8.70898L69.7368 13.5625L68.5644 13.5625L68.5644 8.79102Q68.5644 7.88867 68.0962 7.38623Q67.6279 6.88037 66.8144 6.88037Q65.9736 6.88037 65.4165 7.42725Q64.8628 7.9707 64.8628 8.96875ZM77.2142 7.63574L76.1581 7.93311Q76.0043 7.53662 75.642 7.18799Q75.2797 6.83936 74.5072 6.83936Q73.8065 6.83936 73.3417 7.16064Q72.8768 7.48193 72.8768 7.97412Q72.8768 8.41162 73.1947 8.66455Q73.516 8.91748 74.1893 9.08838L75.3241 9.36523Q77.351 9.86426 77.351 11.4331Q77.351 12.0894 76.975 12.6089Q76.6024 13.125 75.9291 13.4258Q75.2592 13.7231 74.3705 13.7231Q73.2015 13.7231 72.4359 13.2173Q71.6703 12.708 71.4652 11.7339L72.5795 11.4536Q72.8939 12.6875 74.35 12.6875Q75.1703 12.6875 75.6556 12.3389Q76.141 11.9868 76.141 11.4946Q76.141 10.6846 75.0062 10.4214L73.7347 10.1206Q72.6854 9.87451 72.1932 9.35156Q71.7045 8.8252 71.7045 8.03564Q71.7045 7.38623 72.0702 6.89062Q72.4359 6.39502 73.0682 6.11133Q73.704 5.82764 74.5072 5.82764Q75.642 5.82764 76.2914 6.32666Q76.9408 6.82227 77.2142 7.63574ZM87.2743 7.92627L87.2743 9.02002L82.8207 9.02002L82.8207 7.92627L87.2743 7.92627ZM96.6815 3.38037L96.6815 13.5625L95.4476 13.5625L95.4476 4.67236L95.3861 4.67236L92.9012 6.32324L92.9012 5.07227L95.4476 3.38037L96.6815 3.38037ZM102.845 13.7026Q101.159 13.7026 100.23 12.3354Q99.3035 10.9683 99.3035 8.47314Q99.3035 5.99512 100.237 4.61768Q101.173 3.24023 102.845 3.24023Q104.516 3.24023 105.449 4.61768Q106.386 5.99512 106.386 8.47314Q106.386 10.9683 105.456 12.3354Q104.53 13.7026 102.845 13.7026ZM102.845 12.6089Q103.959 12.6089 104.574 11.5356Q105.193 10.459 105.193 8.47314Q105.193 6.4873 104.571 5.40381Q103.949 4.31689 102.845 4.31689Q101.741 4.31689 101.118 5.40381Q100.496 6.4873 100.496 8.47314Q100.496 10.459 101.115 11.5356Q101.737 12.6089 102.845 12.6089Z" transform="translate(24 2)" fill="#000000" />
    </g>
    <path d="M1 0L1 48.5" fill="none" stroke-width="1" stroke="#1B2631" stroke-linecap="square" transform="translate(223 169)" />
    <g transform="translate(163 401)">
      <g transform="translate(0 2)">
        <rect width="16" height="16" rx="4" fill="#00BCD4" fill-rule="evenodd" />
        <path d="M1.70711 2.29289C1.31658 1.90237 0.683418 1.90237 0.292893 2.29289C-0.097631 2.68342 -0.097631 3.31658 0.292893 3.70711L2.29289 5.70711C2.68342 6.09763 3.31658 6.09763 3.70711 5.70711L7.70711 1.70711C8.09763 1.31658 8.09763 0.683418 7.70711 0.292893C7.31658 -0.097631 6.68342 -0.097631 6.29289 0.292893L3 3.58579L1.70711 2.29289L1.70711 2.29289Z" fill="#FFFFFF" fill-rule="evenodd" transform="translate(4 5)" />
      </g>
      <path d="M0.676758 4.47412L0.676758 3.38037L8.3125 3.38037L8.3125 4.47412L5.10986 4.47412L5.10986 13.5625L3.87939 13.5625L3.87939 4.47412L0.676758 4.47412ZM9.18642 13.5625L9.18642 5.92676L10.3212 5.92676L10.3212 7.07861L10.3998 7.07861Q10.6083 6.51123 11.1552 6.15918Q11.702 5.80713 12.3891 5.80713Q12.5189 5.80713 12.7104 5.81396Q12.9052 5.81738 13.0043 5.82764L13.0043 7.02051Q12.9462 7.00342 12.7343 6.97266Q12.5224 6.94189 12.2899 6.94189Q11.4525 6.94189 10.9057 7.44775Q10.3588 7.95361 10.3588 8.72949L10.3588 13.5625L9.18642 13.5625ZM16.5657 13.7402Q15.8376 13.7402 15.2463 13.4668Q14.655 13.1899 14.3064 12.667Q13.9578 12.1406 13.9578 11.3955Q13.9578 10.7393 14.2175 10.3291Q14.4773 9.91895 14.908 9.68652Q15.342 9.45068 15.865 9.33447Q16.3914 9.21826 16.9211 9.14648Q17.6184 9.05762 18.0525 9.01318Q18.49 8.96533 18.6882 8.85254Q18.8899 8.73633 18.8899 8.45264L18.8899 8.41162Q18.8899 7.67676 18.49 7.27002Q18.0901 6.85986 17.28 6.85986Q16.4392 6.85986 15.9607 7.229Q15.4856 7.59814 15.2908 8.01514L14.1765 7.61523Q14.4773 6.92139 14.9763 6.53174Q15.4753 6.13867 16.0701 5.98486Q16.6648 5.82764 17.239 5.82764Q17.6082 5.82764 18.0867 5.9165Q18.5686 6.00195 19.0164 6.27197Q19.4675 6.53857 19.7649 7.08203Q20.0657 7.62207 20.0657 8.53125L20.0657 13.5625L18.8899 13.5625L18.8899 12.5269L18.8318 12.5269Q18.7122 12.7764 18.4319 13.0601Q18.155 13.3438 17.6936 13.542Q17.2322 13.7402 16.5657 13.7402ZM16.7434 12.6875Q17.4407 12.6875 17.9192 12.4141Q18.3977 12.1406 18.6438 11.71Q18.8899 11.2759 18.8899 10.7974L18.8899 9.72412Q18.8181 9.81299 18.5652 9.88477Q18.3157 9.95654 17.9875 10.0112Q17.6628 10.0625 17.3552 10.1001Q17.051 10.1377 16.863 10.1616Q16.405 10.2231 16.0085 10.3564Q15.6155 10.4863 15.3728 10.7461Q15.1335 11.0059 15.1335 11.4536Q15.1335 12.0654 15.5881 12.3765Q16.0427 12.6875 16.7434 12.6875ZM22.1315 13.5625L22.1315 5.92676L23.3039 5.92676L23.3039 13.5625L22.1315 13.5625ZM22.7297 4.65186Q22.3845 4.65186 22.1384 4.41943Q21.8923 4.18701 21.8923 3.85889Q21.8923 3.53076 22.1384 3.29834Q22.3845 3.0625 22.7297 3.0625Q23.0715 3.0625 23.3176 3.29834Q23.5637 3.53076 23.5637 3.85889Q23.5637 4.18701 23.3176 4.41943Q23.0715 4.65186 22.7297 4.65186ZM26.5449 8.96875L26.5449 13.5625L25.3726 13.5625L25.3726 5.92676L26.5073 5.92676L26.5073 7.11963L26.6064 7.11963Q26.873 6.53857 27.4199 6.18311Q27.9668 5.82764 28.835 5.82764Q29.9902 5.82764 30.7046 6.53857Q31.4189 7.24951 31.4189 8.70898L31.4189 13.5625L30.2466 13.5625L30.2466 8.79102Q30.2466 7.88867 29.7783 7.38623Q29.3101 6.88037 28.4966 6.88037Q27.6558 6.88037 27.0986 7.42725Q26.5449 7.9707 26.5449 8.96875ZM36.6884 13.7231Q35.5844 13.7231 34.7846 13.2344Q33.9882 12.7422 33.5575 11.8604Q33.1269 10.9785 33.1269 9.80273Q33.1269 8.63037 33.5575 7.73486Q33.9882 6.83594 34.7606 6.3335Q35.5331 5.82764 36.5687 5.82764Q37.1669 5.82764 37.7479 6.02588Q38.329 6.22412 38.8041 6.66846Q39.2826 7.11279 39.5663 7.84424Q39.85 8.57568 39.85 9.64551L39.85 10.1411L34.3061 10.1411Q34.3471 11.3647 34.9999 12.0176Q35.6527 12.667 36.6884 12.667Q37.3788 12.667 37.8744 12.3696Q38.3734 12.0723 38.5956 11.4741L39.7304 11.792Q39.4638 12.6567 38.6571 13.1899Q37.8505 13.7231 36.6884 13.7231ZM34.3061 9.12939L38.6571 9.12939Q38.6571 8.15869 38.0897 7.51953Q37.5224 6.88037 36.5687 6.88037Q35.8988 6.88037 35.4066 7.19482Q34.9145 7.50586 34.6308 8.02197Q34.3471 8.53467 34.3061 9.12939ZM44.4439 13.7231Q43.4903 13.7231 42.7589 13.2378Q42.0274 12.7524 41.6138 11.8672Q41.2003 10.9785 41.2003 9.76514Q41.2003 8.56201 41.6138 7.67676Q42.0274 6.7915 42.7623 6.30957Q43.4971 5.82764 44.4644 5.82764Q45.2095 5.82764 45.6436 6.07373Q46.0777 6.31982 46.3101 6.63086Q46.5425 6.94189 46.669 7.14014L46.7716 7.14014L46.7716 3.38037L47.9439 3.38037L47.9439 13.5625L46.8092 13.5625L46.8092 12.3901L46.669 12.3901Q46.5425 12.5986 46.3033 12.9165Q46.064 13.231 45.6197 13.4771Q45.1788 13.7231 44.4439 13.7231ZM44.6011 12.667Q45.6607 12.667 46.2247 11.8569Q46.7886 11.0435 46.7886 9.74463Q46.7886 8.46289 46.2315 7.67334Q45.6778 6.88037 44.6011 6.88037Q43.856 6.88037 43.3604 7.26318Q42.8682 7.64258 42.6221 8.29199Q42.376 8.93799 42.376 9.74463Q42.376 10.5581 42.6256 11.2246Q42.8785 11.8877 43.3707 12.2773Q43.8663 12.667 44.6011 12.667ZM58.402 7.92627L58.402 9.02002L53.9484 9.02002L53.9484 7.92627L58.402 7.92627ZM67.8092 3.38037L67.8092 13.5625L66.5753 13.5625L66.5753 4.67236L66.5138 4.67236L64.0289 6.32324L64.0289 5.07227L66.5753 3.38037L67.8092 3.38037ZM73.9723 13.7026Q72.2872 13.7026 71.3575 12.3354Q70.4313 10.9683 70.4313 8.47314Q70.4313 5.99512 71.3644 4.61768Q72.3009 3.24023 73.9723 3.24023Q75.6437 3.24023 76.5768 4.61768Q77.5133 5.99512 77.5133 8.47314Q77.5133 10.9683 76.5836 12.3354Q75.6573 13.7026 73.9723 13.7026ZM73.9723 12.6089Q75.0865 12.6089 75.7018 11.5356Q76.3204 10.459 76.3204 8.47314Q76.3204 6.4873 75.6983 5.40381Q75.0763 4.31689 73.9723 4.31689Q72.8683 4.31689 72.2462 5.40381Q71.6241 6.4873 71.6241 8.47314Q71.6241 10.459 72.2428 11.5356Q72.8649 12.6089 73.9723 12.6089Z" transform="translate(24 2)" fill="#000000" />
    </g>
    <path d="M1 0L1 69" fill="none" stroke-width="1" stroke="#1B2631" stroke-linecap="square" transform="translate(223 242)" />
    <path d="M1 0L1 66" fill="none" stroke-width="1" stroke="#1B2631" stroke-linecap="square" transform="translate(223 335)" />
    <path d="M1 0L1 30" fill="none" stroke-width="1" stroke="#1B2631" stroke-linecap="square" transform="translate(223 118)" />
    <path d="M1 0L1 85" fill="none" stroke-width="1" stroke="#1B2631" stroke-linecap="square" transform="translate(223 425)" />
    <g transform="translate(163 510)" />
    <g transform="translate(164 510)">
      <g transform="translate(0 2)">
        <rect width="16" height="16" rx="4" fill="#00BCD4" fill-rule="evenodd" />
        <path d="M1.70711 2.29289C1.31658 1.90237 0.683418 1.90237 0.292893 2.29289C-0.097631 2.68342 -0.097631 3.31658 0.292893 3.70711L2.29289 5.70711C2.68342 6.09763 3.31658 6.09763 3.70711 5.70711L7.70711 1.70711C8.09763 1.31658 8.09763 0.683418 7.70711 0.292893C7.31658 -0.097631 6.68342 -0.097631 6.29289 0.292893L3 3.58579L1.70711 2.29289L1.70711 2.29289Z" fill="#FFFFFF" fill-rule="evenodd" transform="translate(4 5)" />
      </g>
      <path d="M0.676758 4.47412L0.676758 3.38037L8.3125 3.38037L8.3125 4.47412L5.10986 4.47412L5.10986 13.5625L3.87939 13.5625L3.87939 4.47412L0.676758 4.47412ZM11.1968 13.7402Q10.4688 13.7402 9.87748 13.4668Q9.28617 13.1899 8.93753 12.667Q8.5889 12.1406 8.5889 11.3955Q8.5889 10.7393 8.84867 10.3291Q9.10843 9.91895 9.5391 9.68652Q9.97318 9.45068 10.4961 9.33447Q11.0225 9.21826 11.5523 9.14648Q12.2495 9.05762 12.6836 9.01318Q13.1211 8.96533 13.3194 8.85254Q13.521 8.73633 13.521 8.45264L13.521 8.41162Q13.521 7.67676 13.1211 7.27002Q12.7212 6.85986 11.9112 6.85986Q11.0703 6.85986 10.5918 7.229Q10.1167 7.59814 9.92191 8.01514L8.80765 7.61523Q9.10843 6.92139 9.60746 6.53174Q10.1065 6.13867 10.7012 5.98486Q11.2959 5.82764 11.8702 5.82764Q12.2393 5.82764 12.7178 5.9165Q13.1997 6.00195 13.6475 6.27197Q14.0987 6.53857 14.396 7.08203Q14.6968 7.62207 14.6968 8.53125L14.6968 13.5625L13.521 13.5625L13.521 12.5269L13.4629 12.5269Q13.3433 12.7764 13.063 13.0601Q12.7862 13.3438 12.3247 13.542Q11.8633 13.7402 11.1968 13.7402ZM11.3745 12.6875Q12.0718 12.6875 12.5503 12.4141Q13.0288 12.1406 13.2749 11.71Q13.521 11.2759 13.521 10.7974L13.521 9.72412Q13.4493 9.81299 13.1963 9.88477Q12.9468 9.95654 12.6187 10.0112Q12.294 10.0625 11.9864 10.1001Q11.6822 10.1377 11.4942 10.1616Q11.0362 10.2231 10.6397 10.3564Q10.2466 10.4863 10.0039 10.7461Q9.76468 11.0059 9.76468 11.4536Q9.76468 12.0654 10.2193 12.3765Q10.6739 12.6875 11.3745 12.6875ZM22.1733 7.63574L21.1172 7.93311Q20.9634 7.53662 20.6011 7.18799Q20.2387 6.83936 19.4663 6.83936Q18.7656 6.83936 18.3008 7.16064Q17.8359 7.48193 17.8359 7.97412Q17.8359 8.41162 18.1538 8.66455Q18.4751 8.91748 19.1484 9.08838L20.2832 9.36523Q22.31 9.86426 22.31 11.4331Q22.31 12.0894 21.9341 12.6089Q21.5615 13.125 20.8882 13.4258Q20.2182 13.7231 19.3296 13.7231Q18.1606 13.7231 17.395 13.2173Q16.6294 12.708 16.4243 11.7339L17.5386 11.4536Q17.853 12.6875 19.3091 12.6875Q20.1294 12.6875 20.6147 12.3389Q21.1001 11.9868 21.1001 11.4946Q21.1001 10.6846 19.9653 10.4214L18.6938 10.1206Q17.6445 9.87451 17.1523 9.35156Q16.6636 8.8252 16.6636 8.03564Q16.6636 7.38623 17.0293 6.89062Q17.395 6.39502 18.0273 6.11133Q18.6631 5.82764 19.4663 5.82764Q20.6011 5.82764 21.2505 6.32666Q21.8999 6.82227 22.1733 7.63574ZM24.0009 13.5625L24.0009 3.38037L25.1732 3.38037L25.1732 9.32764L25.3134 9.32764L28.6561 5.92676L30.1053 5.92676L26.8788 9.1875L30.3446 13.5625L28.8544 13.5625L25.9935 9.94287L25.1732 10.7051L25.1732 13.5625L24.0009 13.5625ZM36.948 7.63574L35.8918 7.93311Q35.738 7.53662 35.3757 7.18799Q35.0134 6.83936 34.2409 6.83936Q33.5403 6.83936 33.0754 7.16064Q32.6106 7.48193 32.6106 7.97412Q32.6106 8.41162 32.9284 8.66455Q33.2497 8.91748 33.9231 9.08838L35.0578 9.36523Q37.0847 9.86426 37.0847 11.4331Q37.0847 12.0894 36.7087 12.6089Q36.3362 13.125 35.6628 13.4258Q34.9929 13.7231 34.1042 13.7231Q32.9353 13.7231 32.1697 13.2173Q31.404 12.708 31.199 11.7339L32.3132 11.4536Q32.6277 12.6875 34.0837 12.6875Q34.904 12.6875 35.3894 12.3389Q35.8747 11.9868 35.8747 11.4946Q35.8747 10.6846 34.74 10.4214L33.4685 10.1206Q32.4192 9.87451 31.927 9.35156Q31.4382 8.8252 31.4382 8.03564Q31.4382 7.38623 31.8039 6.89062Q32.1697 6.39502 32.802 6.11133Q33.4377 5.82764 34.2409 5.82764Q35.3757 5.82764 36.0251 6.32666Q36.6745 6.82227 36.948 7.63574ZM50.9865 6.5625L49.7526 6.5625Q49.6023 5.85498 49.1784 5.37305Q48.758 4.89111 48.1599 4.64502Q47.5651 4.39551 46.8884 4.39551Q45.9655 4.39551 45.217 4.86377Q44.4685 5.32861 44.0275 6.24121Q43.5866 7.15039 43.5866 8.47314Q43.5866 9.79248 44.0275 10.7051Q44.4685 11.6143 45.217 12.0825Q45.9655 12.5474 46.8884 12.5474Q47.5651 12.5474 48.1599 12.3013Q48.758 12.0518 49.1784 11.5698Q49.6023 11.0879 49.7526 10.3804L50.9865 10.3804Q50.7985 11.4263 50.2141 12.168Q49.633 12.9097 48.7717 13.3062Q47.9138 13.7026 46.8884 13.7026Q45.5861 13.7026 44.571 13.0669Q43.5593 12.4277 42.9748 11.2554Q42.3938 10.083 42.3938 8.47314Q42.3938 6.85986 42.9748 5.6875Q43.5593 4.51514 44.571 3.87939Q45.5861 3.24023 46.8884 3.24023Q47.9138 3.24023 48.7717 3.63672Q49.633 4.0332 50.2141 4.77832Q50.7985 5.52002 50.9865 6.5625ZM55.8384 13.7231Q54.8027 13.7231 54.0234 13.231Q53.2475 12.7388 52.81 11.8535Q52.3759 10.9683 52.3759 9.78564Q52.3759 8.58936 52.81 7.70068Q53.2475 6.81201 54.0234 6.31982Q54.8027 5.82764 55.8384 5.82764Q56.8706 5.82764 57.6499 6.31982Q58.4292 6.81201 58.8633 7.70068Q59.2973 8.58936 59.2973 9.78564Q59.2973 10.9683 58.8633 11.8535Q58.4292 12.7388 57.6499 13.231Q56.8706 13.7231 55.8384 13.7231ZM55.8384 12.667Q56.6245 12.667 57.1303 12.2671Q57.6362 11.8638 57.8789 11.2075Q58.125 10.5513 58.125 9.78564Q58.125 9.02002 57.8789 8.36035Q57.6362 7.69727 57.1303 7.29053Q56.6245 6.88037 55.8384 6.88037Q55.0522 6.88037 54.5429 7.29053Q54.0371 7.69727 53.7944 8.36035Q53.5517 9.02002 53.5517 9.78564Q53.5517 10.5513 53.7944 11.2075Q54.0371 11.8638 54.5429 12.2671Q55.0522 12.667 55.8384 12.667ZM61.0071 13.5625L61.0071 5.92676L62.1419 5.92676L62.1419 7.11963L62.241 7.11963Q62.4803 6.50781 63.01 6.16943Q63.5432 5.82764 64.2884 5.82764Q65.0437 5.82764 65.5496 6.16943Q66.0555 6.50781 66.3357 7.11963L66.4178 7.11963Q66.7117 6.52832 67.2962 6.17969Q67.8841 5.82764 68.7044 5.82764Q69.7263 5.82764 70.3792 6.4668Q71.032 7.10596 71.032 8.45264L71.032 13.5625L69.8562 13.5625L69.8562 8.45264Q69.8562 7.60498 69.3948 7.24268Q68.9334 6.88037 68.3045 6.88037Q67.5013 6.88037 67.0569 7.36572Q66.616 7.85107 66.616 8.58936L66.616 13.5625L65.4231 13.5625L65.4231 8.33301Q65.4231 7.68018 64.9993 7.28027Q64.5789 6.88037 63.9124 6.88037Q63.4544 6.88037 63.0579 7.12646Q62.6648 7.36914 62.4221 7.7998Q62.1795 8.22705 62.1795 8.79102L62.1795 13.5625L61.0071 13.5625ZM73.0976 16.4268L73.0976 5.92676L74.2323 5.92676L74.2323 7.14014L74.3725 7.14014Q74.4989 6.94189 74.7314 6.63086Q74.9638 6.31982 75.3979 6.07373Q75.8319 5.82764 76.5771 5.82764Q77.5443 5.82764 78.2792 6.30957Q79.0141 6.7915 79.4276 7.67676Q79.8412 8.56201 79.8412 9.76514Q79.8412 10.9785 79.4276 11.8672Q79.0141 12.7524 78.2826 13.2378Q77.5512 13.7231 76.5976 13.7231Q75.8627 13.7231 75.4184 13.4771Q74.9774 13.231 74.7382 12.9165Q74.4989 12.5986 74.3725 12.3901L74.2699 12.3901L74.2699 16.4268L73.0976 16.4268ZM74.2528 9.74463Q74.2528 11.0435 74.8168 11.8569Q75.3808 12.667 76.4403 12.667Q77.1752 12.667 77.6674 12.2773Q78.163 11.8877 78.4125 11.2246Q78.6654 10.5581 78.6654 9.74463Q78.6654 8.93799 78.4193 8.29199Q78.1732 7.64258 77.6776 7.26318Q77.1855 6.88037 76.4403 6.88037Q75.3637 6.88037 74.8065 7.67334Q74.2528 8.46289 74.2528 9.74463ZM82.7212 3.38037L82.7212 13.5625L81.5488 13.5625L81.5488 3.38037L82.7212 3.38037ZM87.9925 13.7231Q86.8885 13.7231 86.0887 13.2344Q85.2923 12.7422 84.8616 11.8604Q84.4309 10.9785 84.4309 9.80273Q84.4309 8.63037 84.8616 7.73486Q85.2923 6.83594 86.0647 6.3335Q86.8372 5.82764 87.8728 5.82764Q88.471 5.82764 89.052 6.02588Q89.6331 6.22412 90.1082 6.66846Q90.5867 7.11279 90.8704 7.84424Q91.1541 8.57568 91.1541 9.64551L91.1541 10.1411L85.6101 10.1411Q85.6512 11.3647 86.304 12.0176Q86.9568 12.667 87.9925 12.667Q88.6829 12.667 89.1785 12.3696Q89.6775 12.0723 89.8997 11.4741L91.0345 11.792Q90.7679 12.6567 89.9612 13.1899Q89.1546 13.7231 87.9925 13.7231ZM85.6101 9.12939L89.9612 9.12939Q89.9612 8.15869 89.3938 7.51953Q88.8265 6.88037 87.8728 6.88037Q87.2029 6.88037 86.7107 7.19482Q86.2185 7.50586 85.9349 8.02197Q85.6512 8.53467 85.6101 9.12939ZM96.1855 5.92676L96.1855 6.92139L94.5551 6.92139L94.5551 11.375Q94.5551 11.8706 94.7021 12.1167Q94.8491 12.3628 95.0781 12.4448Q95.3105 12.5269 95.5669 12.5269Q95.7617 12.5269 95.8847 12.5063Q96.0112 12.4824 96.0864 12.4688L96.3256 13.5215Q96.206 13.5659 95.9907 13.6138Q95.7788 13.6616 95.4506 13.6616Q94.9516 13.6616 94.4765 13.4497Q94.0014 13.2344 93.6904 12.7969Q93.3794 12.3594 93.3794 11.6929L93.3794 6.92139L92.2275 6.92139L92.2275 5.92676L93.3794 5.92676L93.3794 4.09814L94.5551 4.09814L94.5551 5.92676L96.1855 5.92676ZM100.997 13.7231Q99.8932 13.7231 99.0934 13.2344Q98.2971 12.7422 97.8664 11.8604Q97.4357 10.9785 97.4357 9.80273Q97.4357 8.63037 97.8664 7.73486Q98.2971 6.83594 99.0695 6.3335Q99.842 5.82764 100.878 5.82764Q101.476 5.82764 102.057 6.02588Q102.638 6.22412 103.113 6.66846Q103.591 7.11279 103.875 7.84424Q104.159 8.57568 104.159 9.64551L104.159 10.1411L98.6149 10.1411Q98.6559 11.3647 99.3088 12.0176Q99.9616 12.667 100.997 12.667Q101.688 12.667 102.183 12.3696Q102.682 12.0723 102.904 11.4741L104.039 11.792Q103.773 12.6567 102.966 13.1899Q102.159 13.7231 100.997 13.7231ZM98.6149 9.12939L102.966 9.12939Q102.966 8.15869 102.399 7.51953Q101.831 6.88037 100.878 6.88037Q100.208 6.88037 99.7155 7.19482Q99.2233 7.50586 98.9396 8.02197Q98.6559 8.53467 98.6149 9.12939ZM108.753 13.7231Q107.799 13.7231 107.068 13.2378Q106.336 12.7524 105.923 11.8672Q105.509 10.9785 105.509 9.76514Q105.509 8.56201 105.923 7.67676Q106.336 6.7915 107.071 6.30957Q107.806 5.82764 108.773 5.82764Q109.518 5.82764 109.952 6.07373Q110.387 6.31982 110.619 6.63086Q110.851 6.94189 110.978 7.14014L111.08 7.14014L111.08 3.38037L112.253 3.38037L112.253 13.5625L111.118 13.5625L111.118 12.3901L110.978 12.3901Q110.851 12.5986 110.612 12.9165Q110.373 13.231 109.929 13.4771Q109.488 13.7231 108.753 13.7231ZM108.91 12.667Q109.97 12.667 110.534 11.8569Q111.098 11.0435 111.098 9.74463Q111.098 8.46289 110.54 7.67334Q109.987 6.88037 108.91 6.88037Q108.165 6.88037 107.669 7.26318Q107.177 7.64258 106.931 8.29199Q106.685 8.93799 106.685 9.74463Q106.685 10.5581 106.934 11.2246Q107.187 11.8877 107.68 12.2773Q108.175 12.667 108.91 12.667ZM122.711 7.92627L122.711 9.02002L118.257 9.02002L118.257 7.92627L122.711 7.92627ZM128.536 13.5625L128.536 12.667L131.899 8.98926Q132.491 8.34326 132.873 7.86475Q133.256 7.38281 133.441 6.95898Q133.629 6.53174 133.629 6.06689Q133.629 5.26025 133.068 4.78857Q132.511 4.31689 131.681 4.31689Q130.795 4.31689 130.272 4.84668Q129.749 5.37305 129.749 6.24463L128.577 6.24463Q128.577 5.34912 128.987 4.67236Q129.401 3.99561 130.115 3.61963Q130.829 3.24023 131.718 3.24023Q132.614 3.24023 133.304 3.61963Q133.995 3.99561 134.388 4.63818Q134.781 5.28076 134.781 6.06689Q134.781 6.62744 134.579 7.16406Q134.377 7.69727 133.882 8.3501Q133.39 9.00293 132.515 9.94287L130.228 12.3901L130.228 12.4688L134.962 12.4688L134.962 13.5625L128.536 13.5625ZM140.192 13.7026Q139.166 13.7026 138.384 13.3369Q137.601 12.9712 137.163 12.3286Q136.726 11.6826 136.729 10.8589Q136.726 10.2129 136.982 9.6626Q137.242 9.1123 137.69 8.74316Q138.141 8.37061 138.698 8.27148L138.698 8.21338Q137.967 8.02539 137.533 7.39307Q137.102 6.75732 137.109 5.94727Q137.102 5.17139 137.498 4.55957Q137.898 3.94775 138.596 3.5957Q139.296 3.24023 140.192 3.24023Q141.074 3.24023 141.771 3.5957Q142.468 3.94775 142.868 4.55957Q143.268 5.17139 143.271 5.94727Q143.268 6.75732 142.83 7.39307Q142.396 8.02539 141.682 8.21338L141.682 8.27148Q142.232 8.37061 142.673 8.74316Q143.118 9.1123 143.381 9.6626Q143.644 10.2129 143.651 10.8589Q143.644 11.6826 143.203 12.3286Q142.766 12.9712 141.986 13.3369Q141.21 13.7026 140.192 13.7026ZM140.192 12.6089Q141.224 12.6089 141.829 12.1133Q142.434 11.6177 142.437 10.7974Q142.434 10.2231 142.14 9.78223Q141.846 9.33789 141.34 9.08496Q140.838 8.82861 140.192 8.82861Q139.539 8.82861 139.03 9.08496Q138.52 9.33789 138.23 9.78223Q137.939 10.2231 137.943 10.7974Q137.939 11.6177 138.541 12.1133Q139.142 12.6089 140.192 12.6089ZM140.192 7.77588Q141.012 7.77588 141.542 7.29736Q142.075 6.81543 142.079 6.02588Q142.075 5.25 141.556 4.78516Q141.036 4.31689 140.192 4.31689Q139.334 4.31689 138.814 4.78516Q138.295 5.25 138.302 6.02588Q138.295 6.81543 138.825 7.29736Q139.354 7.77588 140.192 7.77588ZM149.098 2.90186L145.817 15.0938L144.743 15.0938L148.025 2.90186L149.098 2.90186ZM153.972 3.38037L153.972 13.5625L152.738 13.5625L152.738 4.67236L152.676 4.67236L150.192 6.32324L150.192 5.07227L152.738 3.38037L153.972 3.38037ZM160.135 13.7026Q158.45 13.7026 157.52 12.3354Q156.594 10.9683 156.594 8.47314Q156.594 5.99512 157.527 4.61768Q158.464 3.24023 160.135 3.24023Q161.806 3.24023 162.739 4.61768Q163.676 5.99512 163.676 8.47314Q163.676 10.9683 162.746 12.3354Q161.82 13.7026 160.135 13.7026ZM160.135 12.6089Q161.249 12.6089 161.864 11.5356Q162.483 10.459 162.483 8.47314Q162.483 6.4873 161.861 5.40381Q161.239 4.31689 160.135 4.31689Q159.031 4.31689 158.409 5.40381Q157.787 6.4873 157.787 8.47314Q157.787 10.459 158.405 11.5356Q159.027 12.6089 160.135 12.6089ZM169.102 2.90186L165.821 15.0938L164.748 15.0938L168.029 2.90186L169.102 2.90186ZM170.394 13.5625L170.394 12.667L173.757 8.98926Q174.349 8.34326 174.732 7.86475Q175.114 7.38281 175.299 6.95898Q175.487 6.53174 175.487 6.06689Q175.487 5.26025 174.926 4.78857Q174.369 4.31689 173.539 4.31689Q172.653 4.31689 172.13 4.84668Q171.607 5.37305 171.607 6.24463L170.435 6.24463Q170.435 5.34912 170.845 4.67236Q171.259 3.99561 171.973 3.61963Q172.688 3.24023 173.576 3.24023Q174.472 3.24023 175.162 3.61963Q175.853 3.99561 176.246 4.63818Q176.639 5.28076 176.639 6.06689Q176.639 6.62744 176.437 7.16406Q176.235 7.69727 175.74 8.3501Q175.248 9.00293 174.373 9.94287L172.086 12.3901L172.086 12.4688L176.82 12.4688L176.82 13.5625L170.394 13.5625ZM182.108 13.7026Q180.423 13.7026 179.493 12.3354Q178.567 10.9683 178.567 8.47314Q178.567 5.99512 179.5 4.61768Q180.437 3.24023 182.108 3.24023Q183.779 3.24023 184.712 4.61768Q185.649 5.99512 185.649 8.47314Q185.649 10.9683 184.719 12.3354Q183.793 13.7026 182.108 13.7026ZM182.108 12.6089Q183.222 12.6089 183.837 11.5356Q184.456 10.459 184.456 8.47314Q184.456 6.4873 183.834 5.40381Q183.212 4.31689 182.108 4.31689Q181.004 4.31689 180.382 5.40381Q179.76 6.4873 179.76 8.47314Q179.76 10.459 180.378 11.5356Q181.001 12.6089 182.108 12.6089ZM187.456 13.5625L187.456 12.667L190.819 8.98926Q191.41 8.34326 191.793 7.86475Q192.176 7.38281 192.36 6.95898Q192.548 6.53174 192.548 6.06689Q192.548 5.26025 191.988 4.78857Q191.431 4.31689 190.6 4.31689Q189.715 4.31689 189.192 4.84668Q188.669 5.37305 188.669 6.24463L187.497 6.24463Q187.497 5.34912 187.907 4.67236Q188.32 3.99561 189.035 3.61963Q189.749 3.24023 190.638 3.24023Q191.533 3.24023 192.224 3.61963Q192.914 3.99561 193.307 4.63818Q193.7 5.28076 193.7 6.06689Q193.7 6.62744 193.499 7.16406Q193.297 7.69727 192.801 8.3501Q192.309 9.00293 191.434 9.94287L189.148 12.3901L189.148 12.4688L193.881 12.4688L193.881 13.5625L187.456 13.5625ZM199.029 13.7026Q198.154 13.7026 197.454 13.354Q196.753 13.0054 196.329 12.4004Q195.909 11.792 195.868 11.0161L197.061 11.0161Q197.132 11.7065 197.69 12.1577Q198.25 12.6089 199.029 12.6089Q199.658 12.6089 200.147 12.3149Q200.636 12.021 200.916 11.5083Q201.196 10.9922 201.196 10.3394Q201.196 9.67627 200.906 9.15332Q200.615 8.62695 200.109 8.32275Q199.604 8.01855 198.951 8.01514Q198.483 8.0083 197.99 8.15527Q197.498 8.30225 197.18 8.53125L196.028 8.39111L196.644 3.38037L201.935 3.38037L201.935 4.47412L197.679 4.47412L197.32 7.47852L197.379 7.47852Q197.693 7.229 198.165 7.06494Q198.636 6.90088 199.149 6.90088Q200.086 6.90088 200.817 7.34521Q201.552 7.78955 201.972 8.56201Q202.393 9.33105 202.393 10.3223Q202.393 11.2964 201.955 12.0586Q201.521 12.8208 200.759 13.2617Q200 13.7026 199.029 13.7026Z" transform="translate(24 2)" fill="#000000" />
    </g>
  </g>
</svg>